<svg id="landscape_2-3" xmlns="http://www.w3.org/2000/svg" xmlns:xlink="http://www.w3.org/1999/xlink" width="2158.188" height="497.677" viewBox="0 0 2158.188 497.677">
  <defs>
    <linearGradient id="linear-gradient" x1="-132.174" y1="17.569" x2="-132.106" y2="17.569" gradientUnits="objectBoundingBox">
      <stop offset="0" stop-color="#daebf0"/>
      <stop offset="0.15" stop-color="#8cb797"/>
      <stop offset="0.365" stop-color="#60926d"/>
      <stop offset="0.479" stop-color="#60926d"/>
      <stop offset="1" stop-color="#305f3c"/>
    </linearGradient>
    <clipPath id="clip-path">
      <rect id="Rectangle_2" data-name="Rectangle 2" width="2158.188" height="497.677"/>
    </clipPath>
    <clipPath id="clip-path-2">
      <path id="Path_1" data-name="Path 1" d="M1507.441,147.167c-6.462,6.058-17.038,9.835-21.346,5.9s-4.824-2.545-10.568,1.091-8.1,1.329-16,9.1-10.773,14.944-15.081,13.633-11.4-6.4-17.953-5.689-6.772-8.313-9.755-8.313c-3.01,0-4.608,2.442-8.2,2.53s-7.9,1.426-11.49-5.387-10.774,0-19.391,5.387-22.261,7.484-28.005,19.329-7.9,21.463-14.362,23.947-6.462,28.554-9.688,34.072c-1.72,2.941-4.776-.983-8.5-4.906-3.256-3.43-7.023-6.86-10.856-5.705-8.219,2.472-6.142-11.56-12.606-23.46s-13.644,9.63-19.374,9.63-15.1-3.029-17.251-4.722-9.336-7.393-14-8.156-21.907-16.649-24.061-24.093-4.357-4.668-4.357-4.668-18.625-6.812-21.856-3.6-63.912,14.2-63.912,14.2-13.106,4.354-19.06.758-15.769-3.3-15.769-3.3-27.288,4.809-33.26,10.509-44.822.675-52.914-2.6-22.261-19-25.614-25.436-53.02,14.957-62,17.529-39.492,11.621-47.393,18.4-52.422-9.048-58.884-10.491-25.467-7.018-29.445-11.3-10.772,1.388-15.081,3.394c-2.154,1-3.949.5-5.923,0a11.059,11.059,0,0,0-7,0c-5.747,2-4.31,2.537-7.9,7.907-2.057,3.076-5.892-.438-9.492-3.953-2.683-2.619-5.236-5.238-6.826-5.129-6.436.441-8.767-6.335-13.718-7.255-5.38-1-4.875,4.381-10.62,6.686s-9.611,5.04-17.609,20.142c-5.089,9.608-9.984,6.548-13.983,3.486-2.286-1.751-4.28-3.5-5.846-2.882-4.309,1.707-26.75-11.094-26.75-11.094s-5.745-12.939-12.927-7.907-11.489,5.565-14.492,7.907-7.77-1.584-11.361-3.677-9.336-4.721-12.209-.934c-1.542,2.033-3.707.353-5.936-1.327-1.922-1.448-3.892-2.9-5.553-1.968-3.591,2-8.619-10.331-17.234-13.292s-7.9-9.154-14.363-15.888c-3.655-3.809-8.462-3.076-14.674,1.015V319.155l1202.493,9.329s1.333-6.473,3.248-16.034l-1.446-114.929q-.819-7.213-1.586-14.434c-10.29,2.254-13.51-2.6-20.388-6.568-7.181-4.139-9.353-11.917-23.326-13.632-13.367-1.643-24.716,6.6-29.359,9.265-9.186,5.28-39.083-7.829-44.874-12.365-5.209-4.075-17.405-5.842-25.662-8.456-7.18-2.269-20.387.379-27.568,1.894l-16.112,7.191c-5.028.957-15.059,1.475-20.562-7.571-3.5-5.748-8.989-8.93-14.186-8.93a11.819,11.819,0,0,0-8.219,3.251" transform="translate(-534.989 -143.916)"/>
    </clipPath>
    <clipPath id="clip-path-4">
      <path id="Path_2" data-name="Path 2" d="M1531.093,177.245c-8.354,5.53-30.879,3.4-48.5,1.263-11.71-1.418-21.258-2.836-23.044-2.007-4.484,2.079-38.78,15.128-56.016,21.341s-39.5,12.271-58.166,21.949-31.6,43.863-44.107,39.305-6.162-27.311-16.217-33.5-10.053-15.481-12.907-13.57-31.253,5.3-31.253,5.3-20.827,5.218-28.417.285-11.442-10.684-18.622-17.064-35.908,5.742-42.37,9.569-26.572,12.109-35.906,17.695-8.619,3.338-11.49,0-20.107-4.948-25.853-4.777-44.524,8.754-48.115,8.932-31.6-10.379-38.779-14.355-28.725-9.408-38.059-7.495-48.833,14.022-66.067,21.85-53.86,4.919-72.532,0-53.141-22.488-65.348-26.122c-6.363-1.893-26.028.477-45.6,2.849-17.978,2.18-35.877,4.358-43.3,3.228-15.51-2.364-33.607-6.125-45.234-6.889s-18.971-11.443-24.463-9.171c-11.216,4.639-9.452,10.781-20.225,14.606-2.573.912-11.335-8.336-13.315-8.715-1.375-.263-3.113,1.4-4.944,3.061-2.147,1.948-4.424,3.9-6.394,2.743-3.821-2.239-3.6-4.207-10.861-6.308V360.9l590.634-.368,615.1.368V208.581c-.059-.49-.119-.98-.177-1.471-3.152-4.258-7.542-8.472-12.609-8.472-10.233,0-38.591-23.583-40.876-15.521s-14.382,17.335-28.594,20.162-25.564-18.858-35.187-23.762-12.929-9.562-19.512-7.8-9.934-4.943-17.83-8.767a13.733,13.733,0,0,0-5.676-.909c-12.483,0-37.529,7.506-49.167,15.208" transform="translate(-534.983 -162.037)"/>
    </clipPath>
    <linearGradient id="linear-gradient-2" x1="-0.476" y1="1.629" x2="-0.475" y2="1.629" gradientUnits="objectBoundingBox">
      <stop offset="0" stop-color="#4d7558"/>
      <stop offset="0.001" stop-color="#e5eef1"/>
      <stop offset="0.316" stop-color="#4d7558"/>
      <stop offset="0.479" stop-color="#4d7558"/>
      <stop offset="1" stop-color="#4d7558"/>
    </linearGradient>
    <clipPath id="clip-path-6">
      <path id="Path_3" data-name="Path 3" d="M1199.738,126.9c-13.616,6.569-39.921,11.473-58.979,13.609s-31.3-1.377-44.161-2.668-14.093,4.317-17.449,8.923c-1.787,2.454-5.147,1.416-8.276.376-2.745-.91-5.312-1.821-6.484-.376s-4.149,1.191-8.286.927c-4.657-.3-10.8-.593-17.535,1.558-5.765,1.841-8.266-.837-9.976-3.514-2.066-3.236-2.976-6.472-7.086-1.733-7.514,8.657-24.116,11.784-31.919,13.376s-20.1-.457-31.21,11.446-28.9,20.462-44.69,28.245-38.114-3.151-56.029-10.51c-7.961-3.269-5.56-8.96-7.961-9.894-10.475-4.086-4.083-9.379-11.365-9.86-3.559-.235-3.706,2.1-8.671,3.994s-7.467.885-15.27,7.9-17.022,5.855-27.662,7.859-14.186,14.65-24.117,10.51-19.859,4.14-27.662,7.886-11.35,3.066-20.4-7.886-22.434,2.687-32.8,5.276-35.466,3.974-51.068,12.49-43.279,6.218-53.207,15.516c-5.623,5.265-10.31,1.052-15.379-3.16-3.886-3.229-7.995-6.46-12.919-5.417-8.213,1.737-9.57,2.427-14.191,11.232V429.676H895.157l845.566-12.628V279.578c-.635-1.871-1.336-3.058-2.12-3.416-9.933-4.543-29.79-25.74-45.4-30.282s-9.932-7.57-24.823-12.114-39.719-20.441-49.926-23.257-56.47-10.053-62.146-18.126c-3.159-4.5-4.281-4.482-5.758-4.469-1.174.011-2.573.021-5.4-2.236-6.388-5.1-20.866-11.09-31.509-7.857s-9.113-1.964-13.366-5.375-14.158-8.161-21.961-2.29-10.666,7.589-18.467,2.862-7.094-6.63-20.57-3.982-19.153,10.225-31.209,13.286-24.665,6.551-36.72,10.3-11.513,7.836-31.372,1.851-42.558-28.839-60.793-35.548c-16.547-6.087-57.279-32.9-74.848-32.9a10.557,10.557,0,0,0-4.6.886" transform="translate(-534.988 -126.018)"/>
    </clipPath>
    <linearGradient id="linear-gradient-3" x1="-0.476" y1="1.194" x2="-0.475" y2="1.194" gradientUnits="objectBoundingBox">
      <stop offset="0" stop-color="#305f3c"/>
      <stop offset="0.242" stop-color="#6c8773"/>
      <stop offset="0.51" stop-color="#6c8773"/>
      <stop offset="0.819" stop-color="#6c8773"/>
      <stop offset="0.976" stop-color="#6c8773"/>
      <stop offset="1" stop-color="#4d7558"/>
    </linearGradient>
    <clipPath id="clip-path-11">
      <path id="Path_6" data-name="Path 6" d="M352.27,146.992c-6.463,6.056-17.038,9.833-21.346,5.9s-4.825-2.546-10.569,1.092-8.1,1.326-16,9.1-10.773,14.944-15.079,13.632-11.4-6.393-17.953-5.687-6.774-8.313-9.757-8.313c-3.009,0-4.608,2.442-8.2,2.531s-7.9,1.426-11.489-5.39-10.774,0-19.394,5.39-22.26,7.482-28,19.327c-4.331,8.932-6.625,16.594-10.258,20.89l.478,1.136c3.933,9.384,4.874,20.67,5.723,30.5.261,3.044.386,6.093.425,9.144H584.725l-.615-48.894q-.821-7.215-1.588-14.433c-10.29,2.253-13.51-2.605-20.388-6.568-7.179-4.143-9.351-11.918-23.325-13.633-13.366-1.642-24.717,6.6-29.359,9.263-9.186,5.279-39.082-7.828-44.875-12.362-5.208-4.076-17.4-5.843-25.662-8.456-7.181-2.27-20.387.379-27.568,1.892l-16.111,7.192c-5.029.956-15.059,1.477-20.562-7.57-3.5-5.748-8.989-8.931-14.186-8.931a11.832,11.832,0,0,0-8.217,3.252" transform="translate(-184.222 -143.74)"/>
    </clipPath>
    <clipPath id="clip-path-13">
      <path id="Path_7" data-name="Path 7" d="M422.691,178.01c-8.355,5.53-30.881,3.4-48.506,1.261-11.709-1.418-21.255-2.836-23.042-2.007-4.484,2.079-38.78,15.126-56.015,21.341s-39.5,12.269-58.167,21.948-31.6,43.861-44.107,39.306-6.162-27.313-16.218-33.5-10.053-15.484-12.907-13.571-31.252,5.3-31.252,5.3-20.826,5.219-28.417.283-11.443-10.68-18.623-17.064-35.908,5.743-42.368,9.568S16.5,222.986,7.161,228.57c-3.656,2.187-5.769,3.172-7.161,3.361V361.308l17.213-.011,579.943.351c-.172-.166-.35-.325-.519-.493-8.957-8.958-17.334-24.627-15.667-37.823,1.333-10.543,2.4-21.416,4.884-31.813a130.808,130.808,0,0,1,10.93-28.833,87.6,87.6,0,0,1,35.534-36.158V209.345c-.059-.491-.12-.983-.178-1.473-3.153-4.257-7.542-8.47-12.608-8.47-10.232,0-38.592-23.585-40.877-15.523s-14.381,17.338-28.594,20.162-25.564-18.856-35.186-23.759-12.93-9.562-19.513-7.806-9.935-4.944-17.829-8.766a13.73,13.73,0,0,0-5.679-.91c-12.487,0-37.525,7.508-49.164,15.21" transform="translate(0 -162.8)"/>
    </clipPath>
    <linearGradient id="linear-gradient-4" y1="1.625" x2="0.002" y2="1.625" gradientUnits="objectBoundingBox">
      <stop offset="0" stop-color="#e5eef1"/>
      <stop offset="0.001" stop-color="#e5eef1"/>
      <stop offset="0.316" stop-color="#bbd6ea"/>
      <stop offset="0.479" stop-color="#abcee7"/>
      <stop offset="1" stop-color="#3c6a48"/>
    </linearGradient>
    <clipPath id="clip-path-15">
      <path id="Path_8" data-name="Path 8" d="M1955.408,148.026c-6.46,6.057-17.038,9.834-21.346,5.9s-4.823-2.548-10.569,1.09-8.1,1.329-16,9.1-10.771,14.944-15.08,13.633-11.4-6.394-17.952-5.687-6.774-8.315-9.758-8.315c-3.008,0-4.607,2.443-8.2,2.533s-7.9,1.426-11.49-5.389-10.772,0-19.391,5.389-22.259,7.482-28,19.327-7.9,21.465-14.362,23.947-6.463,28.558-9.692,34.073c-1.718,2.94-4.773-.984-8.5-4.906-3.256-3.429-7.024-6.86-10.857-5.7-8.218,2.471-6.141-11.561-12.606-23.462s-13.644,9.629-19.373,9.629-15.1-3.027-17.25-4.719-9.334-7.393-14-8.159-21.908-16.647-24.062-24.089-4.354-4.671-4.354-4.671-18.626-6.812-21.856-3.6-63.913,14.194-63.913,14.194-13.106,4.354-19.062.756a17.636,17.636,0,0,0-3.263-1.5V324.446l490.774,3.807V153.118c-1.109-.3-2.181-.608-3.191-.927-7.181-2.271-20.388.378-27.567,1.892l-16.114,7.192c-5.026.955-15.059,1.475-20.562-7.57-3.5-5.751-8.989-8.932-14.186-8.932a11.819,11.819,0,0,0-8.218,3.252" transform="translate(-1554.471 -144.774)"/>
    </clipPath>
    <linearGradient id="linear-gradient-5" x1="-3.398" y1="1.866" x2="-3.395" y2="1.866" gradientUnits="objectBoundingBox">
      <stop offset="0" stop-color="#4d7558"/>
      <stop offset="0.242" stop-color="#6c8773"/>
      <stop offset="0.51" stop-color="#4d7558"/>
      <stop offset="0.819" stop-color="#4d7558"/>
      <stop offset="0.976" stop-color="#4d7558"/>
      <stop offset="1" stop-color="#4d7558"/>
    </linearGradient>
    <clipPath id="clip-path-17">
      <path id="Path_9" data-name="Path 9" d="M1979.061,178.1c-8.354,5.531-30.882,3.4-48.505,1.261-11.709-1.417-21.255-2.835-23.042-2.006-4.485,2.08-38.78,15.126-56.014,21.341s-39.5,12.27-58.168,21.948-31.6,43.865-44.108,39.305-6.161-27.31-16.216-33.5-10.054-15.483-12.909-13.571-31.251,5.3-31.251,5.3-20.827,5.217-28.417.285-11.443-10.683-18.625-17.065-35.906,5.743-42.368,9.568-26.573,12.11-35.907,17.7c-5.853,3.5-7.754,3.922-9.067,2.929V361.407l19.119-.014,471.655.284V171.55c-3.269-1.876-6.421-5.368-11.334-7.749a13.743,13.743,0,0,0-5.676-.907c-12.483,0-37.519,7.506-49.168,15.209" transform="translate(-1554.464 -162.894)"/>
    </clipPath>
    <linearGradient id="linear-gradient-6" x1="-3.398" y1="1.625" x2="-3.395" y2="1.625" gradientUnits="objectBoundingBox">
      <stop offset="0" stop-color="#e5eef1"/>
      <stop offset="0.001" stop-color="#e6f1e8"/>
      <stop offset="0.316" stop-color="#60926d"/>
      <stop offset="0.479" stop-color="#3c6a48"/>
      <stop offset="1" stop-color="#305f3c"/>
    </linearGradient>
    <clipPath id="clip-path-22">
      <path id="Path_11" data-name="Path 11" d="M1031.019,169.395a11.866,11.866,0,0,1,3.451-.1c1.477.159,1.53.316-.357-1.9q-4.853-.993-10.6-5.793c3.477,5,2.6,8.661,7.511,7.792" transform="translate(-1023.508 -161.603)"/>
    </clipPath>
    <linearGradient id="linear-gradient-7" x1="-87.892" y1="37.445" x2="-87.806" y2="37.445" gradientUnits="objectBoundingBox">
      <stop offset="0" stop-color="#daebf0"/>
      <stop offset="0.15" stop-color="#bdd9eb"/>
      <stop offset="0.365" stop-color="#97c5e4"/>
      <stop offset="0.479" stop-color="#89bee1"/>
      <stop offset="1" stop-color="#1c8bb5"/>
    </linearGradient>
    <clipPath id="clip-path-37">
      <path id="Path_22" data-name="Path 22" d="M1777.722,322.16s-6.587-14.589-4.9-12.317,4.06-.757,4.9,5.405,8.494,5.95,11.366,9.169,0,14.7,0,14.7a165.887,165.887,0,0,1-11.366-16.953m-.129-28.949c-1.437-5.324-6.37-8.871-4.262-15.424s7.135,3.425,7.135,3.425c2.153,8.947,2.153,20.118,2.153,24,0,.58-.08.837-.222.838-.8,0-3.581-8.308-4.8-12.834m-16.519-74.884c-5.027-10.688-8.97-2.856-12.207-15.741a56.2,56.2,0,0,0-9.128-19.54c8.649,10.925,12.4,11.052,23.49,22.168,11.49,11.51,9.335,22.515,10.053,24.586.143.41-.054.625-.5.626-1.8,0-7.675-3.532-11.708-12.1m-22.258-36.456s.359.416.928,1.176c-.306-.39-.606-.758-.928-1.176m-22.268,44.7c-6.463-13.627-15.065-18.8-13.275-28.706s1.068-11.247-6.833-21.552-13.643-17.571-14.36-27.189,3.591,0,3.591,0c7.9,18.4,15.078,23.637,20.825,32.75s5.027,11.6,10.053,28.145c3.587,11.8,5.345,22.123,3.714,22.124-.646,0-1.858-1.666-3.714-5.572M1652.36,105.147c.378,1,.795,2.12,1.234,3.321.881,2.415,2.627,2.367,3.965,2.32,1.387-.049,2.334-.1,1.42,2.6-1.6,4.734-2.632,5.843-3.858,14.658-.071.508.411.3.913.083.541-.23,1.1-.458,1.024.211-.135,1.145-2.569,5.488-2.561,6.529,0,.381.452.2.9.027.423-.168.839-.337.86-.027.145,2.011-1.249,5.454-1.249,5.454l7.693-18.7s-4.017,19.827-3.132,19.4c.622-.3,2.15-3.788,2.595-4.261.583-.614.678,2.69.9,5.775a21.384,21.384,0,0,0,1.651-3.266,19.39,19.39,0,0,1,1.661-3.265c.059,1.045-3.119,10.113-3.078,11.253.033.911.064,1.837.092,2.751.01.3.44-.2.87-.707s.853-1,.864-.711c.062,2.1-1.554,7.259-1.466,8.707.014.238.031.461.05.678.1,1.179.76,1.033,1.4.887.442-.1.871-.2,1.093.138.434.664-.433,4.084.239,4.575.608.439.75,6.559,1.552,7.254.078.069.462-2.568.845-5.2s.771-5.284.856-5.206c.325.3.375,9.31.626,9.463.81.49,1.226-.147,1.516-.785.519-1.135.638-2.271,1.88,2.961a29.146,29.146,0,0,0,1.238,4.207,6.787,6.787,0,0,0,.61,1.167,3.566,3.566,0,0,0,.608.7c1.533,1.337,3.941.814,9.392,2.679,8.975,3.073,6.822-1.557,4.667,7.361s.719,9.251,1.077,18.715c.178,4.731,2.333,4.163,3.993,3.594s2.829-1.136,1.035,3.6c-3.59,9.463-1.438,18.169-2.873,34.09s1.075,6.034,6.462,0,3.231,4.9,17.237,14.393c6.217,4.214,7.9,5.949,8.282,7.569,3.11-3.087,7.637-4.722,11.645-3.08,21.263,8.706,30.562,31.8,35.92,53.672,3.1,12.666,4.868,25.629,7,38.5q.689.66,1.417,1.343c9.7,9.085,8.26,4.164,6.109-1.515s1.076-4.919,9.335-7.191,10.413,4.163,21.543,13.247,15.079,14.384,11.85,5.3-2.156-10.979-14.722-24.6-9.7-10.6-17.237-30.282-6.1-14.763.361-22.712,5.744,4.541,11.846,17.414,10.417,10.977,23.7,24.224,7.9,9.843,6.823.757.358-4.92,6.463-4.162c3.239.4,4.456,1.443,5.583,3.8a13.245,13.245,0,0,1,3.124-5.893,11.834,11.834,0,0,1,4.579-3.04c-.536-1.137-1.095-2.264-1.686-3.372a80.847,80.847,0,0,0-4.572-7.662c-.187-.269-.99-1.338-1.165-1.578-.138-.173-.271-.351-.411-.523-.826-1.009-1.661-2.01-2.546-2.962-1.88-2.023-3.845-4.01-5.869-5.875-.518-.477-3.116-2.607-2.268-1.972-.521-.4-1.046-.795-1.578-1.178-8.013-5.737-16.706-10.119-24.38-16.412-8.676-7.117-14.416-17.373-16.814-28.655-1.47-6.913,1.9-14.06,8.6-16.006a12.319,12.319,0,0,1,15.14,9.089c.333,1.564.691,3.129,1.178,4.65.169.527.341,1.052.523,1.574.028.065.052.119.087.2a35.321,35.321,0,0,0,1.871,3.548c.255.414,1,1.431,1.254,1.789a35.811,35.811,0,0,0,3.4,3.54c.256.23.51.46.769.686l.045.035c.768.58,1.539,1.152,2.33,1.7,8.269,5.695,17.012,10.248,24.757,16.805a88.168,88.168,0,0,1,20.136,25.018,11.756,11.756,0,0,1,4.218-2.26c6.557-1.908,13.243,2.29,15.141,9.088.221.793.451,1.584.723,2.359,0,.005,0,.006.005.013.2.432.4.865.613,1.287.537,1.042,1.1,2.07,1.733,3.053.166.254.338.5.505.757.714.878,1.447,1.741,2.226,2.553.955.994,1.935,1.959,2.968,2.861.1.083.213.181.335.285.141.109.281.222.424.329a71.3,71.3,0,0,0,6.143,4.118q3.59,2.133,7.324,3.965c1.182.579,2.368,1.149,3.566,1.7.083.039.187.086.3.135.341.15.687.3,1.031.451,5.227,2.239,10.523,4.295,15.807,6.378,3.5,1.381,7.034,2.76,10.55,4.211-1.57-1.834-2.6-3.337-2.535-4.163.417-5.644.339-5.528.615-7.987.38-3.381,3.311-1.352,6.12.679,2.754,1.993,5.388,3.985,5.37.859-.046-7.767-11.023-20.3-11.489-21.22-10.577-21-6.605-15.842-15.171-19.266-13.186,9.743-15.827,2.034-26.949-.57,0,0-17.638-18.6-18.9-26.563s-15.116-15.94-22.677-19.924-21.416-1.328-27.718-5.313-20.153-19.921-25.195-23.267S1793.528,214,1789.75,214s-21.722-11.676-24.242-14.334,2.52-13.282,0-19.448-17.637-9.77-26.458-16.412-7.559-17.268-16.38-23.907a75.225,75.225,0,0,0-14.289-8.441,16.475,16.475,0,0,1-3.747-1.548,50.658,50.658,0,0,0-12.2-3.068c-9.372-1.023-31.81-24.441-42-26.656.231.553.95,2.378,1.926,4.956" transform="translate(-1650.435 -100.191)"/>
    </clipPath>
    <linearGradient id="linear-gradient-8" x1="-5.306" y1="1.332" x2="-5.303" y2="1.332" gradientUnits="objectBoundingBox">
      <stop offset="0" stop-color="#daebf0"/>
      <stop offset="0.102" stop-color="#c4dcea"/>
      <stop offset="0.352" stop-color="#95c1de"/>
      <stop offset="0.479" stop-color="#84b7da"/>
      <stop offset="1" stop-color="#305f3c"/>
    </linearGradient>
    <clipPath id="clip-path-41">
      <path id="Path_25" data-name="Path 25" d="M1883.567,148.754c2.365,4.127,3.006-.19,7.506,5.862,1.934,2.6,3.418,2.6,4.461,2.6,1.383,0,1.988-.005,1.831,6.068-.281,10.65,1.911,3.676,2.728,14.391s5.932,18.878.172,13.469-7.711-1.821-9.256-10.22.059-10.513-3.341-12.572-7.48-5.966-4.293,1.744,2.109,9.381,4.661,12.974,8.652,5.966.463,4.6-12.319.483-10,4.793-.514,4.564,2.2,11.115,4.414,5.63,3.3,11.186-2.629,10.427.465,11.429,4.317,2.106,5.868-2.946-.522-.919.721-8.587,1.854-7.9.1-12.257-.273-5.141,4.091-.88,1.546,4.109,3.6,8.545,1.519,1.96,5.319,6.269,2.277,5.272,1.283,7.938.05,2.938-3.995,4.415-7.747,1.481-2.944,6.25,4.325,6,7.769,7.882,1.168-2.622,4.13-2.624-1.632,2.223,2.633,4.547,7.894,8.132,6.305-.075-2.806-6.963-1.3-14.953,3.511-7.077,4.9-9.053,5.605-2.61-1.282-6.37-9.974-1.644-13.424-5.86-4.277-3.851-4.032-10.416-.452-6.747,2.824-1.795,5.42,7.657,9.257,10.221,5.579,2.238,7.453,2.145,1.828.088-.89-6.474-5.038-10.058,1.857-4.763,9.031,5.665,12.036,6.256.7,2.523,4.671,4.536a5.2,5.2,0,0,0,3.347.527,3.394,3.394,0,0,1,2.229.251c-1.2-1.812-2.417-3.782-3.643-5.935-6.89-12.117-8.82-23.283-16.684-29.7s-9.289-13.054-20-17.8-6.769-5.343-13.76-9.378c-4.575-2.641-5.924-8.124-7.762-11.5-1.6-.838-2.559-1.323-2.559-1.323.158,8.814-1.365,11.341.995,15.47" transform="translate(-1877.856 -133.284)"/>
    </clipPath>
    <linearGradient id="linear-gradient-9" x1="-17.675" y1="2.542" x2="-17.666" y2="2.542" gradientUnits="objectBoundingBox">
      <stop offset="0" stop-color="#daebf0"/>
      <stop offset="0.15" stop-color="#bdd9eb"/>
      <stop offset="0.365" stop-color="#97c5e4"/>
      <stop offset="0.479" stop-color="#89bee1"/>
      <stop offset="1" stop-color="#305f3c"/>
    </linearGradient>
    <clipPath id="clip-path-43">
      <path id="Path_27" data-name="Path 27" d="M1952.242,218.094c4.391.062,5.648,2.494,3.38-1.381q-4.609-1.889-9.461-7.7c2.595,5.571,1.115,9.014,6.081,9.077" transform="translate(-1946.161 -209.017)" fill="url(#linear-gradient)"/>
    </clipPath>
    <linearGradient id="linear-gradient-10" x1="-132.174" y1="17.569" x2="-132.106" y2="17.569" gradientUnits="objectBoundingBox">
      <stop offset="0" stop-color="#daebf0"/>
      <stop offset="0.15" stop-color="#305f3c"/>
      <stop offset="0.365" stop-color="#60926d"/>
      <stop offset="0.479" stop-color="#60926d"/>
      <stop offset="1" stop-color="#305f3c"/>
    </linearGradient>
    <clipPath id="clip-path-52">
      <path id="Path_34" data-name="Path 34" d="M487.954,175.784c2.333,10.787-1.8,5.865,2.514,14.95s6.642,7.428,10.229,15.923,1.619,9.818,5.926,11.9,5.923,3.975,3.946,6.057c-.907.958-1.588.073-2.232-.811-.757-1.039-1.466-2.077-2.434-.136-1.793,3.6-.54,4.355.359,7.761s1.08,8.327,3.414,10.22c.988.8,2.106.382,3.01-.039,1.23-.572,2.07-1.145,1.658,1.363-.72,4.352-4.668,5.489-.9,8.518s3.948,3.973,5.568,0,3.048-5.869,5.383-2.462,4.309,7,5.748,3.786,1.792-3.975,0-7.949-3.233-2.651-3.6-7.76-1.972-9.275,1.621-5.679,3.948,5.488,5.743,8.707,3.773,1.135,3.773,4.92-1.8,7.191,0,7.761,1.254.946,4.129,4.541,6.282.567,8.077,4.165,2.87,2.649,7.539,4.164c4.537,1.472,4.505,3.476,7.3,4.805,6.554-8.99,13.451-18.1,21.889-25.427,1.96-1.7,3.954-3.422,5.989-5.117-6.073-3.618-16.254-7.009-25.225-8.727-13.856-2.656-22.674-14.611-35.274-24.373s-3.78-14.144-13.858-16.8-12.6-14.612-23.939-21.94a27.507,27.507,0,0,1-5.745-4.724c-.844,2.669-2.387,4.2-.613,12.4" transform="translate(-487.137 -163.38)"/>
    </clipPath>
    <linearGradient id="linear-gradient-11" x1="-4.899" y1="3.01" x2="-4.889" y2="3.01" gradientUnits="objectBoundingBox">
      <stop offset="0" stop-color="#305f3c" stop-opacity="0.82"/>
      <stop offset="0.095" stop-color="#305f3c" stop-opacity="0.788"/>
      <stop offset="0.348" stop-color="#305f3c"/>
      <stop offset="0.479" stop-color="#305f3c"/>
      <stop offset="1" stop-color="#305f3c"/>
    </linearGradient>
    <clipPath id="clip-path-54">
      <path id="Path_36" data-name="Path 36" d="M221.473,322.066s-6.587-14.589-4.9-12.318,4.061-.757,4.9,5.405,8.5,5.95,11.366,9.169,0,14.7,0,14.7a166.408,166.408,0,0,1-11.366-16.953M203.4,331.7c3.59-7.379-3.546-15.9-3.568-21.2s3.568-5.391,3.568-5.391c2.872,5.391,0,16.37,3.59,19.209s0,14.241,0,14.6c0,.058-.191.1-.5.1-1.561,0-6.1-1.141-3.095-7.319m99.817-31.43c-5.743-7.179-5.029-11.442-7.9-19.152s3.59,0,3.59,0c4.307,5.161,4.307,13.461,8.617,19.152,2.279,3.008,2.55,4.842,1.45,4.842-.98,0-3.051-1.458-5.76-4.842m-81.864-7.156c-1.437-5.323-6.37-8.868-4.263-15.423s7.135,3.426,7.135,3.426c2.153,8.944,2.153,20.119,2.153,23.994,0,.58-.08.837-.222.838-.8,0-3.583-8.308-4.8-12.835m-16.518-74.883c-5.027-10.687-8.97-2.854-12.209-15.741a56.126,56.126,0,0,0-9.126-19.54c8.649,10.926,12.4,11.053,23.49,22.17,11.489,11.509,9.335,22.513,10.054,24.583.143.41-.055.626-.5.626-1.8,0-7.679-3.532-11.708-12.1m-22.262-36.456s.357.418.927,1.176c-.307-.389-.6-.757-.927-1.176m-22.262,44.7c-6.463-13.628-15.064-18.8-13.275-28.705s1.068-11.248-6.834-21.554-13.642-17.572-14.36-27.188,3.592,0,3.592,0c7.9,18.4,15.078,23.638,20.824,32.75s5.028,11.6,10.053,28.147c3.586,11.8,5.344,22.121,3.712,22.124-.655,0-1.859-1.666-3.712-5.574M96.12,105.052c.378,1,.795,2.116,1.232,3.32.882,2.416,2.629,2.368,3.967,2.32,1.386-.049,2.333-.1,1.419,2.6-1.6,4.737-2.632,5.845-3.857,14.66-.072.506.41.294.912.082.541-.228,1.1-.457,1.024.211-.135,1.146-2.569,5.49-2.562,6.529,0,.382.452.2.9.027.422-.168.839-.337.859-.027.145,2.013-1.248,5.453-1.248,5.453l7.694-18.7s-4.019,19.827-3.133,19.4c.622-.3,2.151-3.79,2.595-4.261.582-.615.679,2.688.9,5.771a21.118,21.118,0,0,0,1.652-3.265,19.281,19.281,0,0,1,1.66-3.262c.057,1.043-3.121,10.11-3.079,11.251.033.912.065,1.837.092,2.75.01.306.441-.2.871-.7s.853-1,.862-.711c.062,2.1-1.553,7.259-1.465,8.706.013.237.029.461.047.677.1,1.181.762,1.035,1.4.889.442-.1.871-.2,1.093.137.432.666-.435,4.084.239,4.575.607.44.748,6.561,1.552,7.253.078.071.461-2.567.844-5.2s.771-5.284.855-5.2c.325.3.375,9.312.628,9.463.81.489,1.226-.148,1.516-.785.519-1.135.638-2.27,1.879,2.962a28.868,28.868,0,0,0,1.239,4.2,6.618,6.618,0,0,0,.61,1.167,3.544,3.544,0,0,0,.609.7c1.532,1.338,3.939.813,9.391,2.679,8.975,3.074,6.822-1.559,4.667,7.361s.719,9.251,1.076,18.711c.179,4.733,2.335,4.165,4,3.6s2.829-1.136,1.033,3.6c-3.589,9.463-1.437,18.169-2.87,34.091s1.074,6.033,6.462,0,3.23,4.9,17.235,14.39,5.026,6.4,9.9,17.76,1.588,7.949,9.845,10.4,2.515,3.606,4.31,11.931,5.026,8.707,3.951,20.062,3.589,6.816,0,9.084-2.155,6.436.719,7.218,3.589,2.246,7.9,18.9,11.846,12.87,11.488,6.816-.717-10.222.718-14.765,5.745,1.514,15.439,10.6,8.259,4.165,6.108-1.515,1.075-4.92,9.335-7.192,10.411,4.164,21.543,13.249,15.079,14.381,11.849,5.3-2.155-10.976-14.722-24.6-9.7-10.6-17.237-30.281-6.1-14.763.361-22.71,5.744,4.539,11.846,17.409,10.416,10.979,23.7,24.228,7.9,9.841,6.823.755.357-4.918,6.462-4.162,5.026,3.784,9.694,13.627,10.054,3.027,20.825,7.948,6.107,5.676,10.415-1.892,6.1-3.029,7.9,3.407,10.411,6.435,17.594,13.626c4.169,4.177,8.46,3.76,14,3.34a42.361,42.361,0,0,1,14.366.824c2.6.65,4.566-1.391,6.037-5.015.159-.392,3.172-.165,6.759.063,5.418.342,12.147.687,12.342-1.106.3-2.8-17.021-17.078-16.775-20.4.417-5.645.339-5.531.615-7.988.379-3.381,3.311-1.35,6.118.68,2.755,1.992,5.389,3.985,5.371.859-.047-7.769-11.022-20.3-11.489-21.223-10.577-20.994-6.605-15.841-15.171-19.265-13.186,9.744-15.827,2.036-26.951-.571,0,0-17.637-18.6-18.9-26.562s-15.116-15.94-22.677-19.924-21.416-1.329-27.717-5.313-20.154-19.92-25.2-23.266-20.763-9.858-24.541-9.858-22.073-10.707-24.593-13.363,2.52-13.282,0-19.446-17.638-9.772-26.458-16.414-7.558-17.268-16.378-23.906a75.356,75.356,0,0,0-14.29-8.443,16.49,16.49,0,0,1-3.748-1.546,50.531,50.531,0,0,0-12.2-3.066c-9.373-1.025-31.811-24.444-42-26.657.221.551.95,2.378,1.925,4.954" transform="translate(-94.195 -100.098)" fill="none"/>
    </clipPath>
    <linearGradient id="linear-gradient-12" x1="-0.271" y1="1.332" x2="-0.268" y2="1.332" gradientUnits="objectBoundingBox">
      <stop offset="0" stop-color="#305f3c"/>
      <stop offset="0.102" stop-color="#305f3c" stop-opacity="0.69"/>
      <stop offset="0.352" stop-color="#305f3c" stop-opacity="0.702"/>
      <stop offset="0.479" stop-color="#305f3c" stop-opacity="0.651"/>
      <stop offset="1" stop-color="#305f3c" stop-opacity="0.902"/>
    </linearGradient>
    <clipPath id="clip-path-58">
      <path id="Path_39" data-name="Path 39" d="M327.326,148.66c2.364,4.124,3-.19,7.5,5.861,1.933,2.6,3.418,2.6,4.46,2.6,1.384,0,1.989,0,1.831,6.071-.281,10.649,1.913,3.674,2.729,14.39s5.932,18.877.172,13.467-7.712-1.82-9.256-10.22.06-10.511-3.342-12.574-7.48-5.962-4.293,1.749,2.11,9.38,4.662,12.972,8.652,5.967.463,4.6-12.321.482-10,4.794-.515,4.564,2.205,11.113,4.412,5.63,3.294,11.188-2.629,10.427.464,11.429,4.317,2.106,5.869-2.947-.522-.918.721-8.588,1.854-7.9.1-12.255-.274-5.143,4.092-.88,1.547,4.107,3.6,8.545,1.52,1.96,5.321,6.269,2.276,5.273,1.282,7.937.05,2.939-3.993,4.415-7.749,1.481-2.946,6.251,4.324,6,7.768,7.879,1.169-2.617,4.131-2.623-1.632,2.225,2.632,4.55,7.895,8.131,6.305-.076-2.8-6.966-1.3-14.954,3.509-7.075,4.9-9.052,5.606-2.609-1.282-6.369-9.975-1.644-13.423-5.863-4.277-3.849-4.033-10.414-.451-6.746,2.826-1.795,5.418,7.657,9.256,10.221,5.579,2.239,7.454,2.145,1.825.088-.891-6.473-5.038-10.057,1.856-4.762,9.031,5.663,12.037,6.255.7,2.524,4.671,4.535a5.2,5.2,0,0,0,3.347.529,3.391,3.391,0,0,1,2.228.251q-1.805-2.716-3.642-5.936c-6.891-12.116-8.82-23.282-16.684-29.705s-9.29-13.053-20-17.8-6.768-5.343-13.759-9.377c-4.577-2.641-5.926-8.124-7.764-11.5-1.6-.836-2.558-1.322-2.558-1.322.153,8.815-1.365,11.34,1,15.47" transform="translate(-321.614 -133.19)"/>
    </clipPath>
    <linearGradient id="linear-gradient-13" x1="-2.861" y1="2.543" x2="-2.851" y2="2.543" xlink:href="#linear-gradient-9"/>
    <clipPath id="clip-path-60">
      <path id="Path_41" data-name="Path 41" d="M396,218c4.39.061,5.648,2.494,3.38-1.382q-4.611-1.892-9.461-7.7c2.587,5.571,1.108,9.014,6.081,9.079" transform="translate(-389.92 -208.922)"/>
    </clipPath>
    <linearGradient id="linear-gradient-14" x1="-26.375" y1="17.573" x2="-26.307" y2="17.573" xlink:href="#linear-gradient-7"/>
    <clipPath id="clip-path-62">
      <path id="Path_42" data-name="Path 42" d="M592.188,231.837c.816.609,2.518.683,3.406,1.623.72,1.01.72,2.018,1.2,3.028a29.463,29.463,0,0,0,3.59,7.318c4.31,5.3,9.816,1.514,8.858-5.3-.719-4.542-10.054-7.822-9.1-11.607l1.254-1.817c-2.527,1.713-5.638,4.04-9.208,6.756" transform="translate(-592.188 -225.081)"/>
    </clipPath>
    <linearGradient id="linear-gradient-15" x1="-35.272" y1="10.666" x2="-35.213" y2="10.666" gradientUnits="objectBoundingBox">
      <stop offset="0" stop-color="#e0ecf1"/>
      <stop offset="0.079" stop-color="#4d7558"/>
      <stop offset="0.342" stop-color="#a9d0e8"/>
      <stop offset="0.479" stop-color="#99c8e6"/>
      <stop offset="1" stop-color="#4d7558"/>
    </linearGradient>
    <clipPath id="clip-path-63">
      <path id="Path_43" data-name="Path 43" d="M695.831,270.562c-.18-3.788.179-5.68-2.154-8.708-.9-1.427-8.506-4.018-7.362-5.867a17.4,17.4,0,0,0-2.692-6.624l-.329-3.3c.706,1.061,4.49,4.675,4.3,4.974,1.822,5.533,9.893,9.56,13.26,13.275,2.335,2.46,2.154,7.759-2.156,9.273a5.41,5.41,0,0,1-1.8.46c-1.316,0-.932-1.468-1.068-3.486m10.952-52.807c3.231,3.218,6.642,5.489,9.873,8.14,2.695,2.27,2.874,5.865,5.745,7.947,2.874,2.273,7.541,3.029,8.079,7.76.359,3.029-1.975,4.921-4.308,6.056-9.156,3.6-9.7-8.137-12.927-14.193a33.176,33.176,0,0,0-2.334-4.355c-1.256-1.325-3.052-1.512-4.129-3.027-1.617-2.46-1.078-7.949,2.333-4.92Zm-43.268-36.528c1.257,6.057,6.822,12.871,11.491,16.846,2.692,2.271,4.847,2.461,7.9,3.6,4.131,1.515,3.949,3.027,4.489,6.815.718,4.542,2.693,7.759,2.333,12.68-.359,3.408-.359,5.678,2.513,7.947,1.077.948,3.052,1.326,3.77,2.272,1.076,1.7.36,3.786.539,5.679.537,3.217,3.052,4.353,4.129,7.382,1.436,3.216-1.794,5.678.9,8.137,2.693,2.649,10.233,2.083,7.721,8.9-2.513-1.7-6.463-3.975-8.619-6.246-1.975-2.081-1.794-4.731-3.232-7-1.614-2.46-4.488-3.218-6.642-5.109-3.951-3.784-5.025-10.03-8.436-14.007-2.513-3.215-2.335-5.109-2.156-9.274.181-4.918-3.232-4.541-5.744-7.948-2.155-2.837-4.846-14.383-10.054-12.3.178,1.9,3.412,9.465-1.435,7.761-2.155-.757-2.874-4.163-2.874-6.057,0-.945.719-2.27.538-3.406-.358-1.7-.9-1.135-1.614-2.462-1.436-2.271-.72-3.594-1.258-6.244-.718-2.081-3.052-6.057-4.847-3.408-.359.569-.539,5.3-.539,6.057.179,2.649,3.231,3.975,3.231,6.246,0,2.744-2.641,2.6-4.915,2.463a10.8,10.8,0,0,0-2.264,0,8.263,8.263,0,0,0,.9,4.542c.9,1.136,1.795.946,2.692,1.891,1.257,1.517,1.257,3.028,1.975,4.921s2.871,6.625,5.744,4.164c1.257-1.134,0-3.593,1.257-4.919,1.616-1.894,6.1,0,7.721.947,1.256.945,1.974,2.838,2.692,4.351,1.256,2.271,2.692,4.165,2.512,6.625-.179,2.271-1.615,5.11-3.769,5.678-.9-2.649-3.591-5.678-5.567-7.381-1.613,4.544-2.692,7.949-.178,12.3a7.553,7.553,0,0,0,2.873,3.028c1.257.945,2.154.756,3.232,2.27,1.436,2.651.717,5.491-1.975,6.625a11.632,11.632,0,0,1,.537,4.353c0,1.7-1.435,4.354-1.255,5.867.357,2.652,1.614,1.327,3.23,3.219.539.757.9,3.027,1.079,4.164.537,3.407,0,4.354-2.873,5.489-2.514,1.136-2.875.945-2.514,3.784.719,5.488,3.232,4.733,6.464,7.571,1.615,1.324,1.076.566,1.434,2.649.362,1.89-.537,5.678.9,7,.538.757,3.59,1.326,4.488.567.9-.945.179-1.7.179-3.03a31.134,31.134,0,0,0-.718-8.135c-.537-2.838-2.154-5.867-.359-8.707.72-1.135,1.8-.566,2.154-2.081.9-3.408-3.41-8.708-3.41-12.3,2.333,1.137,4.846,1.513,6.643,3.6,2.692,3.217.538,7,1.616,10.6.9,3.6,2.87,4.543,4.845,7.192,1.616,2.273.72,5.11.72,8.138,0,4.354.537,14.006,6.463,10.031,2.155-1.326,1.975-3.217,5.206-2.461,2.874.567,5.387,3.407,6.285-1.325.717-3.028-5.566-12.3-.9-13.438,3.051-.755,1.614,3.028,2.693,4.354.718.944,6.1,1.325,6.82,0,.18-.19-1.435-7.571-1.615-8.518-.358-2.269-2.512-5.3-1.435-7.76,1.615-4.353,3.41.947,5.206,2.273a8.508,8.508,0,0,0,7.9,1.325c3.051-.947,5.386-1.515,8.617-.757,3.77.945,8.439,5.488,12.388,3.028,6.1-3.785-4.668-8.517-.359-12.3,1.968-1.746,2.8-.66,3.739.428.688.8,1.432,1.6,2.724,1.275,1.257-.377,1.437-2.838,2.334-3.974a19.881,19.881,0,0,1,3.054-2.461c1.795-.946,4.128-1.134,5.744-2.46,3.41-2.462.178-4.544-2.514-5.679-2.595-1.279-4.918-3.4-7.713-4.3a28.083,28.083,0,0,1-4.157,3.888c-2.548,2.145-7.493,5.173-16.312-10.763-5.7-10.3-15.081-20.038-22.707-27.077-1.231-1.684-3.349-3.058-5.176-4.637-2.408-2.094-4.054-4.366-7.843-5.893-6.437-2.633-15.386-.528-19.709-6.222-4.586-6.04-13.335-23.068-18.675-23.1-.556,3.986,1.068,9.047,1.755,12.233" transform="translate(-648.389 -168.994)"/>
    </clipPath>
    <linearGradient id="linear-gradient-16" x1="-5.713" y1="2.424" x2="-5.704" y2="2.424" gradientUnits="objectBoundingBox">
      <stop offset="0" stop-color="#305f3c"/>
      <stop offset="0.079" stop-color="#305f3c"/>
      <stop offset="0.342" stop-color="#305f3c"/>
      <stop offset="0.479" stop-color="#305f3c"/>
      <stop offset="1" stop-color="#305f3c"/>
    </linearGradient>
    <clipPath id="clip-path-64">
      <path id="Path_44" data-name="Path 44" d="M612.2,211.134c1.532,2.217,3.3,3.959,2.681,7.371-.539,2.838-3.771,5.3-4.31,7.948-1.077,4.731,3.053,2.651,4.847.189.718,1.514-.181,5.3,2.514,5.111,3.231-.191.358-4.354,2.334-5.868,2.872-1.891,3.05,2.083,3.768,3.219,1.258,2.27,3.054,2.459,4.31-.758,1.8-3.975-3.951-10.22-7-12.3-3.287-2.31-6.161-4.479-7.083-8.505a39.658,39.658,0,0,0-2.061,3.6" transform="translate(-610.398 -207.538)" fill="#4d7558"/>
    </clipPath>
    <linearGradient id="linear-gradient-17" x1="-31.669" y1="11.271" x2="-31.617" y2="11.271" gradientUnits="objectBoundingBox">
      <stop offset="0" stop-color="#a9c7b1"/>
      <stop offset="0.079" stop-color="#709e7d"/>
      <stop offset="0.342" stop-color="#5a8766"/>
      <stop offset="0.479" stop-color="#4f7b5b"/>
      <stop offset="1" stop-color="#3c6a48"/>
    </linearGradient>
    <clipPath id="clip-path-66">
      <path id="Path_45" data-name="Path 45" d="M825.389,191.231l-1.611.482c.4.992.869,2.007,1.356,3.039,1.437,3.216,1.617,7.38,3.77,10.408,1.974,2.648,10.412,7.381,7,11.734-3.589-2.269-3.948-3.783-5.385.947a36.4,36.4,0,0,0-2.155,7.192c-.718,5.11.179,5.11,2.871,8.517,2.335,3.028,2.874,7.761,4.668,11.355,1.257,2.46,1.975,5.11,5.028,4.354,1.436-.38,1.794-.38,1.975-2.082.358-2.461-2.692-5.489-3.412-7.949-.718-2.838.18-5.3-.179-8.139-.179-3.027-1.615-6.246,0-9.083,1.078,2.461,3.053,2.461,5.206,3.784,2.695,1.515,4.13,3.6,5.566,6.246,1.8,3.594,4.13,4.73,7.362,7,4.129,3.029,4.847,6.247,7.72,10.033,3.59,4.543,9.514,4.732,14.722,5.3,1.974.191,4.307.191,6.1,1.135,3.591,1.893,3.053,7.572,4.31,11.357a9.192,9.192,0,0,0,1.077-3.6,28.3,28.3,0,0,0,0-8.706c-.719-4.733-3.41-5.49-6.643-8.139-6.822-5.867-10.592-14.194-16.695-20.63-2.874-3.027-5.746-5.49-7.9-8.9-2.512-3.974-5.387-8.706-9.334-11.165-3.234-2.272-7.182-3.219-10.234-6.056-3.137-2.993-5.146-7.423-6.562-11.665a71.65,71.65,0,0,1-8.622,3.224" transform="translate(-823.778 -188.007)"/>
    </clipPath>
    <linearGradient id="linear-gradient-18" x1="-12.968" y1="3.754" x2="-12.952" y2="3.754" gradientUnits="objectBoundingBox">
      <stop offset="0" stop-color="#6c8773"/>
      <stop offset="0.079" stop-color="#6c8773"/>
      <stop offset="0.342" stop-color="#4d7558"/>
      <stop offset="0.479" stop-color="#4d7558"/>
      <stop offset="1" stop-color="#4d7558"/>
    </linearGradient>
    <clipPath id="clip-path-68">
      <path id="Path_46" data-name="Path 46" d="M874.25,157.433c.517,3.01,1.164,5.992,1.708,8.867a35.1,35.1,0,0,0,2.874,9.65c1.8,3.788,5.745,6.248,7.181,10.034,1.795,4.542-5.028,14,2.513,15.519,1.673.279,3.087-.626,4.433-1.533,1.4-.941,2.719-1.88,4.183-1.5,2.875.757,2.875,5.11,6.644,3.029-1.437-3.217.718-5.3.537-8.516-.179-2.083-2.513-5.111.18-6.436,2.154-1.136,3.771,1.894,5.744,2.081,4.668.19,1.8-3.406-.358-4.542-2.513-1.7-4.668-3.6-7-5.3-6.284-4.543-11.13-10.219-17.055-15.142-2.156-1.7-5.566-3.027-7.181-5.111-1.268-1.516-1.858-3.872-2.2-6.356-.752,1.871-1.4,3.6-2.2,5.251" transform="translate(-874.25 -152.182)" fill="#3c6a48"/>
    </clipPath>
    <linearGradient id="linear-gradient-19" x1="-23.06" y1="6.506" x2="-23.034" y2="6.506" gradientUnits="objectBoundingBox">
      <stop offset="0" stop-color="#6c8773"/>
      <stop offset="0.079" stop-color="#4d7558"/>
      <stop offset="0.342" stop-color="#3c6a48"/>
      <stop offset="0.479" stop-color="#3c6a48"/>
      <stop offset="1" stop-color="#3c6a48"/>
    </linearGradient>
    <clipPath id="clip-path-70">
      <path id="Path_47" data-name="Path 47" d="M907.708,126.48c-.16.083-.327.161-.492.242-.334.164-.681.321-1.037.469-.16.068-.32.138-.484.2-.519.2-1.052.4-1.618.574-6.715,2.086-8.4,1.188-12.5,4.676.2,4.819,4.839,3.538,7.724,1.57,2.513-1.892,3.411-2.462,4.667.946.9,2.649.9,4.73-1.437,5.49a7.215,7.215,0,0,1-3.111.035c-1.607-.2-3.266-.394-4.428.72-1.8,1.893-.54,7,1.975,7,2.873,0,3.769-5.49,7.359-2.271,1.438,1.324.9,3.408,1.976,4.731,1.257,1.7,4.847,2.271,7,2.082,11.311-.758.359-13.061-.539-17.6-.179-1.324.539-2.838,0-3.971-.359-.947-1.615-1.706-2.334-2.652a11.657,11.657,0,0,1-1.442-2.956c-.413.25-.842.484-1.281.711" transform="translate(-891.576 -125.769)"/>
    </clipPath>
    <linearGradient id="linear-gradient-20" x1="-28.947" y1="13.249" x2="-28.915" y2="13.249" gradientUnits="objectBoundingBox">
      <stop offset="0" stop-color="#d3e1e6"/>
      <stop offset="0.079" stop-color="#62826b"/>
      <stop offset="0.342" stop-color="#5e8a69"/>
      <stop offset="0.479" stop-color="#3c6a48"/>
      <stop offset="1" stop-color="#3c6a48"/>
    </linearGradient>
    <clipPath id="clip-path-72">
      <path id="Path_48" data-name="Path 48" d="M932.753,132.424c-3.771,4.92,1.437,7.19,6.283,8.9s1.8,3.025,1.617,7.948,2.334,2.459,5.505,6.624,3.651,1.325,4.01-3.975,1.8-2.648,1.437-5.84-1.617-4.949-5.567-7.408-2.333-4.543-5.385-10.6a3.191,3.191,0,0,0-.4-.02c-1.129,0-4.431.374-7.5,4.374" transform="translate(-931.46 -128.05)"/>
    </clipPath>
    <linearGradient id="linear-gradient-21" x1="-43.37" y1="11.259" x2="-43.323" y2="11.259" gradientUnits="objectBoundingBox">
      <stop offset="0" stop-color="#8eaf97"/>
      <stop offset="0.079" stop-color="#7ba185"/>
      <stop offset="0.342" stop-color="#558261"/>
      <stop offset="0.479" stop-color="#3c6a48"/>
      <stop offset="1" stop-color="#305f3c"/>
    </linearGradient>
    <clipPath id="clip-path-74">
      <path id="Path_49" data-name="Path 49" d="M950.537,113.634c1.38,1.654,2.109,1.638,3.014,1.622,1.076-.018,2.4-.038,5.358,2.735,2.263,2.126,3.7,1.932,4.725,1.738,1.432-.272,2.034-.545,2.922,5.608,1.518,10.534,2.5,3.257,5.108,13.649s9.014,17.458,2.435,13.222-7.9-.345-10.828-8.315-1.71-10.357-5.4-11.747-8.364-4.46-3.931,2.528,3.652,8.831,6.769,11.887,9.52,4.246,1.234,4.444S949.9,153.8,952.9,157.6s.261,4.587,4.037,10.523,5.29,4.71,5.126,10.389-.832,10.754,2.381,11.161,4.6,1.258,5.277-4-.669-.8-.736-8.587.493-8.12-1.965-12.079-1.135-5.007,3.878-1.634,2.215,3.751,4.979,7.731,1.828,1.642,6.29,5.166,3.129,4.765,2.6,7.573.544,2.881-3.189,5.094-7.371,2.915-1.846,6.7,5.268,5.1,8.972,6.294.711-2.8,3.623-3.357-1.231,2.494,3.355,3.981,9.139,6.517,6.193-1.261-3.932-6.324-3.8-14.469,2.263-7.623,3.3-9.829,5.077-3.624-2.334-6.027-10.09.257-14.193-3.244-4.856-2.985-5.72-9.49-1.58-6.556,2.478-2.3,6.621,6.516,10.829,8.318,5.866,1.153,7.694.708,1.812-.255-1.964-6.2-6.652-8.951,1.025-5.035,9.839,3.874,12.9,3.889,1.117,2.352,5.358,3.585a5.112,5.112,0,0,0,3.31-.087,3.5,3.5,0,0,1,2.308-.2q-2.232-2.33-4.582-5.156c-8.819-10.624-12.6-21.249-21.418-26.088s-11.339-11.1-22.678-13.757-7.56-3.985-15.118-6.642c-4.949-1.738-7.2-6.878-9.577-9.857-1.717-.522-2.739-.822-2.739-.822,1.633,8.648.564,11.418,3.584,15.037" transform="translate(-946.953 -98.597)" fill="#305f3c"/>
    </clipPath>
    <linearGradient id="linear-gradient-22" x1="-13.346" y1="3.548" x2="-13.332" y2="3.548" xlink:href="#linear-gradient-9"/>
    <linearGradient id="linear-gradient-23" x1="-87.892" y1="37.445" x2="-87.806" y2="37.445" gradientUnits="objectBoundingBox">
      <stop offset="0" stop-color="#a4c9ae"/>
      <stop offset="0.15" stop-color="#638f6f"/>
      <stop offset="0.365" stop-color="#4f7b5b"/>
      <stop offset="0.479" stop-color="#3c6a48"/>
      <stop offset="1" stop-color="#305f3c"/>
    </linearGradient>
    <clipPath id="clip-path-86">
      <path id="Path_59" data-name="Path 59" d="M1396.887,147.895c2.364,4.128,3-.19,7.5,5.863,1.933,2.6,3.418,2.6,4.461,2.6,1.382,0,1.989,0,1.832,6.069-.282,10.65,1.91,3.677,2.727,14.391s5.934,18.877.173,13.469-7.712-1.821-9.257-10.22.059-10.512-3.341-12.573-7.48-5.965-4.293,1.748,2.109,9.377,4.661,12.971,8.653,5.968.463,4.6-12.319.483-10,4.794-.513,4.564,2.2,11.114,4.414,5.63,3.3,11.187-2.63,10.426.464,11.43,4.317,2.106,5.869-2.947-.522-.918.72-8.587,1.854-7.9.1-12.257-.275-5.141,4.091-.881,1.547,4.108,3.6,8.547,1.521,1.96,5.32,6.266,2.277,5.273,1.283,7.939.05,2.938-3.994,4.415-7.748,1.48-2.944,6.249,4.325,6.006,7.768,7.88,1.167-2.617,4.13-2.622-1.632,2.223,2.633,4.549,7.895,8.132,6.305-.077-2.806-6.963-1.3-14.953,3.51-7.076,4.9-9.051,5.607-2.61-1.281-6.372-9.975-1.643-13.423-5.863-4.277-3.847-4.032-10.413-.451-6.745,2.825-1.795,5.42,7.658,9.257,10.222,5.578,2.239,7.453,2.143,1.825.089-.89-6.471-5.038-10.058,1.857-4.763,9.031,5.664,12.037,6.256.7,2.524,4.669,4.535a5.184,5.184,0,0,0,3.347.528,3.4,3.4,0,0,1,2.228.25c-1.2-1.81-2.416-3.781-3.642-5.934-6.891-12.118-8.819-23.283-16.684-29.7s-9.289-13.054-20-17.8-6.769-5.344-13.759-9.378c-4.575-2.642-5.925-8.124-7.763-11.5-1.6-.837-2.56-1.325-2.56-1.325.161,8.816-1.362,11.343,1,15.471" transform="translate(-1391.176 -132.424)"/>
    </clipPath>
    <linearGradient id="linear-gradient-24" x1="-13.042" y1="2.549" x2="-13.033" y2="2.549" xlink:href="#linear-gradient-9"/>
    <clipPath id="clip-path-88">
      <path id="Path_61" data-name="Path 61" d="M1465.562,217.239c4.391.059,5.649,2.492,3.381-1.385q-4.61-1.887-9.461-7.7c2.594,5.572,1.113,9.014,6.08,9.081" transform="translate(-1459.482 -208.158)"/>
    </clipPath>
    <linearGradient id="linear-gradient-25" x1="-99.02" y1="17.625" x2="-98.952" y2="17.625" gradientUnits="objectBoundingBox">
      <stop offset="0" stop-color="#b5e2c1"/>
      <stop offset="0.15" stop-color="#60926d"/>
      <stop offset="0.365" stop-color="#60926d"/>
      <stop offset="0.479" stop-color="#3c6a48"/>
      <stop offset="1" stop-color="#305f3c"/>
    </linearGradient>
    <clipPath id="clip-path-90">
      <path id="Path_63" data-name="Path 63" d="M604.319,360.159c-.674-3.529-.571-5.361-3.276-7.842-1.081-1.2-8.945-2.454-8.053-4.367a15.778,15.778,0,0,0-3.537-5.8L588.7,339.1c.836.887,5.057,3.693,4.912,4,2.529,4.913,11.044,7.439,14.865,10.409a5.377,5.377,0,0,1-.911,9.04,4.6,4.6,0,0,1-1.954.729c-1.051,0-.912-1.374-1.287-3.126m-53.611-72.946c-.28.587.166,5.055.266,5.769.527,2.459,3.72,3.229,4.019,5.362.5,3.552-4.7,2.733-6.778,3.424a7.419,7.419,0,0,0,1.484,4.123c1.037.929,1.9.609,2.914,1.358,1.439,1.228,1.641,2.648,2.6,4.314s3.715,5.774,6.234,3.016c1.092-1.256-.473-3.375.6-4.812,1.347-2.028,6.035-.948,7.758-.31,1.367.692,2.33,2.359,3.237,3.668,1.541,1.937,3.209,3.49,3.357,5.83.12,2.158-.922,5.046-2.981,5.915-1.237-2.348-4.3-4.773-6.477-6.065-1,4.516-1.615,7.879,1.44,11.576a7.235,7.235,0,0,0,3.244,2.4c1.37.692,2.232.377,3.5,1.628,1.768,2.267,1.43,5.045-1.081,6.526a10.425,10.425,0,0,1,1.106,4.005c.224,1.6-.848,4.307-.472,5.7.707,2.431,1.773.991,3.62,2.517.633.629,1.285,2.707,1.617,3.741.979,3.116.572,4.087-2.12,5.6-2.335,1.454-2.718,1.333-1.988,3.941,1.432,5.043,3.817,3.944,7.39,6.108,1.773.99,1.142.364,1.77,2.264.6,1.718.216,5.413,1.81,6.435.634.626,3.729.685,4.516-.165.764-1.029-.046-1.627-.22-2.87a27.987,27.987,0,0,0-1.785-7.528c-.907-2.581-2.9-5.173-1.5-8.119.564-1.176,1.7-.809,1.859-2.287.441-3.339-4.522-7.644-4.992-11.018,2.456.7,4.993.667,7.043,2.343,3.086,2.6,1.455,6.492,3,9.7,1.36,3.238,3.439,3.821,5.738,6,1.9,1.881,1.385,4.683,1.785,7.527.573,4.088,2.375,13.065,7.712,8.415,1.96-1.577,1.531-3.325,4.828-3.118,2.916.09,5.774,2.363,6.038-2.217.313-2.954-7.121-10.686-2.656-12.476,2.917-1.185,2,2.594,3.234,3.669.838.776,6.214.3,6.752-1.058.151-.207-2.417-6.883-2.722-7.746-.652-2.079-3.182-4.587-2.44-7.062,1.026-4.341-4.924-10.487-6.507-3.7-2.713-1.211-6.919-2.729-9.348-4.526-2.228-1.65-2.4-4.167-4.121-6.076-1.923-2.058-4.863-2.322-7.243-3.765-4.405-2.942-6.293-8.638-10.19-11.841-2.91-2.632-2.983-4.436-3.351-8.372-.473-4.647-3.8-3.761-6.734-6.572-2.5-2.331-6.688-12.751-11.566-9.988.429,1.747,4.623,8.353-.4,7.506-2.228-.377-3.39-3.464-3.641-5.24-.122-.888.414-2.242.088-3.282-.58-1.545-1.038-.926-1.924-2.057-1.718-1.913-1.184-3.266-2.066-5.671-.719-1.341-2.414-3.494-3.836-3.494a1.6,1.6,0,0,0-1.408,1.05" transform="translate(-548.214 -286.163)"/>
    </clipPath>
    <linearGradient id="linear-gradient-26" x1="-5.991" y1="1.761" x2="-5.98" y2="1.761" gradientUnits="objectBoundingBox">
      <stop offset="0" stop-color="#e5eef1"/>
      <stop offset="0.095" stop-color="#d3e5ee"/>
      <stop offset="0.348" stop-color="#a9d0e8"/>
      <stop offset="0.479" stop-color="#99c8e6"/>
      <stop offset="1" stop-color="#305f3c" stop-opacity="0.529"/>
    </linearGradient>
    <clipPath id="clip-path-92">
      <path id="Path_64" data-name="Path 64" d="M1626.27,192.467l9.5,14.368c.1,1.039,2.161-.792,4.318-2.625,1.9-1.62,3.886-3.238,4.662-2.876,1.11.378,10.164,33.633,12.634,20.388,3.96-21.236-9.918-46.68-8.9-46.062-1.7-6.514-2.893-9-3.983-9-3.29,0-5.65,22.589-18.221,25.808" transform="translate(-1626.27 -166.659)"/>
    </clipPath>
    <linearGradient id="linear-gradient-27" x1="-49.741" y1="4.668" x2="-49.71" y2="4.668" gradientUnits="objectBoundingBox">
      <stop offset="0" stop-color="#e5eef1"/>
      <stop offset="0.001" stop-color="#6c8773"/>
      <stop offset="0.316" stop-color="#3c6a48"/>
      <stop offset="0.479" stop-color="#4d7558"/>
      <stop offset="1" stop-color="#305f3c"/>
    </linearGradient>
    <clipPath id="clip-path-94">
      <path id="Path_66" data-name="Path 66" d="M1429.479,320.2c-.066-.119-.131-.241-.2-.36a4.116,4.116,0,0,1-.007-4.326,27.219,27.219,0,0,0-2.871-1.845,25.773,25.773,0,0,0,3.076,6.531" transform="translate(-1426.402 -313.673)"/>
    </clipPath>
    <linearGradient id="linear-gradient-28" x1="-433.487" y1="23.914" x2="-433.183" y2="23.914" gradientUnits="objectBoundingBox">
      <stop offset="0" stop-color="#daebf0"/>
      <stop offset="0.102" stop-color="#c4dcea"/>
      <stop offset="0.352" stop-color="#95c1de"/>
      <stop offset="0.479" stop-color="#84b7da"/>
      <stop offset="1" stop-color="#2f88a7"/>
    </linearGradient>
    <clipPath id="clip-path-96">
      <path id="Path_68" data-name="Path 68" d="M1291.2,321.668s-6.587-14.588-4.9-12.318,4.06-.756,4.9,5.406,8.5,5.949,11.365,9.169,0,14.7,0,14.7a166.234,166.234,0,0,1-11.365-16.952m-18.074,9.635c3.591-7.378-3.546-15.9-3.567-21.2s3.567-5.391,3.567-5.391c2.872,5.391,0,16.369,3.591,19.209s0,14.241,0,14.595c0,.058-.192.1-.5.1-1.561,0-6.1-1.143-3.095-7.319m-43.089-105.228c-6.462-13.628-15.063-18.8-13.274-28.706s1.067-11.248-6.834-21.553-13.643-17.572-14.36-27.189,3.591,0,3.591,0c7.9,18.4,15.078,23.639,20.824,32.751s5.028,11.594,10.052,28.145c3.587,11.8,5.345,22.123,3.714,22.124-.657,0-1.858-1.666-3.714-5.572M1165.85,104.654c.379,1,.8,2.118,1.235,3.32.881,2.417,2.628,2.369,3.966,2.322,1.386-.049,2.333-.1,1.419,2.6-1.6,4.736-2.632,5.846-3.859,14.66-.071.506.412.294.913.08.541-.228,1.1-.457,1.025.212-.136,1.143-2.569,5.489-2.562,6.528,0,.382.453.2.9.027.422-.167.838-.336.859-.027.145,2.014-1.249,5.453-1.249,5.453l7.7-18.7s-4.019,19.827-3.133,19.4c.622-.3,2.15-3.79,2.595-4.26.581-.615.678,2.688.895,5.773a21.052,21.052,0,0,0,1.652-3.265,19.371,19.371,0,0,1,1.66-3.263c.058,1.042-3.12,10.11-3.078,11.25.034.913.065,1.839.093,2.751.01.3.44-.2.87-.7s.853-1,.863-.711c.062,2.1-1.553,7.258-1.466,8.706.014.236.031.46.048.677.1,1.181.762,1.035,1.4.889.441-.1.87-.2,1.092.136.433.666-.434,4.085.239,4.576.608.439.749,6.559,1.552,7.253.078.07.461-2.567.845-5.2s.771-5.282.855-5.2c.325.3.375,9.312.626,9.463.811.49,1.226-.147,1.517-.785.519-1.135.638-2.27,1.879,2.964a28.723,28.723,0,0,0,1.239,4.2,6.627,6.627,0,0,0,.609,1.167,3.594,3.594,0,0,0,.609.7c1.533,1.337,3.939.814,9.391,2.677,8.976,3.075,6.822-1.556,4.668,7.362s.718,9.251,1.076,18.714c.179,4.732,2.334,4.164,4,3.6s2.828-1.136,1.033,3.6c-3.59,9.462-1.438,18.169-2.87,34.091s1.074,6.033,6.461,0c4.653-5.214,3.685,2.24,12.371,10.488-.09-7.428.809-14.8,4.233-21.316,2.715-5.169,11.837-5.708,14.386,0,7.356,16.471,8.472,35.2,5.317,53.186.216.059.44.123.675.193,8.26,2.452,2.514,3.606,4.309,11.932s5.026,8.706,3.952,20.061,3.589,6.817,0,9.084-2.156,6.437.718,7.217,3.59,2.248,7.9,18.9,11.848,12.871,11.488,6.817-.716-10.224.719-14.765,5.745,1.514,15.438,10.6,8.261,4.167,6.108-1.514,1.076-4.919,9.335-7.193,10.412,4.166,21.544,13.249,15.078,14.383,11.848,5.3-2.155-10.977-14.721-24.6-9.7-10.6-17.237-30.282c-.4-1.05-.777-2.024-1.128-2.939-2.109-2.8-4.178-5.636-6.128-8.529a37.629,37.629,0,0,1-8.485-4.216c.063,2.293.064,4.18.064,5.372,0,3.156-2.379-3.248-4.039-8.611a28.015,28.015,0,0,1-6.781-10.748,7.547,7.547,0,0,1,1.247-6.985c.076-.35.165-.707.284-1.077.633-1.968,1.53-2.439,2.475-2.143a232.52,232.52,0,0,1-16.283-49.423,8.929,8.929,0,0,1,1.691-7.613c-.045-.1-.092-.186-.138-.282-5.025-10.687-8.97-2.854-12.208-15.74a56.129,56.129,0,0,0-9.127-19.54c-.307-.39-.6-.758-.927-1.176,0,0,.358.416.927,1.176,8.65,10.925,12.4,11.053,23.491,22.169a33.883,33.883,0,0,1,7.536,11,6.026,6.026,0,0,1,2.678,1.9c7.388,9.442,12.083,20.059,17.207,30.81a109.107,109.107,0,0,0,9.186,16.559c.586.284,1.168.565,1.742.838a183.594,183.594,0,0,1,16.274,8.9c10.228,6.231,17.387,14.672,24.079,24.462,5.536,8.1,10.246,17,15.259,25.676a4.489,4.489,0,0,1,1.079.143c.683.176,1.374.369,2.067.572,1.742-1.934,2.58-4.634,2.9-8.15A115.726,115.726,0,0,1,1369,293.572c-.011-.063-.013-.122-.024-.183-1.685-3.944-2.019-7.546-3.925-12.668-2.874-7.708,3.591,0,3.591,0,1.762,2.114,3.247,7.958,4.159,10.731.958-.189,1.582-3.293,2.64-2.831,1.48.644,6.491,4.853,7.639,5.689,1.029-1.941-4.19-7.759-2.591-9.475.021-.025.747.086,1.471.2s1.437.219,1.461.2a38.088,38.088,0,0,0-9.983-6.712c-2.568-1.173-.339-4.952,2.213-3.784,8.622,3.945,14.514,10.385,19.364,17.786,3.394,2.343,6.18,6.375,8.473,10.173,4.186,1.021,7.264,4.207,9.562,7.833a26.424,26.424,0,0,1,3.264,1.339,3.861,3.861,0,0,1,2.408,1.378,22.649,22.649,0,0,1,7.688,8.447c2.994,5.6,4.719,11.719,6.886,17.661.4.378.811.737,1.224,1.094a5,5,0,0,1,4.564-3.527,26.921,26.921,0,0,1-3.162-14.259,4.475,4.475,0,0,1,5.55-4.228c7.591,1.366,14.179,6.493,19.552,12.516,3.216.286,6.5.268,9.585,1.258a18.05,18.05,0,0,1,4.9,2.431c-2.465-7.48-10.366-16.551-10.761-17.333-10.578-21-6.607-15.842-15.171-19.265-13.186,9.744-15.828,2.035-26.952-.571,0,0-17.637-18.6-18.9-26.562s-15.116-15.942-22.677-19.924-21.417-1.328-27.719-5.314-20.154-19.92-25.2-23.265-21.906-9.521-25.683-9.521-20.932-11.044-23.45-13.7,2.519-13.283,0-19.446-17.638-9.773-26.458-16.415-7.559-17.268-16.379-23.906a75.387,75.387,0,0,0-14.291-8.442,16.509,16.509,0,0,1-3.747-1.547,50.592,50.592,0,0,0-12.2-3.066c-9.373-1.025-31.811-24.443-42-26.657.22.551.95,2.377,1.926,4.953" transform="translate(-1163.925 -99.7)"/>
    </clipPath>
    <linearGradient id="linear-gradient-29" x1="-3.742" y1="1.334" x2="-3.738" y2="1.334" xlink:href="#linear-gradient-8"/>
    <clipPath id="clip-path-98">
      <path id="Path_70" data-name="Path 70" d="M1030.952,178.348c-4.959.681-5.375,2.9-5.375,2.9s-10.043,19.389-4.965,21.618c.979.429,2.192-1.032,3.532-2.493,1.867-2.035,3.989-4.07,6.093-1,3.615,5.277,3.394,8.916-1.981,11.821s-4.815,12.213-4.815,12.213-7.06,9.917-4.3,10.7c1.905.54,4.041-1.46,6.067-3.458,2.881-2.844,5.541-5.687,7-1.226,2.491,7.6,1.95,6.456-4.2,11.406a99.567,99.567,0,0,0-10.262,9.351s-6.724,27.329.261,28.116c1.577.179,2.378-2.872,3.124-5.921.82-3.341,1.571-6.684,3.206-5.777,3.127,1.736,3.88,12.459,4.44,21.765s-9.226,21.306-3.867,24.355c3.3,1.879,6.915-7.45,9.969-11.478s2.815-16.268,9.873-12.188,4.225,4.472,12.284,10.583,11.5,25.847,15.482,18.08c2.46-4.8-.8-21.545-.8-21.545l12.231,20.694s2.153-5.35-1.046-12.849-5.907-11.457.76-10.21,17.192,20.01,20.512,23.162,15.7,14.442,15.7,14.442-6.273-19.349-4.024-23.99,15.462,2.2,26.868,6.409,40.79,13.153,33.12,9.877-23.858-21.258-28.279-27.147-17.9-19.913-31.042-20.992-21.051-16.593-27.79-23.6-6.52-10.653-7.495-17.737-7.74-9.04-11.8-7.039-6.791,3.1-7.643-8.331,5.3-8.67-3.88-12.458-9.522-16.737-12.33-21.4-5.733-15.451-5.733-15.451-3.941,8.119-8.9,8.8" transform="translate(-1014.827 -169.545)"/>
    </clipPath>
    <linearGradient id="linear-gradient-30" x1="-4.916" y1="1.627" x2="-4.911" y2="1.627" gradientUnits="objectBoundingBox">
      <stop offset="0" stop-color="#4d7558"/>
      <stop offset="0.087" stop-color="#4d7558"/>
      <stop offset="0.309" stop-color="#6c8773"/>
      <stop offset="0.479" stop-color="#6c8773"/>
      <stop offset="1" stop-color="#7d9182"/>
    </linearGradient>
    <clipPath id="clip-path-103">
      <path id="Path_73" data-name="Path 73" d="M1607.3,218.055a7.21,7.21,0,0,1-2.041,2.911c-.2.173-.388.358-.583.535-.037.043-.077.084-.113.129-.071.182-.136.367-.191.56.007-.03.015-.059.024-.088-.042.12-.1.232-.145.349a5.958,5.958,0,0,1,1.453,4.994,23.769,23.769,0,0,1-1.44,4.646c.031.029.06.053.091.082,1.5,1.35,2.429,1.139,3.08.927.7-.23,1.08-.459,1.5,1.283.8,3.354,2.11,15.506-1.906,20.843s-4.864,1.387-15.541,5.167c-7.024,2.486-6.491,1.686-6.673.886-.093-.415-.381-.831-2.021-.786-4.8.131-1.033,2.676,2.731,5.221s4.313,2.933,2.095,6.5-.464,2.648,3.324,4.773,3.535-.843,4.86,3.321,2.321,3.751,6.411,4.728,3.1,2.817,6.954,3.688,1.971-.4,8.473,8.793.921,4.125,3.746,9.1,3.173,2.992,8.528,4.677,2.349.056,7.483,5.924,2.741,1.943,7.959,0,1.346-2.4,5.773-.123,3.4,4.946,7.525,14.5,1.635,4.447,4.146,3,.769-3.8.256-6.45-3.68-5.648-1.16-10.369,1.886-3.436-1.017-10.02c-.728-1.651-1.319-2.879-1.881-3.895-11.273,2.978-29.544-16.267-37.62-23.746-6.047-5.6,10.827-4.509,16.912,1.125,2.493,2.309,5.491,5.649,8.818,7.91-.357-.51-.853-1.213-1.622-2.281-3.635-5.052-1.4.374-5.292-9.078-2.233-5.423-1.812-5.332-1.226-5.242.434.068.958.134.555-2.054-.948-5.136,1.155-1.907.783-5.644-.2-1.964-.495-1.961-.747-1.958-.226,0-.416,0-.456-1.434-.085-3.035,4.2-2.548,7.768-5.654s1.727-1.939.021-6.558-3.4-4.946-11.649-7.077-4.624-3.214-11.469-8.992-7.087-7.316-11.075-11.814c-1.73-1.953-2.42-3.064-3.344-4.159Z" transform="translate(-1580.531 -217.211)"/>
    </clipPath>
    <linearGradient id="linear-gradient-31" x1="-19.387" y1="2.135" x2="-19.375" y2="2.135" gradientUnits="objectBoundingBox">
      <stop offset="0" stop-color="#e5eef1"/>
      <stop offset="0.176" stop-color="#d5e5ef"/>
      <stop offset="0.701" stop-color="#aad0e8"/>
      <stop offset="0.97" stop-color="#99c8e6"/>
      <stop offset="1" stop-color="#305f3c" stop-opacity="0.541"/>
    </linearGradient>
  </defs>
  <g id="middle">
    <g id="Group_26" data-name="Group 26">
      <g id="Group_2" data-name="Group 2" clip-path="url(#clip-path)">
        <g id="Group_1" data-name="Group 1" transform="translate(573.86 154.373)" clip-path="url(#clip-path-2)">
          <rect id="Rectangle_1" data-name="Rectangle 1" width="1205.732" height="184.568" transform="translate(-0.004 0)" fill="#4d7558"/>
        </g>
      </g>
      <g id="Group_4" data-name="Group 4" clip-path="url(#clip-path)">
        <g id="Group_3" data-name="Group 3" transform="translate(573.854 173.81)" clip-path="url(#clip-path-4)">
          <rect id="Rectangle_3" data-name="Rectangle 3" width="1205.732" height="198.868" transform="translate(0.002)" fill="url(#linear-gradient-2)"/>
        </g>
      </g>
      <g id="Group_6" data-name="Group 6" clip-path="url(#clip-path)">
        <g id="Group_5" data-name="Group 5" transform="translate(573.859 135.174)" clip-path="url(#clip-path-6)">
          <rect id="Rectangle_5" data-name="Rectangle 5" width="1205.732" height="303.658" transform="translate(-0.003)" fill="url(#linear-gradient-3)"/>
        </g>
      </g>
      <g id="Group_9" data-name="Group 9" clip-path="url(#clip-path)">
        <g id="Group_7" data-name="Group 7" clip-path="url(#clip-path)">
          <path id="Path_4" data-name="Path 4" d="M1429.616,196.8c-3.636-1.473-2.2-1.212-3.573-3.092s-.279-2.775-3.543-3.36-1.475-.064-2.586-3.081-1.148-5.756-2.673-12.478-3.818.911-2.507,4.346.775,3.752-.907,2.35-2.458-1.119-5.816-4.962-1.982,2.072,1.09,5.226,1.747,3.885,4.578,7.009,1.167,4.585,1.906,8.627-1.134,3.2,2.718,5.045.136-3.122,3.089-4.031c2.674-.825.869,2.793,3.253,8.021a28.364,28.364,0,0,1,7.143-6.969c.668-.438,1.28-.845,1.844-1.226-.187-.736-1.774-.516-4.016-1.426" transform="translate(102.162 12.506)" fill="#447e98"/>
        </g>
        <g id="Group_8" data-name="Group 8" clip-path="url(#clip-path)">
          <path id="Path_5" data-name="Path 5" d="M1367.842,179.075c2.513-1.893,3.021-4.01,4.277-.6.9,2.648.9,4.73-1.437,5.489-2.153.755-1.413,9.6-3.387,11.494-1.8,1.891,1.614,16.142,4.127,16.142,2.874,0,10.017-4.858,13.607-1.642,1.438,1.325-8.06-23.4-6.982-22.08,1.257,1.7,1.254,8.576,3.408,8.385,11.31-.756.358-13.057-.536-17.6-.18-1.325,12.885,6.563,12.346,5.429-.359-.947-13.964-11.108-14.68-12.053-.623-.876,7.89,1.511,7.518.439-.412.252-7.972-7.673-8.378-4.6a19.5,19.5,0,0,1-2.357,2.159c-.335.163-.682.32-1.036.47-.162.07-1.531-2.695-1.7-2.628-.517.2-1.85.8-2.415.969-6.718,2.088-3.588,1.762-8.014,4.16.2,4.819,2.751,8.038,5.636,6.071" transform="translate(98.975 12.146)" fill="#447e98"/>
        </g>
      </g>
      <g id="Group_11" data-name="Group 11" clip-path="url(#clip-path)">
        <g id="Group_10" data-name="Group 10" transform="translate(197.607 154.184)" clip-path="url(#clip-path-11)">
          <path id="Path_147" data-name="Path 147" d="M0,0H400.5V102.5H0Z" transform="translate(0 0)" fill="#4d7558"/>
        </g>
      </g>
      <g id="Group_13" data-name="Group 13" clip-path="url(#clip-path)">
        <g id="Group_12" data-name="Group 12" transform="translate(0 174.629)" clip-path="url(#clip-path-13)">
          <rect id="Rectangle_12" data-name="Rectangle 12" width="632.318" height="198.848" transform="translate(0 0)" fill="url(#linear-gradient-4)"/>
        </g>
      </g>
      <g id="Group_15" data-name="Group 15" clip-path="url(#clip-path)">
        <g id="Group_14" data-name="Group 14" transform="translate(1667.416 155.293)" clip-path="url(#clip-path-15)">
          <rect id="Rectangle_14" data-name="Rectangle 14" width="490.774" height="183.479" transform="translate(-0.001)" fill="url(#linear-gradient-5)"/>
        </g>
      </g>
      <g id="Group_17" data-name="Group 17" clip-path="url(#clip-path)">
        <g id="Group_16" data-name="Group 16" transform="translate(1667.409 174.73)" clip-path="url(#clip-path-17)">
          <rect id="Rectangle_16" data-name="Rectangle 16" width="490.774" height="198.784" transform="translate(0.006 -0.001)" fill="url(#linear-gradient-6)"/>
        </g>
      </g>
      <g id="Group_19" data-name="Group 19" clip-path="url(#clip-path)">
        <g id="Group_18" data-name="Group 18" clip-path="url(#clip-path)">
          <path id="Path_10" data-name="Path 10" d="M2158.188,490.6V180.9c-9.564,1.194-12.179-.1-20.819-1.4-8.816-1.327-15.113,10.626-28.973,21.251s-14.072-12.44-27.932-1.815-21.554-25.943-31.825-31.668c-29.244-16.292-22.413-27.773-29.383-31.078-5.57-2.643-27.43,17.04-36.647,24.462-6.72,5.412-23.537,31.621-29.926,34.581-6.726,3.117-12.7,31.889-17.739,28.546s-30.043-11.393-33.821-11.393-12.794-9.17-15.311-11.826-.788-13.961-3.307-20.125-14.329-9.1-23.153-15.734-7.558-17.269-16.376-23.908-20.16-11.954-30.238-13.055-35.274-28.118-44.093-26.79-10.081,3.984-32.758,21.25-6.3,9.3-20.157,26.447-8.817,24.021-19.608,32.467c-3.717,2.909-5.685,3.6-7.286,3.327-3.114-4.017-6.483-8.442-11.772-11.86-11.338-7.327-3.776-9.939-13.859,0s-16.376,6-26.457,7.328-12.6,0-21.419-1.329-15.113,10.626-28.973,21.25-14.072-12.44-27.933-1.814-21.552-25.943-31.825-31.667c-29.243-16.294-22.412-27.774-29.382-31.08-5.57-2.643-27.429,17.041-36.646,24.463-6.721,5.413-23.538,31.621-29.928,34.581-6.724,3.116-12.7,31.89-17.736,28.547s-30.044-11.393-33.822-11.393-12.792-9.171-15.311-11.828-.788-13.962-3.306-20.125-14.331-9.1-23.153-15.736-7.558-17.266-16.377-23.905-20.16-11.954-30.237-13.055-35.276-28.119-44.093-26.79-10.081,3.983-32.758,21.249-6.3,9.3-20.159,26.447-8.817,24.023-19.607,32.468-6.85-1.8-21.97,0-12.638,1.606-26.046,14.12c-9.072,8.468-9.64-22.375-15.94-22.375s-13.858-5.312-22.677-15.936-12.6-21.252-21.418-26.088-11.339-11.1-22.677-13.758-7.561-3.985-15.119-6.642-8.818-13.281-13.859-11.952-10.078,5.313-21.418,13.283S979.1,126.78,969.019,129.914s-8.818-.477-21.418,14.135-6.3,21.249-21.417,30.025-25.2,19.115-42.836,24.428-11.34,2.657-26.457,12.818-16.378,3.121-39.057,23.446-13.858,14.206-17.639,16.862S791.38,256.943,782.56,241,756.1,210.457,749.8,205.143s-17.638-1.327-22.677-7.968-15.118-26.563-20.157-22.581-10.079,14.611-16.378,18.595-17.64,3.986-28.978,18.131-6.3,19.06-11.338,20.388c-3.268.86-10.779,6.751-20.808,14.408-5.805-3.939-16.91-7.748-26.609-9.606C589,233.854,580.182,221.9,567.582,212.138s-3.778-14.144-13.859-16.8-12.6-14.609-23.937-21.937-3.777-9.938-13.859,0-16.376,6-26.457,7.328-12.6,0-21.419-1.329-15.113,10.626-28.973,21.25-14.073-12.439-27.933-1.815-21.553-25.943-31.826-31.667c-29.242-16.292-22.411-27.774-29.381-31.079-5.571-2.642-27.429,17.039-36.647,24.462-6.72,5.412-23.538,31.623-29.928,34.582-6.723,3.116-12.7,31.89-17.736,28.545s-30.044-11.393-33.821-11.393-12.794-9.171-15.312-11.826-.787-13.961-3.306-20.125-14.33-9.1-23.152-15.736-7.559-17.267-16.378-23.906-20.158-11.954-30.236-13.055-35.277-28.118-44.093-26.789S89.246,104.83,66.569,122.1s-6.3,9.3-20.158,26.451S37.593,172.567,26.8,181.01s-6.849-1.8-21.969,0c-1.858.224-3.444.414-4.832.6V490.495Z" transform="translate(0 7.08)" fill="#fff"/>
        </g>
      </g>
      <g id="Group_22" data-name="Group 22" clip-path="url(#clip-path)">
        <g id="Group_21" data-name="Group 21" transform="translate(1097.874 173.345)" clip-path="url(#clip-path-22)">
          <rect id="Rectangle_21" data-name="Rectangle 21" width="12.491" height="8.661" transform="translate(-0.009)" fill="url(#linear-gradient-7)"/>
        </g>
      </g>
      <g id="Group_25" data-name="Group 25" clip-path="url(#clip-path)">
        <g id="Group_23" data-name="Group 23" clip-path="url(#clip-path)">
          <path id="Path_12" data-name="Path 12" d="M1057.668,241.047a134.443,134.443,0,0,1,2.537,18.592c.507,9.3,4.566,17.162,5.581,24.314s-8.118-2.861-8.118-2.861L1052.6,276.8l-4.06,4.291a24.194,24.194,0,0,1,2.538-13.586c3.55-6.436.507-35.756,2.536-37.186s7.611,1.43,9.133,6.436a64.128,64.128,0,0,1,2.029,11.442Z" transform="translate(76.175 16.708)" fill="#fff"/>
        </g>
        <g id="Group_24" data-name="Group 24" clip-path="url(#clip-path)">
          <path id="Path_13" data-name="Path 13" d="M1092.3,263.271c2.87,5.39,0,16.369,3.591,19.208s0,14.242,0,14.6-7.181.165-3.591-7.217-3.546-15.9-3.568-21.2,3.568-5.39,3.568-5.39" transform="translate(79.105 19.129)" fill="#fff"/>
        </g>
      </g>
    </g>
  </g>
  <g id="front">
    <g id="Group_107" data-name="Group 107">
      <g id="Group_30" data-name="Group 30" clip-path="url(#clip-path)">
        <g id="Group_28" data-name="Group 28" clip-path="url(#clip-path)">
          <path id="Path_14" data-name="Path 14" d="M1429.616,196.8c-3.636-1.473-2.2-1.212-3.573-3.092s-.279-2.775-3.543-3.36-1.475-.064-2.586-3.081-1.148-5.756-2.673-12.478-3.818.911-2.507,4.346.775,3.752-.907,2.35-2.458-1.119-5.816-4.962-1.982,2.072,1.09,5.226,1.747,3.885,4.578,7.009,1.167,4.585,1.906,8.627-1.134,3.2,2.718,5.045.136-3.122,3.089-4.031c2.674-.825.869,2.793,3.253,8.021a28.364,28.364,0,0,1,7.143-6.969c.668-.438,1.28-.845,1.844-1.226-.187-.736-1.774-.516-4.016-1.426" transform="translate(102.162 12.506)" fill="#447e98"/>
        </g>
        <g id="Group_29" data-name="Group 29" clip-path="url(#clip-path)">
          <path id="Path_15" data-name="Path 15" d="M1367.842,179.075c2.513-1.893,3.021-4.01,4.277-.6.9,2.648.9,4.73-1.437,5.489-2.153.755-1.413,9.6-3.387,11.494-1.8,1.891,1.614,16.142,4.127,16.142,2.874,0,10.017-4.858,13.607-1.642,1.438,1.325-8.06-23.4-6.982-22.08,1.257,1.7,1.254,8.576,3.408,8.385,11.31-.756.358-13.057-.536-17.6-.18-1.325,12.885,6.563,12.346,5.429-.359-.947-13.964-11.108-14.68-12.053-.623-.876,7.89,1.511,7.518.439-.412.252-7.972-7.673-8.378-4.6a19.5,19.5,0,0,1-2.357,2.159c-.335.163-.682.32-1.036.47-.162.07-1.531-2.695-1.7-2.628-.517.2-1.85.8-2.415.969-6.718,2.088-3.588,1.762-8.014,4.16.2,4.819,2.751,8.038,5.636,6.071" transform="translate(98.975 12.146)" fill="#447e98"/>
        </g>
      </g>
      <g id="Group_36" data-name="Group 36" clip-path="url(#clip-path)">
        <g id="Group_31" data-name="Group 31" clip-path="url(#clip-path)">
          <path id="Path_16" data-name="Path 16" d="M2158.188,490.6V180.9c-9.564,1.194-12.179-.1-20.819-1.4-8.816-1.327-15.113,10.626-28.973,21.251s-14.072-12.44-27.932-1.815-21.554-25.943-31.825-31.668c-29.244-16.292-22.413-27.773-29.383-31.078-5.57-2.643-27.43,17.04-36.647,24.462-6.72,5.412-23.537,31.621-29.926,34.581-6.726,3.117-12.7,31.889-17.739,28.546s-30.043-11.393-33.821-11.393-12.794-9.17-15.311-11.826-.788-13.961-3.307-20.125-14.329-9.1-23.153-15.734-7.558-17.269-16.376-23.908-20.16-11.954-30.238-13.055-35.274-28.118-44.093-26.79-10.081,3.984-32.758,21.25-6.3,9.3-20.157,26.447-8.817,24.021-19.608,32.467c-3.717,2.909-5.685,3.6-7.286,3.327-3.114-4.017-6.483-8.442-11.772-11.86-11.338-7.327-3.776-9.939-13.859,0s-16.376,6-26.457,7.328-12.6,0-21.419-1.329-15.113,10.626-28.973,21.25-14.072-12.44-27.933-1.814-21.552-25.943-31.825-31.667c-29.243-16.294-22.412-27.774-29.382-31.08-5.57-2.643-27.429,17.041-36.646,24.463-6.721,5.413-23.538,31.621-29.928,34.581-6.724,3.116-12.7,31.89-17.736,28.547s-30.044-11.393-33.822-11.393-12.792-9.171-15.311-11.828-.788-13.962-3.306-20.125-14.331-9.1-23.153-15.736-7.558-17.266-16.377-23.905-20.16-11.954-30.237-13.055-35.276-28.119-44.093-26.79-10.081,3.983-32.758,21.249-6.3,9.3-20.159,26.447-8.817,24.023-19.607,32.468-6.85-1.8-21.97,0-12.638,1.606-26.046,14.12c-9.072,8.468-9.64-22.375-15.94-22.375s-13.858-5.312-22.677-15.936-12.6-21.252-21.418-26.088-11.339-11.1-22.677-13.758-7.561-3.985-15.119-6.642-8.818-13.281-13.859-11.952-10.078,5.313-21.418,13.283S979.1,126.78,969.019,129.914s-8.818-.477-21.418,14.135-6.3,21.249-21.417,30.025-25.2,19.115-42.836,24.428-11.34,2.657-26.457,12.818-16.378,3.121-39.057,23.446-13.858,14.206-17.639,16.862S791.38,256.943,782.56,241,756.1,210.457,749.8,205.143s-17.638-1.327-22.677-7.968-15.118-26.563-20.157-22.581-10.079,14.611-16.378,18.595-17.64,3.986-28.978,18.131-6.3,19.06-11.338,20.388c-3.268.86-10.779,6.751-20.808,14.408-5.805-3.939-16.91-7.748-26.609-9.606C589,233.854,580.182,221.9,567.582,212.138s-3.778-14.144-13.859-16.8-12.6-14.609-23.937-21.937-3.777-9.938-13.859,0-16.376,6-26.457,7.328-12.6,0-21.419-1.329-15.113,10.626-28.973,21.25-14.073-12.439-27.933-1.815-21.553-25.943-31.826-31.667c-29.242-16.292-22.411-27.774-29.381-31.079-5.571-2.642-27.429,17.039-36.647,24.462-6.72,5.412-23.538,31.623-29.928,34.582-6.723,3.116-12.7,31.89-17.736,28.545s-30.044-11.393-33.821-11.393-12.794-9.171-15.312-11.826-.787-13.961-3.306-20.125-14.33-9.1-23.152-15.736-7.559-17.267-16.378-23.906-20.158-11.954-30.236-13.055-35.277-28.118-44.093-26.789S89.246,104.83,66.569,122.1s-6.3,9.3-20.158,26.451S37.593,172.567,26.8,181.01s-6.849-1.8-21.969,0c-1.858.224-3.444.414-4.832.6V490.495Z" transform="translate(0 7.08)" fill="#fff"/>
        </g>
        <g id="Group_32" data-name="Group 32" clip-path="url(#clip-path)">
          <path id="Path_17" data-name="Path 17" d="M1572.823,209.69c-5.026-3.974-3.23-5.3-7.9-9.273s-2.513-6.436-4.31-12.161,1.079-4.873-4.845-6.789a7.5,7.5,0,0,0-1.3-.32v18.869c1.018.212.147.886,1.658,3.806,2.156,4.164,2.693,8.139,6.1,17.6s5.385-2.081,2.873-6.814-1.8-5.3.9-3.6,3.769,1.136,9.335,6.056,2.516-3.407-2.514-7.381" transform="translate(112.945 13.162)" fill="#60926d"/>
        </g>
        <g id="Group_33" data-name="Group 33" clip-path="url(#clip-path)">
          <path id="Path_18" data-name="Path 18" d="M1566.468,190.308c4.488,2.273,2.693,1.7,8.8,2.083s6.286-.946,1.794-4.354-5.71-2.56-6.1-7.192c-.162-1.908-.232-3.507-.457-4.767a14.365,14.365,0,0,0-5.845-1.47,1.7,1.7,0,0,0-.03.179c.406,8.9-2.651,13.249,1.844,15.52" transform="translate(113.636 12.687)" fill="#60926d"/>
        </g>
        <g id="Group_34" data-name="Group 34" clip-path="url(#clip-path)">
          <path id="Path_19" data-name="Path 19" d="M1577.11,178.537a8.511,8.511,0,0,0,.874.957c3.772,3.594,4.488,4.542,8.257,2.081s8.014-2.5,3.59-5.868a35.853,35.853,0,0,1-4.3-3.887,24.658,24.658,0,0,1-4.032,3.887,21.443,21.443,0,0,1-4.385,2.831" transform="translate(114.59 12.484)" fill="#60926d"/>
        </g>
        <g id="Group_35" data-name="Group 35" clip-path="url(#clip-path)">
          <path id="Path_20" data-name="Path 20" d="M2013.706,230.824V181.507c-.5-.33-1.082-.725-1.786-1.243-4.134-3.028-7.51-3.626-9.637-4.542-1.917-.826-2.638-.483-2.638-.483,1.254,8.136-.838,1.807,2.4,14.11s2.694,21.575,0,14.573-5.567-12.68-5.745-7.761-2.517,8.421,1.973,10.173,5.891-.9,6,4.022.67,8.9-4.368,5.111-7.015-13.249-8.99-5.678-3.772,5.109-.9,10.785,1.256,6.626,8.078,11.546,15.621,15.332,14.721,8.139c-.78-6.23-1.96-11.177.894-9.437" transform="translate(144.482 12.727)" fill="#6c8773"/>
        </g>
      </g>
      <g id="Group_38" data-name="Group 38" clip-path="url(#clip-path)">
        <g id="Group_37" data-name="Group 37" transform="translate(1770.352 107.471)" clip-path="url(#clip-path-37)">
          <path id="Path_21" data-name="Path 21" d="M1651.475,391.123,1641.36,101.269l321.69-11.234,10.115,289.854Z" transform="translate(-1651.094 -100.929)" fill="url(#linear-gradient-8)"/>
        </g>
      </g>
      <g id="Group_40" data-name="Group 40" clip-path="url(#clip-path)">
        <g id="Group_39" data-name="Group 39" clip-path="url(#clip-path)">
          <path id="Path_23" data-name="Path 23" d="M1606.391,156.038c.716,1.515-.18,5.3,2.512,5.111,3.232-.191.36-4.354,2.335-5.867,2.872-1.891,3.051,2.082,3.767,3.216,1.259,2.273,3.055,2.461,4.311-.755,1.8-3.975-3.951-10.219-7-12.3-3.287-2.309-6.161-4.48-7.084-8.507a40.144,40.144,0,0,0-2.06,3.6c1.533,2.216,3.3,3.959,2.682,7.371-.54,2.839-3.773,5.3-4.31,7.949-1.073,4.732,3.057,2.648,4.848.189" transform="translate(116.352 9.949)" fill="#6c8773"/>
        </g>
      </g>
      <g id="Group_42" data-name="Group 42" clip-path="url(#clip-path)">
        <g id="Group_41" data-name="Group 41" transform="translate(2014.298 142.968)" clip-path="url(#clip-path-41)">
          <path id="Path_24" data-name="Path 24" d="M1856.77,249.934l23.18-128.206,89.5,16.181-23.18,128.206Z" transform="translate(-1879.389 -134.124)" fill="url(#linear-gradient-9)"/>
        </g>
      </g>
      <g id="Group_44" data-name="Group 44" clip-path="url(#clip-path)">
        <g id="Group_43" data-name="Group 43" transform="translate(2087.566 224.204)" clip-path="url(#clip-path-43)">
          <path id="Path_26" data-name="Path 26" d="M1944.28,220.361l2.392-13.258,13.387,2.419-2.4,13.258Z" transform="translate(-1946.298 -209.156)" fill="url(#linear-gradient-10)"/>
        </g>
      </g>
      <g id="Group_51" data-name="Group 51" clip-path="url(#clip-path)">
        <g id="Group_45" data-name="Group 45" clip-path="url(#clip-path)">
          <path id="Path_28" data-name="Path 28" d="M16.447,209.561c-5.024-3.973-3.23-5.3-7.9-9.273s-2.512-6.436-4.308-12.161C2.51,182.609,5.114,183.2,0,181.533v22.66c1.951,3.992,2.582,8.019,5.856,17.1,3.411,9.464,5.387-2.081,2.874-6.812s-1.8-5.3.9-3.6,3.769,1.138,9.335,6.058,2.514-3.408-2.515-7.382" transform="translate(0 13.19)" fill="rgba(48,95,60,0.45)"/>
        </g>
        <g id="Group_46" data-name="Group 46" clip-path="url(#clip-path)">
          <path id="Path_29" data-name="Path 29" d="M10.721,191.214c4.488,2.272,2.692,1.7,8.8,2.082s6.285-.946,1.8-4.354-5.709-2.56-6.1-7.19c-.164-1.909-.232-3.51-.458-4.769a14.388,14.388,0,0,0-5.845-1.47,1.772,1.772,0,0,0-.03.179c.408,8.9-2.644,13.251,1.845,15.521" transform="translate(0.599 12.753)" fill="rgba(48,95,60,0.62)"/>
        </g>
        <g id="Group_47" data-name="Group 47" clip-path="url(#clip-path)">
          <path id="Path_30" data-name="Path 30" d="M20.452,177.775a8.39,8.39,0,0,0,.873.958c3.771,3.594,4.488,4.539,8.257,2.08s8.013-2.5,3.591-5.868a35.728,35.728,0,0,1-4.307-3.888,24.513,24.513,0,0,1-4.03,3.888,21.671,21.671,0,0,1-4.385,2.831" transform="translate(1.486 12.429)" fill="rgba(48,95,60,0.88)"/>
        </g>
        <g id="Group_48" data-name="Group 48" clip-path="url(#clip-path)">
          <path id="Path_31" data-name="Path 31" d="M124.822,199.713c.179-4.921-1.258-5.866-8.078-10.978s-3.053-4.732-7.183-12.682-3.77-9.462-5.745-15.141c-.857-2.465-1.073-3.753-1.511-5.118h-2.219a7.229,7.229,0,0,1-3,1.915c-.251.084-.494.183-.743.272-.05.026-.1.048-.152.076-.134.142-.265.289-.39.445.019-.024.038-.048.056-.072-.085.1-.178.177-.266.267a5.958,5.958,0,0,1-.557,5.171,23.871,23.871,0,0,1-3.1,3.748c.017.038.035.072.054.11,1.816,3.784,3.927.378,3.39,3.784s-4.981,8.5-10.727,11.9-3.995,6.077-15.307,5.508-3.59-1.514-8.077-3.217-1.975,2.082.537,5.867,2.873,4.354-.537,6.814-1.437,2.272,1.257,5.679,3.59.566,3.23,4.92.719,4.353,4.129,6.814,1.8,3.784,5.028,6.056,1.976.379,4.489,11.355-.72,4.165,0,9.842,1.8,3.974,6.106,7.572,2.152.946,4.665,8.327,1.8,2.838,7.361,3.027,2.157-1.7,5.386,2.082,1.258,5.869,1.438,16.275-.18,4.734,2.691,4.355,2.156-3.217,2.691-5.868-1.254-6.623,2.875-10.03,3.052-2.46,2.874-9.653c-.046-1.8-.124-3.164-.257-4.316-11.558-1.537-21.129-26.288-25.75-36.278-3.46-7.481,11.728-.049,15.211,7.477,1.426,3.084,2.927,7.314,5.142,10.671-.136-.606-.326-1.446-.63-2.725-1.44-6.056-1.44-.188-1.44-10.41s1.079-1.891,2.156-7,1.8-1.324,2.873-4.921-.9-.757.179-3.594,4.849-.758,9.335-2.272,2.335-1.135,2.515-6.056" transform="translate(4.272 11.32)" fill="rgba(48,95,60,0.76)"/>
        </g>
        <g id="Group_49" data-name="Group 49" clip-path="url(#clip-path)">
          <path id="Path_32" data-name="Path 32" d="M168.476,290.889c3.232,12.112.717,14.007,4.668,17.035s8.256,7.57,8.617,16.654-1.795,9.085-3.95,17.791-5.744,14.763-4.667,18.928-5.026,4.92-6.822-7.951-3.232-19.306-6.106-14.384-14.361,23.091-8.975,3.028,5.025-18.926,5.025-31.8.359-17.033,4.668-19.3,4.669-6.434,8.257-2.649-.717,2.649-.717,2.649" transform="translate(10.886 20.832)" fill="rgba(48,95,60,0.27)"/>
        </g>
        <g id="Group_50" data-name="Group 50" clip-path="url(#clip-path)">
          <path id="Path_33" data-name="Path 33" d="M443.4,175.146c1.255,8.135-.837,1.807,2.4,14.11s2.693,21.575,0,14.572-5.567-12.68-5.745-7.761-2.516,8.42,1.974,10.173,5.89-.9,6,4.022.671,8.894-4.367,5.11-7.015-13.248-8.99-5.677-3.773,5.109-.9,10.788,1.256,6.623,8.078,11.543,15.62,15.33,14.72,8.141-2.334-12.681,2.513-8.141,8.442,3.6,9.876,8.141,4.848,10.787,0,7.378-8.616-3.346-5.923.977-1.077,5.46,7.179,7.162.177,3.785,12.388,4.542,18.134.19,10.235-3.217-15.441-8.326-10.952-8.9,9.511,4.164,7.538-.569.179-.945-1.794-8.893-2.7-7,.537-9.085,7.363-1.515-.178-6.436-7.184-7.569-14.543-10.028-5.389-2.84-2.513-5.3,3.946-1.324-.9-7.571-7.184-9.274-8.62-13.626-1.615-3.407-5.742-6.435-7.509-3.627-9.633-4.544c-1.919-.825-2.64-.481-2.64-.481" transform="translate(31.408 12.721)" fill="#6c8773"/>
        </g>
      </g>
      <g id="Group_53" data-name="Group 53" clip-path="url(#clip-path)">
        <g id="Group_52" data-name="Group 52" transform="translate(522.531 175.251)" clip-path="url(#clip-path-52)">
          <rect id="Rectangle_48" data-name="Rectangle 48" width="106.451" height="107.109" transform="translate(-0.98)" fill="url(#linear-gradient-11)"/>
        </g>
      </g>
      <g id="Group_55" data-name="Group 55" clip-path="url(#clip-path)">
        <g id="Group_54" data-name="Group 54" transform="translate(101.039 107.371)" clip-path="url(#clip-path-54)">
          <path id="Path_35" data-name="Path 35" d="M95.241,391.211,85.113,101.188,411.75,89.781,421.877,379.8Z" transform="translate(-94.855 -100.848)" fill="url(#linear-gradient-12)"/>
        </g>
      </g>
      <g id="Group_57" data-name="Group 57" clip-path="url(#clip-path)">
        <g id="Group_56" data-name="Group 56" clip-path="url(#clip-path)">
          <path id="Path_37" data-name="Path 37" d="M50.562,153.527c.717,1.516-.181,5.3,2.513,5.111,3.231-.19.359-4.353,2.334-5.865,2.872-1.9,3.05,2.079,3.768,3.215,1.258,2.273,3.054,2.461,4.311-.756,1.8-3.975-3.952-10.221-7-12.3-3.287-2.307-6.162-4.479-7.084-8.506a40.3,40.3,0,0,0-2.061,3.6c1.533,2.218,3.3,3.96,2.682,7.373-.538,2.838-3.773,5.3-4.31,7.948-1.076,4.733,3.053,2.649,4.848.189" transform="translate(3.309 9.767)" fill="rgba(48,95,60,0.6)"/>
        </g>
      </g>
      <g id="Group_59" data-name="Group 59" clip-path="url(#clip-path)">
        <g id="Group_58" data-name="Group 58" transform="translate(344.982 142.867)" clip-path="url(#clip-path-58)">
          <path id="Path_38" data-name="Path 38" d="M300.53,249.84l23.178-128.206,89.5,16.181L390.03,266.021Z" transform="translate(-323.146 -134.03)" fill="url(#linear-gradient-13)"/>
        </g>
      </g>
      <g id="Group_61" data-name="Group 61" clip-path="url(#clip-path)">
        <g id="Group_60" data-name="Group 60" transform="translate(418.251 224.102)" clip-path="url(#clip-path-60)">
          <path id="Path_40" data-name="Path 40" d="M388.031,220.268l2.4-13.26,13.384,2.419-2.4,13.26Z" transform="translate(-390.057 -209.061)" fill="url(#linear-gradient-14)"/>
        </g>
      </g>
      <g id="Group_63" data-name="Group 63" clip-path="url(#clip-path)">
        <g id="Group_62" data-name="Group 62" transform="translate(635.215 241.435)" clip-path="url(#clip-path-62)">
          <rect id="Rectangle_55" data-name="Rectangle 55" width="18.009" height="24.023" transform="translate(0 0)" fill="url(#linear-gradient-15)"/>
        </g>
      </g>
      <g id="Group_108" data-name="Group 108" transform="translate(775.949 189.854)">
        <g id="Group_64" data-name="Group 64" clip-path="url(#clip-path-63)">
          <rect id="Rectangle_57" data-name="Rectangle 57" width="121.721" height="130.523" transform="translate(-0.134 0)" fill="url(#linear-gradient-16)"/>
        </g>
      </g>
      <g id="Group_109" data-name="Group 109" transform="translate(654.749 222.617)">
        <g id="Group_66" data-name="Group 66" clip-path="url(#clip-path-64)">
          <rect id="Rectangle_59" data-name="Rectangle 59" width="20.647" height="24.404" transform="translate(-0.9 0)" fill="url(#linear-gradient-17)"/>
        </g>
      </g>
      <g id="Group_69" data-name="Group 69" clip-path="url(#clip-path)">
        <g id="Group_68" data-name="Group 68" transform="translate(883.632 201.667)" clip-path="url(#clip-path-66)">
          <rect id="Rectangle_61" data-name="Rectangle 61" width="68.142" height="78.853" transform="translate(0 0)" fill="url(#linear-gradient-18)"/>
        </g>
      </g>
      <g id="Group_71" data-name="Group 71" clip-path="url(#clip-path)">
        <g id="Group_70" data-name="Group 70" transform="translate(937.771 163.239)" clip-path="url(#clip-path-68)">
          <rect id="Rectangle_63" data-name="Rectangle 63" width="40.667" height="51.401" transform="translate(0 0)" fill="url(#linear-gradient-19)"/>
        </g>
      </g>
      <g id="Group_73" data-name="Group 73" clip-path="url(#clip-path)">
        <g id="Group_72" data-name="Group 72" transform="translate(956.356 134.907)" clip-path="url(#clip-path-70)">
          <rect id="Rectangle_65" data-name="Rectangle 65" width="33.038" height="27.371" transform="translate(0 0)" fill="url(#linear-gradient-20)"/>
        </g>
      </g>
      <g id="Group_75" data-name="Group 75" clip-path="url(#clip-path)">
        <g id="Group_74" data-name="Group 74" transform="translate(999.138 137.354)" clip-path="url(#clip-path-72)">
          <rect id="Rectangle_67" data-name="Rectangle 67" width="22.981" height="32.007" transform="translate(-2.478 0)" fill="url(#linear-gradient-21)"/>
        </g>
      </g>
      <g id="Group_77" data-name="Group 77" clip-path="url(#clip-path)">
        <g id="Group_76" data-name="Group 76" transform="translate(1015.757 105.761)" clip-path="url(#clip-path-74)">
          <rect id="Rectangle_69" data-name="Rectangle 69" width="76.112" height="110.476" transform="translate(0 0)" fill="url(#linear-gradient-22)"/>
        </g>
      </g>
      <g id="Group_79" data-name="Group 79" clip-path="url(#clip-path)">
        <g id="Group_78" data-name="Group 78" transform="translate(1097.874 173.345)" clip-path="url(#clip-path-22)">
          <rect id="Rectangle_71" data-name="Rectangle 71" width="12.491" height="8.661" transform="translate(-0.009)" fill="url(#linear-gradient-23)"/>
        </g>
      </g>
      <g id="Group_87" data-name="Group 87" clip-path="url(#clip-path)">
        <g id="Group_80" data-name="Group 80" clip-path="url(#clip-path)">
          <path id="Path_51" data-name="Path 51" d="M1055.183,190.342c5.546,1.415,3.411,1.325,5.745,3.786s.9,3.973,5.744,4.175,2.154-.2,4.31,3.963,2.691,8.138,6.1,17.6,5.387-2.082,2.874-6.812-1.8-5.3.9-3.6,3.769,1.136,9.335,6.057,2.513-3.407-2.514-7.38-3.23-5.3-7.9-9.276-2.514-6.436-4.309-12.16,1.077-4.874-4.846-6.791.358,4.567-3.773,6.475c-3.74,1.729-.551-1.639-4.946-8.76-6.584,2.867-6.248,5.762-10.347,9.3-.894.77-1.713,1.482-2.466,2.149.395,1.034,2.669.4,6.091,1.273" transform="translate(76.225 12.906)" fill="#4d7558"/>
        </g>
        <g id="Group_81" data-name="Group 81" clip-path="url(#clip-path)">
          <path id="Path_52" data-name="Path 52" d="M1079.868,189.951c4.488,2.272,2.693,1.7,8.8,2.082s6.285-.946,1.794-4.354-5.709-2.562-6.1-7.191c-.163-1.91-.232-3.507-.457-4.767a14.381,14.381,0,0,0-5.846-1.47c-.021.1-.03.178-.03.178.407,8.9-2.639,13.249,1.845,15.521" transform="translate(78.281 12.661)" fill="#4d7558"/>
        </g>
        <g id="Group_82" data-name="Group 82" clip-path="url(#clip-path)">
          <path id="Path_53" data-name="Path 53" d="M1090.85,177.179a8.231,8.231,0,0,0,.874.956c3.77,3.6,4.486,4.542,8.256,2.082s8.014-2.5,3.591-5.869a35.741,35.741,0,0,1-4.307-3.888,24.522,24.522,0,0,1-4.031,3.888,21.552,21.552,0,0,1-4.384,2.831" transform="translate(79.259 12.385)" fill="#6c8773"/>
        </g>
        <g id="Group_83" data-name="Group 83" clip-path="url(#clip-path)">
          <path id="Path_54" data-name="Path 54" d="M1152.838,207.434a11.372,11.372,0,0,1-.026-3.5c-.832-5.132-1.636-10.272-2.5-15.4-2.128-.454-4.574-2.035-11.395-2.376-11.309-.567-3.59-1.514-8.079-3.216s-1.973,2.079.54,5.866,2.873,4.353-.54,6.812-1.436,2.27,1.258,5.679,3.59.566,3.231,4.92.716,4.354,4.129,6.816,1.8,3.784,5.026,6.053,1.976.381,4.489,11.358-.719,4.163,0,9.841c.364,2.875.822,3.856,1.742,4.593,2.273-10.237,3.838-20.527,3-30.853-.238-2.2-.517-4.4-.871-6.6" transform="translate(81.985 13.262)" fill="#6c8773"/>
        </g>
        <g id="Group_84" data-name="Group 84" clip-path="url(#clip-path)">
          <path id="Path_55" data-name="Path 55" d="M1178.829,238.1c-2.408-7.419-1.518-4.292-2.708-9.362a60.2,60.2,0,0,0-7.913-2.694c.132,9.949-.379,19.9-1.176,29.884,1.526-.276.225-.623,2.643,2.213,3.232,3.782,1.257,5.865,1.437,16.274s-.18,4.734,2.691,4.354,2.154-3.219,2.691-5.869-1.255-6.624,2.875-10.03,3.052-2.461,2.873-9.653-3.413-15.117-3.413-15.117" transform="translate(84.794 16.424)" fill="#6c8773"/>
        </g>
        <g id="Group_85" data-name="Group 85" clip-path="url(#clip-path)">
          <path id="Path_56" data-name="Path 56" d="M1162.8,171.482c-.538,3.407,0,3.6,1.8,8.327s8.617,1.893,6.463,7.193c-1.574,3.869-3.341,4.013-5.857,5.719,1.082,6.682,2.113,13.374,3.31,20.03a10.234,10.234,0,0,1-.3,4.991c.03.344.045.689.073,1.033.269.019.538.03.809.074a41.854,41.854,0,0,1,6.15,1.529c.232-5.091,1.167.581,2.1-3.852,1.078-5.109,1.795-1.324,2.872-4.921s-.9-.756.179-3.594c.914-2.408,3.77-1.283,7.355-1.807,2.627-2.452,3.7-5.994,4.271-9.573-.642-2.594-2.727-4.081-7.854-7.923-6.823-5.111-3.054-4.731-7.182-12.684s-3.771-9.463-5.745-15.139-.538-5.11-6.285-13.627c0,0-1.255-2.649-3.051-2.27s-1.257,2.27-3.412,9.841c-.311,1.1-.545,2.054-.722,2.922.077.209.156.415.221.637,1.078,3.657,2.012,7.346,2.856,11.052,1.311.722,2.351-.469,1.954,2.044" transform="translate(84.121 10.532)" fill="#6c8773"/>
        </g>
        <g id="Group_86" data-name="Group 86" clip-path="url(#clip-path)">
          <path id="Path_57" data-name="Path 57" d="M1120.21,154.346c.716,1.515-.18,5.3,2.513,5.113,3.231-.193.359-4.356,2.334-5.87,2.871-1.893,3.051,2.081,3.768,3.217,1.258,2.272,3.054,2.46,4.31-.756,1.8-3.974-3.951-10.22-7-12.3-3.287-2.307-6.162-4.48-7.085-8.507a40.743,40.743,0,0,0-2.06,3.6c1.534,2.218,3.3,3.96,2.682,7.372-.537,2.841-3.772,5.3-4.309,7.949-1.074,4.733,3.045,2.649,4.847.189" transform="translate(81.028 9.826)" fill="#6c8773"/>
        </g>
      </g>
      <g id="Group_89" data-name="Group 89" clip-path="url(#clip-path)">
        <g id="Group_88" data-name="Group 88" transform="translate(1492.256 142.046)" clip-path="url(#clip-path-86)">
          <path id="Path_58" data-name="Path 58" d="M1370.09,249.077l23.18-128.209,89.5,16.181-23.18,128.209Z" transform="translate(-1392.708 -133.264)" fill="url(#linear-gradient-24)"/>
        </g>
      </g>
      <g id="Group_91" data-name="Group 91" clip-path="url(#clip-path)">
        <g id="Group_90" data-name="Group 90" transform="translate(1565.526 223.282)" clip-path="url(#clip-path-88)">
          <path id="Path_60" data-name="Path 60" d="M1457.59,219.5l2.4-13.26,13.387,2.419-2.4,13.26Z" transform="translate(-1459.62 -208.297)" fill="url(#linear-gradient-25)"/>
        </g>
      </g>
      <g id="Group_93" data-name="Group 93" clip-path="url(#clip-path)">
        <g id="Group_92" data-name="Group 92" transform="translate(588.047 306.955)" clip-path="url(#clip-path-90)">
          <path id="Path_62" data-name="Path 62" d="M540.414,392.777l8.34-106.3,88.419-4.571-8.34,106.3Z" transform="translate(-548.781 -286.473)" fill="url(#linear-gradient-26)"/>
        </g>
      </g>
      <g id="Group_95" data-name="Group 95" clip-path="url(#clip-path)">
        <g id="Group_94" data-name="Group 94" transform="translate(1744.432 178.768)" clip-path="url(#clip-path-92)">
          <rect id="Rectangle_84" data-name="Rectangle 84" width="35.071" height="68.311" transform="translate(0 -0.002)" fill="url(#linear-gradient-27)"/>
        </g>
      </g>
      <g id="Group_97" data-name="Group 97" clip-path="url(#clip-path)">
        <g id="Group_96" data-name="Group 96" transform="translate(1530.042 336.464)" clip-path="url(#clip-path-94)">
          <path id="Path_65" data-name="Path 65" d="M1426.426,320.319l-.236-6.631,3.3-.115.225,6.631Z" transform="translate(-1426.418 -313.68)" fill="url(#linear-gradient-28)"/>
        </g>
      </g>
      <g id="Group_99" data-name="Group 99" clip-path="url(#clip-path)">
        <g id="Group_98" data-name="Group 98" transform="translate(1248.494 106.944)" clip-path="url(#clip-path-96)">
          <path id="Path_67" data-name="Path 67" d="M1164.966,390.6,1154.84,100.776l320.95-11.207,10.115,289.825Z" transform="translate(-1164.585 -100.436)" fill="url(#linear-gradient-29)"/>
        </g>
      </g>
      <g id="Group_101" data-name="Group 101" clip-path="url(#clip-path)">
        <g id="Group_100" data-name="Group 100" transform="translate(1088.563 181.864)" clip-path="url(#clip-path-98)">
          <path id="Path_69" data-name="Path 69" d="M1015.958,356.281,990.9,174.129l191.141-26.3,25.057,182.151Z" transform="translate(-1016.566 -171.123)" fill="url(#linear-gradient-30)"/>
        </g>
      </g>
      <g id="Group_104" data-name="Group 104" clip-path="url(#clip-path)">
        <g id="Group_102" data-name="Group 102" clip-path="url(#clip-path)">
          <path id="Path_71" data-name="Path 71" d="M1057.668,241.047a134.443,134.443,0,0,1,2.537,18.592c.507,9.3,4.566,17.162,5.581,24.314s-8.118-2.861-8.118-2.861L1052.6,276.8l-4.06,4.291a24.194,24.194,0,0,1,2.538-13.586c3.55-6.436.507-35.756,2.536-37.186s7.611,1.43,9.133,6.436a64.128,64.128,0,0,1,2.029,11.442Z" transform="translate(76.175 16.708)" fill="#fff"/>
        </g>
        <g id="Group_103" data-name="Group 103" clip-path="url(#clip-path)">
          <path id="Path_72" data-name="Path 72" d="M1092.3,263.271c2.87,5.39,0,16.369,3.591,19.208s0,14.242,0,14.6-7.181.165-3.591-7.217-3.546-15.9-3.568-21.2,3.568-5.39,3.568-5.39" transform="translate(79.105 19.129)" fill="#fff"/>
        </g>
      </g>
      <g id="Group_106" data-name="Group 106" clip-path="url(#clip-path)">
        <g id="Group_105" data-name="Group 105" transform="translate(1695.37 232.993)" clip-path="url(#clip-path-103)">
          <rect id="Rectangle_92" data-name="Rectangle 92" width="87.319" height="123.948" transform="translate(-2.533 0)" fill="url(#linear-gradient-31)"/>
        </g>
      </g>
    </g>
  </g>
</svg>
