<svg width="28" height="27" viewBox="0 0 28 27" fill="none" xmlns="http://www.w3.org/2000/svg">
<path d="M14.003 7.07351C10.1721 7.07351 7.0821 10.0601 7.0821 13.7627C7.0821 17.4654 10.1721 20.4519 14.003 20.4519C17.8339 20.4519 20.9239 17.4654 20.9239 13.7627C20.9239 10.0601 17.8339 7.07351 14.003 7.07351ZM14.003 18.1116C11.5274 18.1116 9.50351 16.1613 9.50351 13.7627C9.50351 11.3642 11.5214 9.41387 14.003 9.41387C16.4847 9.41387 18.5025 11.3642 18.5025 13.7627C18.5025 16.1613 16.4786 18.1116 14.003 18.1116ZM22.8213 6.79989C22.8213 7.66733 22.0985 8.36012 21.207 8.36012C20.3095 8.36012 19.5928 7.66151 19.5928 6.79989C19.5928 5.93827 20.3156 5.23965 21.207 5.23965C22.0985 5.23965 22.8213 5.93827 22.8213 6.79989ZM27.4051 8.38341C27.3027 6.29339 26.8088 4.44207 25.2247 2.91677C23.6465 1.39146 21.7311 0.914075 19.5687 0.809283C17.34 0.687026 10.66 0.687026 8.43134 0.809283C6.27496 0.908253 4.35951 1.38564 2.77535 2.91094C1.19119 4.43625 0.703291 6.28757 0.594869 8.37759C0.468377 10.5316 0.468377 16.988 0.594869 19.142C0.697267 21.2321 1.19119 23.0834 2.77535 24.6087C4.35951 26.134 6.26893 26.6114 8.43134 26.7162C10.66 26.8384 17.34 26.8384 19.5687 26.7162C21.7311 26.6172 23.6465 26.1398 25.2247 24.6087C26.8028 23.0834 27.2967 21.2321 27.4051 19.142C27.5316 16.988 27.5316 10.5375 27.4051 8.38341ZM24.5259 21.4533C24.0561 22.5944 23.1466 23.4734 21.96 23.9334C20.183 24.6145 15.9666 24.4573 14.003 24.4573C12.0394 24.4573 7.81695 24.6087 6.04607 23.9334C4.86548 23.4793 3.95594 22.6002 3.48009 21.4533C2.77535 19.7359 2.93798 15.6606 2.93798 13.7627C2.93798 11.8648 2.78137 7.78377 3.48009 6.07217C3.94992 4.9311 4.85945 4.05201 6.04607 3.59209C7.82298 2.91094 12.0394 3.06813 14.003 3.06813C15.9666 3.06813 20.1891 2.91677 21.96 3.59209C23.1405 4.04619 24.0501 4.92528 24.5259 6.07217C25.2307 7.78959 25.068 11.8648 25.068 13.7627C25.068 15.6606 25.2307 19.7417 24.5259 21.4533Z" fill="#000000"/>
</svg>
