<svg width="15" height="28" viewBox="0 0 15 28" fill="none" xmlns="http://www.w3.org/2000/svg">
<path d="M12.625 6.5V20.875C12.625 23.6375 10.3875 25.875 7.625 25.875C4.8625 25.875 2.625 23.6375 2.625 20.875V5.25C2.625 3.525 4.025 2.125 5.75 2.125C7.475 2.125 8.875 3.525 8.875 5.25V18.375C8.875 19.0625 8.3125 19.625 7.625 19.625C6.9375 19.625 6.375 19.0625 6.375 18.375V6.5H4.5V18.375C4.5 20.1 5.9 21.5 7.625 21.5C9.35 21.5 10.75 20.1 10.75 18.375V5.25C10.75 2.4875 8.5125 0.25 5.75 0.25C2.9875 0.25 0.75 2.4875 0.75 5.25V20.875C0.75 24.675 3.825 27.75 7.625 27.75C11.425 27.75 14.5 24.675 14.5 20.875V6.5H12.625Z" fill="#F7F7F7"/>
</svg>
