<svg width="25" height="25" viewBox="0 0 25 25" fill="none" xmlns="http://www.w3.org/2000/svg">
<path d="M22.7956 6.07911C19.1956 0.529113 11.8456 -1.12089 6.14562 2.32911C0.595616 5.77911 -1.20438 13.2791 2.39562 18.8291L2.69562 19.2791L1.49562 23.7791L5.99562 22.5791L6.44562 22.8791C8.39562 23.9291 10.4956 24.5291 12.5956 24.5291C14.8456 24.5291 17.0956 23.9291 19.0456 22.7291C24.5956 19.1291 26.2456 11.7791 22.7956 6.07911ZM19.6456 17.6291C19.0456 18.5291 18.2956 19.1291 17.2456 19.2791C16.6456 19.2791 15.8956 19.5791 12.8956 18.3791C10.3456 17.1791 8.24562 15.2291 6.74562 12.9791C5.84562 11.9291 5.39562 10.5791 5.24562 9.22911C5.24562 8.02911 5.69562 6.97911 6.44562 6.22911C6.74562 5.92911 7.04562 5.77911 7.34562 5.77911H8.09562C8.39562 5.77911 8.69562 5.77911 8.84562 6.37911C9.14562 7.12911 9.89562 8.92911 9.89562 9.07911C10.0456 9.22911 10.0456 9.52911 9.89562 9.67912C10.0456 9.97912 9.89562 10.2791 9.74562 10.4291C9.59562 10.5791 9.44562 10.8791 9.29562 11.0291C8.99562 11.1791 8.84562 11.4791 8.99562 11.7791C9.59562 12.6791 10.3456 13.5791 11.0956 14.3291C11.9956 15.0791 12.8956 15.6791 13.9456 16.1291C14.2456 16.2791 14.5456 16.2791 14.6956 15.9791C14.8456 15.6791 15.5956 14.9291 15.8956 14.6291C16.1956 14.3291 16.3456 14.3291 16.6456 14.4791L19.0456 15.6791C19.3456 15.8291 19.6456 15.9791 19.7956 16.1291C19.9456 16.5791 19.9456 17.1791 19.6456 17.6291Z" fill="#A4A4A4"/>
</svg>
