<svg width="18" height="14" viewBox="0 0 18 14" fill="none" xmlns="http://www.w3.org/2000/svg">
<path d="M17.9586 1.6469C17.3102 1.93098 16.6224 2.11723 15.918 2.19942C16.6602 1.76066 17.2156 1.06995 17.4807 0.256089C16.7834 0.665338 16.0204 0.953629 15.2248 1.10849C14.6892 0.54482 13.9807 0.171497 13.2088 0.046343C12.437 -0.0788109 11.645 0.0511876 10.9554 0.416206C10.2658 0.781224 9.71723 1.36089 9.39452 2.06544C9.07181 2.76999 8.99301 3.5601 9.17033 4.31342C7.7577 4.24358 6.37572 3.88067 5.11415 3.24826C3.85257 2.61586 2.73963 1.7281 1.8476 0.642651C1.39307 1.4161 1.25375 2.33179 1.45799 3.20327C1.66223 4.07474 2.19468 4.83647 2.94693 5.33335C2.38307 5.31598 1.83165 5.16514 1.33893 4.89348C1.33893 4.90849 1.33893 4.92327 1.33893 4.93828C1.33933 5.7494 1.62329 6.53544 2.1427 7.16321C2.66211 7.79097 3.38502 8.22186 4.18894 8.38284C3.66583 8.52336 3.11722 8.54412 2.58479 8.44353C2.81172 9.14124 3.25343 9.75138 3.84819 10.1887C4.44295 10.626 5.16102 10.8685 5.90202 10.8825C4.41123 12.0346 2.52046 12.5574 0.641602 12.3371C2.26571 13.3697 4.15625 13.9177 6.08706 13.9156C12.6216 13.9156 16.1953 8.56291 16.1953 3.91946C16.1953 3.76717 16.1918 3.6157 16.1848 3.46504C16.8807 2.9682 17.4811 2.35241 17.9579 1.64668L17.9586 1.6469Z" fill="#ffffff"/>
</svg>
