<svg width="13" height="24" viewBox="0 0 13 24" fill="none" xmlns="http://www.w3.org/2000/svg">
<path d="M12.5 0H9.375C5.875 0 3.625 2.30949 3.625 5.89857V8.61378H0.5C0.21875 8.61378 0 8.83225 0 9.11313V13.0455C0 13.3264 0.21875 13.5449 0.5 13.5449H3.625V23.5007C3.625 23.7815 3.84375 24 4.125 24H8.21875C8.5 24 8.71875 23.7815 8.71875 23.5007V13.5449H12.375C12.6562 13.5449 12.875 13.3264 12.875 13.0455V9.11313C12.875 8.9883 12.8125 8.86346 12.7188 8.76983C12.625 8.6762 12.5 8.61378 12.375 8.61378H8.6875V6.30429C8.6875 5.18075 8.9375 4.61899 10.4062 4.61899H12.5C12.7812 4.61899 13 4.40052 13 4.11964V0.49935C13 0.218466 12.7812 0 12.5 0Z" fill="#A4A4A4"/>
</svg>
