<svg width="22" height="15" viewBox="0 0 22 15" fill="none" xmlns="http://www.w3.org/2000/svg">
<path fill-rule="evenodd" clip-rule="evenodd" d="M8.98561 9.8085V4.08349L14.5131 6.95599L8.98561 9.8085ZM21.1233 3.09139C21.1233 3.09139 20.9231 1.68729 20.31 1.06867C19.5308 0.256693 18.6598 0.25284 18.2602 0.205884C15.3971 -1.14822e-07 11.1026 0 11.1026 0H11.0936C11.0936 0 6.79894 8.61168e-08 3.93583 0.206366C3.53551 0.254526 2.66401 0.257415 1.88528 1.06915C1.27214 1.68753 1.07271 3.09187 1.07271 3.09187C0.945388 4.18659 0.87711 5.28724 0.868164 6.38914V7.93508C0.877063 9.03714 0.945341 10.138 1.07271 11.2328C1.07271 11.2328 1.27214 12.6369 1.88528 13.2556C2.66449 14.0675 3.68721 14.042 4.14159 14.1268C5.77842 14.2833 11.098 14.3317 11.098 14.3317C11.098 14.3317 15.3971 14.3254 18.2602 14.1191C18.6598 14.0709 19.532 14.0675 20.31 13.2556C20.9231 12.6372 21.1233 11.2328 21.1233 11.2328C21.2507 10.138 21.3189 9.03714 21.3278 7.93508V6.38914C21.3189 5.28708 21.2506 4.18627 21.1233 3.09139Z" fill="#ffffff"/>
</svg>
