<svg width="20" height="19" viewBox="0 0 20 19" fill="none" xmlns="http://www.w3.org/2000/svg">
<path d="M14.0652 0H5.75811C4.40157 0.00156006 3.10104 0.535169 2.14184 1.48376C1.18265 2.43236 0.64311 3.71847 0.641602 5.05995L0.641602 13.2745C0.642905 14.6161 1.18235 15.9024 2.14157 16.8512C3.10079 17.8 4.40143 18.3337 5.75811 18.3352H14.0652C15.422 18.3339 16.7229 17.8003 17.6824 16.8516C18.6418 15.9028 19.1814 14.6163 19.1827 13.2745V5.05995C19.1812 3.71829 18.6415 2.43202 17.6821 1.4834C16.7227 0.534778 15.4219 0.00128877 14.0652 0V0ZM17.5377 13.2745C17.5369 14.185 17.1707 15.058 16.5197 15.7018C15.8687 16.3456 14.9859 16.7076 14.0652 16.7085H5.75811C4.83737 16.7077 3.95457 16.3457 3.30351 15.7019C2.65245 15.058 2.28636 14.185 2.2856 13.2745V5.05995C2.28642 4.14946 2.65254 3.27649 3.30358 2.63268C3.95463 1.98886 4.8374 1.62681 5.75811 1.626H14.0652C14.9859 1.62681 15.8687 1.98886 16.5197 2.63268C17.1707 3.27649 17.5369 4.14946 17.5377 5.05995V13.2745Z" fill="#ffffff"/>
<path d="M9.91116 4.44336C8.96629 4.44356 8.0427 4.72082 7.25718 5.24008C6.47165 5.75934 5.85946 6.49727 5.49802 7.36058C5.13657 8.22388 5.04211 9.17379 5.22657 10.0902C5.41103 11.0066 5.86613 11.8483 6.53432 12.5089C7.20252 13.1696 8.0538 13.6194 8.98052 13.8016C9.90725 13.9839 10.8678 13.8902 11.7407 13.5326C12.6136 13.175 13.3597 12.5695 13.8847 11.7925C14.4096 11.0156 14.6897 10.1022 14.6897 9.16785C14.6883 7.9151 14.1844 6.71408 13.2885 5.82834C12.3926 4.94261 11.178 4.44451 9.91116 4.44336ZM9.91116 12.2653C9.29164 12.2651 8.68609 12.0833 8.17108 11.7427C7.65608 11.4022 7.25473 10.9183 7.01781 10.3523C6.78088 9.78621 6.71901 9.16338 6.84002 8.56254C6.96102 7.9617 7.25948 7.40983 7.69763 6.97672C8.13579 6.54361 8.69398 6.2487 9.30161 6.12929C9.90925 6.00987 10.539 6.07131 11.1114 6.30584C11.6837 6.54037 12.1729 6.93746 12.517 7.44689C12.8611 7.95632 13.0448 8.55521 13.0447 9.16785C13.0438 9.98931 12.7133 10.7768 12.1258 11.3576C11.5384 11.9383 10.7418 12.2648 9.91116 12.2653Z" fill="#ffffff"/>
<path d="M14.8903 3.06421C14.6113 3.06437 14.3411 3.16015 14.1256 3.33525C13.91 3.51034 13.7626 3.75391 13.7083 4.02447C13.654 4.29503 13.6962 4.57584 13.8278 4.81906C13.9593 5.06228 14.1721 5.25287 14.4298 5.35836C14.6876 5.46385 14.9743 5.47772 15.2412 5.3976C15.5081 5.31748 15.7387 5.14833 15.8936 4.91897C16.0486 4.6896 16.1183 4.41421 16.0909 4.1397C16.0636 3.86519 15.9409 3.60855 15.7436 3.4135C15.517 3.19019 15.2102 3.06462 14.8903 3.06421Z" fill="#ffffff"/>
</svg>
