<svg width="214" height="122" viewBox="0 0 214 122" fill="none" xmlns="http://www.w3.org/2000/svg">
<path d="M105.15 24.5592C105.15 24.5592 136.979 30.9636 172.3 14.7328" stroke="white" stroke-width="0.75" stroke-miterlimit="10"/>
<path d="M172.313 17.5639L170.911 20.45L170.678 21.7419C170.018 22.003 169.193 22.3053 168.259 22.6352C166.033 23.4323 164.644 24.7517 164.644 24.7517L162.404 18.6634C162.404 18.6634 164.273 18.2098 165.909 17.454C167.558 16.6981 171.379 15.1313 171.379 15.1313L172.313 17.5639Z" fill="#EBA934"/>
<path d="M105.906 24.6278L109.768 35.9523C109.768 35.9523 114.99 33.8358 117.945 34.3031C120.9 34.7841 126.177 34.3855 126.644 34.2206L124.679 25.741C124.679 25.741 115.086 25.9334 112.585 25.7135C110.07 25.5211 105.906 24.6278 105.906 24.6278Z" fill="#298ED7"/>
<path d="M127.222 25.6312L129.929 33.7809C129.929 33.7809 133.173 32.4891 135.852 32.8601C138.532 33.2175 140.566 32.7502 141.13 32.6677L139.687 24.3256C139.687 24.3256 129.146 25.6999 128.596 25.5625C128.046 25.4388 127.222 25.6312 127.222 25.6312Z" fill="#EFEFEF"/>
<path d="M141.721 23.8582L143.521 32.0767C143.521 32.0767 147.108 30.3038 149.252 30.2626C151.396 30.2214 153.32 28.8745 153.32 28.8745L151.671 21.9617C151.671 21.9617 148.469 22.9787 145.473 23.5421C142.669 24.0644 141.721 23.8582 141.721 23.8582Z" fill="#D8323A"/>
<path d="M152.551 21.9755L154.832 28.0912C154.832 28.0912 156.701 26.7032 158.281 26.6894C159.862 26.6757 162.776 25.2601 162.776 25.2601L160.439 19.2955C160.439 19.2955 157.21 20.7248 155.148 20.931C153.087 21.1509 152.551 21.9755 152.551 21.9755Z" fill="#27A845"/>
<path d="M205.82 60.3743C204.926 57.7906 203.758 55.303 202.287 53.0079C200.831 50.7128 199.017 48.6375 196.873 46.9608C194.742 45.2842 192.296 44.0473 189.726 43.1814C188.448 42.7416 187.129 42.4118 185.796 42.1507C184.462 41.8758 183.102 41.7384 181.755 41.5322L181.549 41.5047L181.521 41.3261C181.453 40.7214 181.453 40.2129 181.439 39.6632L181.425 38.0414L181.439 36.4197L181.453 35.6089C181.466 35.3203 181.466 35.1004 181.521 34.743L181.563 34.4544L181.879 34.5232L183.143 34.8255L182.758 35.1279L182.745 31.9257L183.061 32.2555L181.686 32.2005L181.37 32.1868V31.8707L181.356 29.823L181.604 30.1528L181.054 29.9879L180.807 29.9192V29.658V28.0226L181.04 28.3524L180.587 28.2012L180.353 28.1188V27.8714V26.5383L180.614 26.8819L180.106 26.7445L179.845 26.6757V26.4009V25.1227L180.106 25.4663L179.556 25.3151L179.295 25.2464V24.9716V24.3531V24.2019C179.295 24.1745 179.295 24.1607 179.295 24.147L179.281 24.1057C179.267 24.0783 179.254 24.037 179.254 24.0508C179.267 24.0508 179.226 24.0783 179.419 24.1607C179.432 24.1607 179.35 24.147 179.322 24.1332C179.226 24.1057 179.103 24.037 179.02 23.9133C178.938 23.7896 178.91 23.666 178.91 23.5835C178.896 23.4186 178.91 23.3499 178.91 23.2262V22.5802L179.158 22.9238L178.704 22.7726L178.457 22.6902V22.4291V22.0442C178.457 21.9068 178.457 21.7831 178.443 21.7007L178.429 21.6594C178.429 21.6732 178.429 21.6732 178.47 21.7281C178.498 21.7556 178.512 21.7694 178.539 21.7831C178.58 21.8106 178.663 21.8244 178.635 21.8244L178.594 21.8106C178.498 21.7831 178.36 21.7419 178.25 21.6182C178.127 21.4945 178.086 21.3296 178.072 21.2196C178.058 21.1097 178.072 21.041 178.072 20.9723C178.072 20.9173 178.044 20.7111 178.044 20.6287C178.044 20.6149 178.031 20.5875 178.044 20.6149C178.058 20.6287 178.044 20.6699 178.182 20.7524C178.195 20.7661 178.223 20.7661 178.223 20.7661H178.209H178.195L178.154 20.7524C178.058 20.7111 177.934 20.6424 177.838 20.5187C177.646 20.2301 177.714 19.9965 177.701 19.9003V19.8316L177.687 19.7354L177.673 19.5292L177.893 19.8453L177.591 19.7079L177.44 19.6392L177.385 19.488L176.931 18.0999L177.151 18.3336L176.904 18.2374L176.766 18.1824L176.697 18.0449C176.423 17.4677 176.326 16.8218 176.313 16.2308C176.299 15.6261 176.354 15.0627 176.326 14.5267L176.313 14.3068L176.505 14.1831C176.835 13.9632 177.233 13.7708 177.508 13.5509C177.783 13.3173 177.976 13.0424 178.044 12.7263C178.086 12.5614 178.086 12.3965 178.086 12.204V11.5719V10.3075V9.67528C178.086 9.45539 178.086 9.31795 178.044 9.13929C177.976 8.8232 177.797 8.54833 177.522 8.34218C177.22 8.12229 176.876 7.92988 176.505 7.75122C176.313 7.65502 176.175 7.60004 175.983 7.54507L175.378 7.38015L175.131 7.31143L175.103 7.05031L174.43 0.687165L175.021 1.00326C174.938 1.04449 174.87 1.08572 174.801 1.11321L174.746 1.14069C174.746 1.14069 174.76 1.14069 174.801 1.09946C174.842 1.07198 174.883 0.948287 174.87 0.989517C174.842 1.07198 174.828 1.19567 174.815 1.31936L174.732 2.13021L174.554 3.76566L174.375 5.40111C174.32 5.95085 174.265 6.50058 174.169 7.06405L174.127 7.32518L173.88 7.38015C173.083 7.55881 172.341 7.80619 171.805 8.30095C171.544 8.53459 171.351 8.8232 171.269 9.13929C171.228 9.30421 171.214 9.46913 171.214 9.64779V10.28V11.5444V12.1628C171.214 12.3415 171.228 12.5064 171.269 12.6713C171.351 13.0012 171.544 13.276 171.819 13.5097C172.08 13.7296 172.478 13.922 172.822 14.1419L173.014 14.2518V14.4579V16.1896V16.6156V16.8355C173.014 16.9317 173.001 17.0279 172.973 17.1241C172.959 17.1791 172.946 17.2203 172.932 17.2753L172.891 17.3715L172.808 17.5777L172.629 17.99L172.574 18.1274L172.437 18.1824L172.217 18.2786L172.423 18.0587L171.984 19.4193L171.942 19.5705L171.805 19.6392L171.503 19.7903L171.695 19.5155C171.681 19.6117 171.681 19.7354 171.667 19.8865C171.667 19.9553 171.667 20.0377 171.64 20.1339C171.626 20.1752 171.626 20.2439 171.599 20.3126C171.585 20.3538 171.571 20.3951 171.516 20.45C171.503 20.4775 171.475 20.505 171.434 20.5325C171.406 20.56 171.351 20.5875 171.365 20.5875C171.296 20.6287 171.31 20.6149 171.31 20.6424C171.296 20.6699 171.31 20.8073 171.296 20.9998C171.283 21.1097 171.269 21.1509 171.255 21.2471C171.241 21.2884 171.228 21.3296 171.214 21.3846C171.2 21.4121 171.2 21.4395 171.173 21.4808C171.145 21.522 171.131 21.5632 171.035 21.6457C171.008 21.6732 170.829 21.7281 170.87 21.7144H170.857C170.843 21.7144 170.843 21.7144 170.843 21.7144C170.843 21.7144 170.843 21.7144 170.857 21.7007C170.884 21.6732 170.912 21.6182 170.898 21.6319V22.3878V22.649L170.65 22.7314L170.183 22.8826L170.431 22.539V23.6522V23.8996L170.197 23.982L169.771 24.147L170.004 23.8171V24.9166V25.1777L169.757 25.2602L169.221 25.4388L169.468 25.109V26.3734V26.6482L169.207 26.717L168.713 26.8544L168.974 26.5108V27.3766C168.987 27.5553 168.987 27.8027 168.795 28.0501C168.589 28.2837 168.328 28.3249 168.135 28.3387L168.465 27.9951V29.658V29.9192L168.218 29.9879L167.682 30.139L167.929 29.8092L167.916 31.8982V32.2418H167.586L166.211 32.228L166.541 31.8982L166.527 35.1279L166.143 34.8255L167.476 34.5232L167.847 34.4407V34.8255L167.806 41.2986V41.5322L167.586 41.5597C164.865 41.8896 162.198 42.3293 159.615 43.2089C157.045 44.0747 154.612 45.3254 152.468 46.9883C150.352 48.665 148.455 50.6853 147.136 53.0766C145.775 55.4405 144.593 57.9005 143.535 60.4155C144.552 57.8868 145.679 55.3855 146.998 52.9941C147.328 52.3894 147.685 51.8122 148.07 51.235C148.455 50.6715 148.881 50.1218 149.335 49.6133C150.228 48.5688 151.217 47.6068 152.276 46.7409C154.42 45.0093 156.88 43.6899 159.477 42.7966C162.075 41.8758 164.81 41.3948 167.503 41.0375L167.283 41.2986L167.242 34.8255L167.613 35.1141L166.28 35.4302L165.909 35.5127V35.1279L165.895 31.8982V31.5683H166.225L167.599 31.5546L167.27 31.8844L167.256 29.7955V29.5343L167.503 29.4656L168.039 29.3144L167.792 29.6443V27.9813V27.6515L168.122 27.6378C168.232 27.6378 168.287 27.5965 168.273 27.5965C168.273 27.6103 168.3 27.5416 168.287 27.4179L168.273 26.4971V26.2359L168.534 26.1672L169.029 26.0298L168.768 26.3734V25.109V24.8479L169.015 24.7654L169.551 24.5868L169.304 24.9303V23.8309V23.5835L169.537 23.501L169.963 23.3361L169.73 23.666V22.5527V22.2916L169.977 22.2092L170.444 22.058L170.197 22.4016V21.5632C170.197 21.4533 170.266 21.2609 170.403 21.1509C170.472 21.096 170.54 21.0685 170.595 21.041C170.623 21.0272 170.65 21.0135 170.678 21.0135L170.719 20.9998C170.774 20.986 170.609 21.0272 170.609 21.0547C170.54 21.1097 170.54 21.1234 170.527 21.1372L170.54 21.0822C170.554 21.041 170.568 20.9585 170.568 20.931C170.582 20.8623 170.554 20.7111 170.595 20.4913C170.623 20.3813 170.678 20.2439 170.76 20.1477C170.843 20.0515 170.939 19.9965 171.021 19.9415C171.049 19.9278 171.008 19.9415 170.994 19.9553C170.967 19.969 170.953 19.9827 170.953 19.9965C170.925 20.024 170.925 20.0377 170.925 20.0515C170.925 20.0652 170.925 20.0515 170.925 20.0377C170.925 19.9965 170.939 19.9415 170.939 19.8865C170.939 19.7629 170.939 19.6254 170.967 19.4605L170.994 19.2681L171.159 19.1719L171.461 19.0207L171.283 19.2406L171.709 17.88L171.764 17.7288L171.915 17.6601L172.135 17.5639L171.942 17.7563L172.107 17.3715L172.19 17.1791L172.231 17.0829C172.245 17.0692 172.245 17.0417 172.245 17.0279C172.258 16.9867 172.258 16.9317 172.258 16.8905V16.6294V16.2033V14.4717L172.451 14.8015C172.093 14.5816 171.722 14.4167 171.338 14.1006C170.967 13.7983 170.664 13.3722 170.54 12.8912C170.472 12.6576 170.444 12.4102 170.458 12.1766V11.5444V10.3075V9.68902C170.444 9.45539 170.472 9.20801 170.527 8.96063C170.637 8.46587 170.939 8.03983 171.296 7.72373C171.997 7.09154 172.904 6.81667 173.715 6.62427L173.413 6.95411C173.495 6.43186 173.564 5.88213 173.605 5.3324L173.77 3.6832L173.935 2.03401L174.018 1.20941C174.031 1.05823 174.059 0.907057 174.114 0.728395C174.1 0.742138 174.155 0.590962 174.224 0.535989C174.279 0.467272 174.32 0.453529 174.361 0.426042C174.43 0.384812 174.457 0.371069 174.499 0.357326C174.567 0.329839 174.608 0.302352 174.65 0.288609L175.186 0L175.254 0.604705L175.928 6.94036L175.653 6.61052L176.244 6.77544C176.45 6.83042 176.711 6.94036 176.876 7.03657C177.261 7.22897 177.646 7.43512 178.017 7.70999C178.415 7.9986 178.731 8.46587 178.828 8.96063C178.883 9.19426 178.883 9.46913 178.883 9.67528V10.2937V11.5306V12.1491C178.883 12.369 178.883 12.6301 178.814 12.8775C178.704 13.3722 178.388 13.812 178.017 14.1006C177.824 14.2655 177.646 14.348 177.467 14.4717L176.917 14.8015L177.096 14.4579C177.124 15.0627 177.069 15.6399 177.082 16.1896C177.096 16.7393 177.165 17.2478 177.385 17.7151L177.178 17.5227L177.426 17.6189L177.591 17.6876L177.646 17.8525L178.086 19.2406L177.879 19.0207L178.182 19.1582L178.374 19.2406L178.402 19.4605C178.429 19.6529 178.443 20.2164 178.415 20.0515C178.402 20.0377 178.402 20.0377 178.415 20.0515L178.498 20.079C178.663 20.1752 178.677 20.2576 178.704 20.2988C178.745 20.395 178.745 20.4363 178.759 20.4775C178.786 20.6699 178.786 20.7249 178.8 20.9448C178.8 21.0272 178.8 21.0822 178.8 21.1097C178.8 21.1372 178.8 21.1097 178.773 21.0822C178.745 21.0547 178.745 21.0685 178.773 21.0822H178.786C178.759 21.0822 178.855 21.096 178.896 21.1234C178.938 21.1509 178.965 21.1647 178.993 21.1922C179.061 21.2746 179.075 21.3159 179.089 21.3433C179.116 21.4121 179.116 21.4533 179.13 21.5083C179.171 21.7007 179.158 21.8244 179.158 21.9618V22.3741L178.91 22.0305L179.364 22.1817L179.611 22.2641V22.5253V23.1575V23.4461C179.611 23.4735 179.611 23.4598 179.597 23.4186C179.57 23.3911 179.542 23.3773 179.556 23.3773C179.57 23.3773 179.542 23.3773 179.611 23.3911C179.858 23.4873 179.845 23.5698 179.886 23.611C179.941 23.7072 179.955 23.7759 179.982 23.8446C179.996 23.8858 179.996 23.9133 180.01 23.9546C180.023 23.9958 180.023 24.0508 180.023 24.0645V24.2294V24.8891L179.762 24.5455L180.312 24.6967L180.573 24.7654V25.0403V26.3184L180.312 25.9748L180.82 26.1123L181.082 26.181V26.4421V27.7752L180.848 27.4454L181.301 27.5965L181.535 27.679V27.9264V29.5618L181.288 29.232L181.837 29.3969L182.085 29.4656V29.7267L182.071 31.7745L181.755 31.4447L183.129 31.5134L183.445 31.5271V31.8295L183.432 35.0317V35.4302L183.047 35.334L181.782 35.0179L182.14 34.798C182.112 34.9767 182.099 35.2928 182.085 35.5402L182.057 36.351L182.03 37.959V39.5807C182.044 40.1029 182.044 40.6802 182.085 41.1474L181.865 40.9413C183.212 41.1612 184.572 41.3261 185.919 41.6147C187.266 41.9033 188.599 42.2469 189.891 42.7142C192.489 43.6212 194.962 44.9268 197.093 46.6722C199.223 48.4039 201.023 50.5341 202.439 52.8842C203.854 55.2618 204.981 57.7768 205.82 60.3743Z" fill="white"/>
<path d="M60.9652 102.305C56.21 102.305 51.4686 102.566 46.7134 103.102C18.0449 106.538 2.65243 118.234 6.69296 121.133C4.85136 121.133 0.453505 118.055 0.0137201 114.179C-0.426065 109.52 9.77146 104.944 21.3021 101.948C28.8609 96.6703 38.1926 85.9368 45.6689 77.2373C42.1507 77.6771 38.7148 77.9382 35.2928 77.9382C20.1614 77.9382 7.8474 71.7812 6.88537 63.7826C6.7067 62.6419 7.76494 60.443 9.00183 58.945C11.5581 55.949 15.6811 55.784 16.2995 56.1276C14.719 56.6499 12.8637 58.1479 12.7812 59.7284C12.5201 65.7067 22.9788 73.9802 39.2508 73.9802C40.8313 73.9802 42.508 73.8977 44.2671 73.719C45.8476 73.5404 47.3456 73.3617 48.9261 73.1006C66.1602 51.4686 84.7274 23.2262 100.463 22.8826C105.48 22.8001 109.438 25.8786 108.737 31.4996C107.156 46.631 83.4905 67.3009 56.1413 74.9559C47.7854 84.8923 37.9315 95.1861 30.8124 99.9275C35.2103 99.1304 39.6081 98.6081 43.3876 98.4295C45.4078 98.347 47.4281 98.2508 49.627 98.2508C68.7164 98.2508 93.3444 102.388 101.879 109.245C92.0113 105.205 76.88 102.305 60.9652 102.305ZM60.0032 70.2832C88.3281 60.7866 104.779 35.98 103.982 28.5036C103.721 26.2222 102.401 24.628 100.106 25.3426C92.8909 27.5416 76.88 49.9706 60.0032 70.2832Z" fill="white"/>
<path d="M106.607 79.4363C103.968 82.075 86.8164 96.849 83.1195 96.849C82.9408 96.849 82.5011 96.6704 82.3224 96.5879C80.7419 95.7908 78.4468 92.4512 78.4468 90.6921C78.4468 81.0992 98.5944 61.4875 114.77 61.4875C118.11 61.4875 122.508 62.8894 122.508 67.0261C122.508 68.5241 121.711 70.0221 120.831 71.1628C120.652 71.2453 120.474 71.1628 120.57 71.0804C121.01 70.2833 121.532 69.2388 121.532 67.9194C121.532 65.2807 119.855 63.9613 117.217 64.14C112.118 64.4011 105.7 68.0981 99.9825 72.9357C91.6266 80.0547 85.0298 91.1456 85.8269 91.5854C86.0056 91.6678 86.1843 91.6678 86.4454 91.5854C89.3452 90.6233 101.659 81.7314 106.236 77.8696C107.816 76.4677 113.533 70.9155 115.732 69.6923C117.491 68.8127 120.488 73.6504 120.13 74.7086C119.69 73.829 111.774 83.4219 109.136 89.0429C108.613 90.2798 108.256 91.3242 108.256 92.0389C113.795 90.4584 126.37 78.4055 131.826 73.3068C132.266 72.867 132.705 73.5679 132.444 73.829C124.789 82.185 110.455 96.8765 105.177 96.8765C104.738 96.8765 104.298 96.6979 103.679 96.3543C102.443 95.6534 100.78 93.798 100.78 92.2176C100.78 91.338 101.137 90.2798 101.481 88.9604C102.553 85.6757 104.93 81.6352 106.607 79.4363Z" fill="white"/>
<path d="M130.52 76.5365C133.599 70.297 136.677 65.3632 139.233 63.1642C139.756 62.7245 140.113 62.642 140.374 62.642C142.49 62.5595 145.83 65.9816 145.913 68.3592C145.83 68.6203 145.734 68.2767 145.033 68.2767C143.356 68.0981 140.635 72.5921 137.557 78.1307C134.299 83.7654 132.801 89.8262 132.458 90.9669C140.374 85.3322 157.526 67.2185 165.263 58.5053C165.882 57.8044 166.321 57.7081 165.785 58.6839C156.811 74.5162 131.565 97.5637 128.843 97.5637C127.084 97.6462 125.064 94.8425 125.064 94.1279C125.064 90.5134 126.906 83.8341 130.52 76.5365Z" fill="white"/>
<path d="M153.76 96.7668C152.358 96.327 150.159 94.1281 150.159 92.5476C150.159 87.4488 162.913 68.2769 168.548 63.7829C168.987 63.3431 169.51 63.2606 169.867 63.2606C171.887 63.2606 175.406 66.7789 175.406 68.9778C175.406 69.3352 174.966 68.8954 174.265 68.7992C170.664 68.4418 158.611 88.5071 157.553 92.1078C162.913 90.706 175.763 78.4744 181.123 73.2795C181.741 72.8397 182.181 73.5406 181.92 73.8017C174.265 82.0752 160.288 96.4094 154.832 96.8492C154.461 96.8492 154.2 96.8492 153.76 96.7668Z" fill="white"/>
<path d="M177.77 91.3104C177.687 92.3687 178.47 92.9871 180.408 92.9871C186.826 92.9871 202.92 80.7556 211.812 73.3754C212.073 73.1968 212.691 73.6366 212.43 73.8977C205.833 80.0547 188.324 96.849 176.629 96.849C173.908 96.849 170.389 93.688 170.389 91.3104C170.389 89.194 170.912 87.4348 171.626 85.5108C173.743 80.4945 178.223 74.9559 183.762 70.2969C191.059 64.2224 198.893 61.5012 202.672 61.5012C203.992 61.5012 208.032 63.5215 208.032 65.9815C208.032 71.4376 191.142 84.0952 181.288 84.3701C179.707 86.2117 178.031 89.029 177.77 91.3104ZM182.429 82.5972C190.084 81.7176 204.679 67.4658 205.215 64.1262C195.443 67.3009 185.328 77.9382 182.429 82.5972Z" fill="white"/>
<path d="M184.861 60.0169C184.861 59.9482 184.847 59.8932 184.806 59.8382C184.696 59.6871 184.559 59.5496 184.408 59.4259C184.38 59.3984 184.353 59.3847 184.311 59.3572C184.243 59.316 184.174 59.2748 184.105 59.2335C184.037 59.1923 183.968 59.1648 183.885 59.1236C183.844 59.1098 183.817 59.0961 183.775 59.0824C183.542 58.9999 183.294 58.9312 183.033 58.8762C182.992 58.8625 182.951 58.8625 182.896 58.8487C182.538 58.7937 182.154 58.78 181.755 58.78C181.467 58.78 181.164 58.8075 180.862 58.835L180.958 58.9037C180.931 58.8762 180.889 58.8625 180.862 58.835C179.281 58.9999 177.728 59.4534 177.096 59.6458L177.44 59.2198C177.44 59.2198 177.44 59.206 177.453 59.206C177.467 59.1923 177.481 59.1648 177.481 59.1373C177.495 59.1373 177.508 59.1236 177.536 59.1236C177.591 59.0961 177.646 59.0824 177.701 59.0549C177.77 59.0274 177.825 58.9999 177.893 58.9587C177.962 58.9312 178.031 58.8899 178.099 58.8487C178.168 58.8075 178.251 58.7663 178.319 58.725C178.402 58.6838 178.47 58.6288 178.539 58.5876C178.69 58.4914 178.828 58.3952 178.965 58.2852C179.103 58.189 179.226 58.0928 179.323 57.9966C179.419 57.9142 179.515 57.8455 179.584 57.8042C179.611 57.7767 179.639 57.763 179.666 57.7493C179.68 57.7355 179.694 57.7355 179.694 57.7355C179.707 57.7355 179.707 57.7218 179.721 57.708C179.749 57.6668 179.735 57.6256 179.694 57.5981C179.652 57.5706 179.611 57.5843 179.584 57.6256C179.584 57.6256 179.584 57.6393 179.57 57.6531C179.556 57.6668 179.542 57.6943 179.515 57.7218C179.46 57.7767 179.391 57.8592 179.295 57.9554C179.199 58.0379 179.075 58.1341 178.951 58.244C178.828 58.3402 178.677 58.4502 178.525 58.5464C178.457 58.5876 178.374 58.6426 178.306 58.6838C178.237 58.725 178.154 58.78 178.086 58.8075C178.017 58.8487 177.948 58.8899 177.88 58.9174C177.811 58.9449 177.742 58.9861 177.687 58.9999C177.632 59.0274 177.563 59.0411 177.522 59.0686C177.508 59.0686 177.508 59.0686 177.495 59.0824C177.495 59.0274 177.467 58.9587 177.412 58.9312C177.357 58.8899 177.289 58.8899 177.234 58.9037C177.234 58.8899 177.234 58.8762 177.234 58.8625C177.234 58.8075 177.247 58.7525 177.247 58.6838C177.247 58.6151 177.261 58.5464 177.275 58.4776C177.289 58.4089 177.302 58.3265 177.316 58.244C177.33 58.1616 177.357 58.0791 177.371 57.9966C177.385 57.9142 177.412 57.8317 177.44 57.7355C177.495 57.5706 177.55 57.4057 177.605 57.2408C177.66 57.0896 177.715 56.9384 177.77 56.8147C177.825 56.691 177.88 56.5948 177.921 56.5261C177.948 56.4986 177.962 56.4711 177.976 56.4574C177.989 56.4436 178.003 56.4299 178.003 56.4299C178.017 56.4162 178.017 56.4162 178.017 56.4024C178.031 56.3612 178.003 56.32 177.962 56.3062C177.921 56.2925 177.88 56.32 177.866 56.3612C177.866 56.3612 177.866 56.3749 177.852 56.3887C177.852 56.4162 177.838 56.4436 177.825 56.4711C177.797 56.5398 177.77 56.6498 177.715 56.7735C177.66 56.8972 177.605 57.0483 177.55 57.1995C177.495 57.3507 177.44 57.5294 177.399 57.6943C177.371 57.7767 177.344 57.8592 177.33 57.9554C177.316 58.0379 177.289 58.1203 177.275 58.2028C177.261 58.2852 177.247 58.3677 177.234 58.4364C177.22 58.5189 177.206 58.5876 177.206 58.6563C177.192 58.725 177.192 58.78 177.192 58.835C177.192 58.8625 177.192 58.8899 177.192 58.9174C177.179 58.9312 177.165 58.9449 177.151 58.9587L176.835 59.4122C176.835 58.7525 176.808 57.1308 176.491 55.5778C176.464 55.5503 176.436 55.5366 176.395 55.5091L176.491 55.5778C176.436 55.2892 176.368 54.9869 176.285 54.712C176.175 54.3272 176.038 53.9698 175.887 53.64C175.873 53.5988 175.846 53.5575 175.832 53.5163C175.708 53.2827 175.571 53.049 175.419 52.8566C175.392 52.8292 175.364 52.7879 175.337 52.7604C175.282 52.7055 175.227 52.6367 175.172 52.5818C175.117 52.5268 175.062 52.4718 174.993 52.4306C174.966 52.4031 174.938 52.3894 174.897 52.3619C174.746 52.2519 174.567 52.1695 174.389 52.1008C174.32 52.087 174.265 52.087 174.196 52.1008C174.141 52.1145 174.086 52.1557 174.045 52.2107C173.853 52.4856 173.537 53.0765 173.509 53.8599C173.509 54.0386 173.509 54.231 173.55 54.4371C173.55 54.4509 173.55 54.4646 173.55 54.4783C173.55 54.4921 173.55 54.5058 173.537 54.5196C173.523 54.5471 173.509 54.5746 173.495 54.602C173.482 54.6158 173.482 54.6158 173.468 54.6295C173.468 54.6433 173.454 54.6433 173.454 54.657L173.44 54.6708C173.427 54.6845 173.427 54.6845 173.413 54.6982L173.399 54.712C173.385 54.7257 173.385 54.7395 173.372 54.7532L173.358 54.767C173.344 54.7807 173.33 54.7944 173.33 54.8082L173.317 54.8219C173.303 54.8357 173.289 54.8494 173.276 54.8769C173.276 54.8769 173.276 54.8906 173.262 54.8906C173.248 54.9044 173.234 54.9319 173.221 54.9456C173.221 54.9456 173.221 54.9594 173.207 54.9594C173.193 54.9869 173.179 55.0006 173.166 55.0281C173.166 55.0281 173.166 55.0281 173.166 55.0418C173.152 55.0693 173.138 55.0831 173.124 55.1105C173.111 55.138 173.097 55.1655 173.083 55.193C173.069 55.2205 173.056 55.248 173.042 55.2755C172.712 55.8939 172.478 56.7872 173.207 57.5431C173.262 57.5981 173.317 57.653 173.372 57.708C173.372 57.708 170.939 57.5706 170.706 59.852C170.678 60.1543 170.678 60.5117 170.747 60.9102C170.747 60.9377 170.76 60.9514 170.76 60.9789L169.317 61.3363H169.304C169.221 61.3637 169.194 61.4599 169.221 61.5287C169.249 61.6111 169.345 61.6386 169.414 61.6111L170.788 61.0751C170.994 61.9822 171.709 62.2158 172.547 62.1334C173.757 62.0234 175.213 61.2538 175.791 60.9377L175.255 61.7211C175.227 61.7623 175.241 61.8173 175.268 61.8448C175.31 61.8722 175.364 61.8722 175.392 61.831L175.983 61.0889C175.846 61.7486 175.557 63.3565 175.804 64.5522C175.983 65.3768 176.409 65.9952 177.33 65.9265L177.22 67.397C177.22 67.4795 177.275 67.5482 177.357 67.562C177.44 67.562 177.508 67.507 177.522 67.4245V67.4108L177.426 65.9265C177.453 65.9265 177.467 65.9265 177.495 65.9128C177.893 65.8441 178.223 65.7478 178.512 65.6379C180.628 64.7308 179.762 62.4495 179.762 62.4495C179.831 62.4907 179.9 62.5319 179.968 62.5594C180.903 63.0267 181.686 62.5319 182.181 62.0372C182.209 62.0097 182.222 61.9959 182.25 61.9684C182.277 61.941 182.291 61.9272 182.305 61.8997C182.319 61.8722 182.346 61.8585 182.36 61.831C182.36 61.831 182.36 61.831 182.374 61.8173C182.387 61.8035 182.401 61.776 182.429 61.7623C182.429 61.7623 182.429 61.7623 182.442 61.7485C182.456 61.7348 182.47 61.7073 182.484 61.6936C182.484 61.6936 182.484 61.6798 182.497 61.6798C182.511 61.6661 182.525 61.6523 182.538 61.6249L182.552 61.6111C182.566 61.5974 182.58 61.5836 182.58 61.5699L182.593 61.5561C182.607 61.5424 182.607 61.5287 182.621 61.5149C182.621 61.5012 182.635 61.5012 182.635 61.5012C182.648 61.4874 182.648 61.4737 182.662 61.4737C182.662 61.4599 182.676 61.4599 182.676 61.4462C182.676 61.4325 182.69 61.4325 182.69 61.4187C182.703 61.405 182.703 61.3912 182.717 61.3912C182.731 61.3637 182.758 61.3363 182.786 61.3225C182.8 61.3088 182.813 61.3088 182.827 61.3088C182.841 61.3088 182.855 61.295 182.868 61.295C183.074 61.2675 183.253 61.2263 183.418 61.1576C184.16 60.9102 184.627 60.4155 184.834 60.1543C184.847 60.1406 184.861 60.0856 184.861 60.0169ZM173.44 57.0621C173.454 57.0621 173.454 57.0621 173.44 57.0621V57.0621Z" fill="url(#paint0_radial_64_3856)"/>
<path d="M111.725 104.682V112.2H109.98V109.121H106.558V112.2H104.812V104.682H106.558V107.651H109.98V104.682H111.725Z" fill="white"/>
<path d="M112.509 108.448C112.509 106.208 114.254 104.559 116.618 104.559C118.982 104.559 120.727 106.208 120.727 108.448C120.727 110.688 118.982 112.338 116.618 112.338C114.24 112.338 112.509 110.675 112.509 108.448ZM118.968 108.448C118.968 107.019 117.965 106.043 116.618 106.043C115.271 106.043 114.268 107.019 114.268 108.448C114.268 109.878 115.271 110.853 116.618 110.853C117.965 110.853 118.968 109.878 118.968 108.448Z" fill="white"/>
<path d="M120.92 111.472L121.511 110.166C122.143 110.633 123.091 110.949 123.998 110.949C125.029 110.949 125.455 110.606 125.455 110.139C125.455 108.737 121.085 109.699 121.085 106.909C121.085 105.631 122.115 104.573 124.259 104.573C125.208 104.573 126.17 104.792 126.871 105.232L126.335 106.552C125.634 106.153 124.919 105.961 124.246 105.961C123.215 105.961 122.816 106.345 122.816 106.826C122.816 108.214 127.187 107.252 127.187 110.015C127.187 111.265 126.142 112.351 123.998 112.351C122.789 112.337 121.579 111.98 120.92 111.472Z" fill="white"/>
<path d="M134.347 107.417C134.347 109.094 133.096 110.138 131.076 110.138H129.564V112.214H127.819V104.696H131.076C133.083 104.682 134.347 105.727 134.347 107.417ZM132.588 107.417C132.588 106.593 132.052 106.112 130.994 106.112H129.564V108.723H130.98C132.052 108.709 132.588 108.228 132.588 107.417Z" fill="white"/>
<path d="M135.048 104.682H136.793V112.2H135.048V104.682Z" fill="white"/>
<path d="M139.583 106.098H137.178V104.682H143.734V106.098H141.328V112.2H139.583V106.098Z" fill="white"/>
<path d="M148.709 110.592H145.218L144.558 112.2H142.771L146.125 104.682H147.843L151.21 112.2H149.382L148.709 110.592ZM148.159 109.272L146.963 106.4L145.768 109.272H148.159Z" fill="white"/>
<path d="M151.444 104.682H153.189V110.784H156.955V112.2H151.444V104.682Z" fill="white"/>
<path d="M157.394 104.682H159.14V112.2H157.394V104.682Z" fill="white"/>
<path d="M161.943 106.098H159.538V104.682H166.094V106.098H163.689V112.2H161.943V106.098Z" fill="white"/>
<path d="M169.956 109.547V112.214H168.21V109.534L165.297 104.696H167.138L169.145 108.036L171.152 104.696H172.856L169.956 109.547Z" fill="white"/>
<path d="M180.662 108.325H182.256V111.376C181.431 111.994 180.291 112.338 179.219 112.338C176.855 112.338 175.109 110.716 175.109 108.448C175.109 106.181 176.855 104.559 179.246 104.559C180.565 104.559 181.665 105.012 182.393 105.865L181.28 106.895C180.73 106.318 180.098 106.043 179.342 106.043C177.886 106.043 176.882 107.019 176.882 108.448C176.882 109.85 177.886 110.853 179.315 110.853C179.782 110.853 180.222 110.771 180.662 110.537V108.325Z" fill="white"/>
<path d="M188.111 112.214L186.654 110.125H186.571H185.06V112.214H183.314V104.696H186.571C188.578 104.696 189.842 105.741 189.842 107.431C189.842 108.558 189.279 109.383 188.289 109.809L189.98 112.227H188.111V112.214ZM186.475 106.098H185.06V108.723H186.475C187.533 108.723 188.069 108.228 188.069 107.417C188.083 106.593 187.547 106.098 186.475 106.098Z" fill="white"/>
<path d="M190.199 108.448C190.199 106.208 191.945 104.559 194.309 104.559C196.673 104.559 198.418 106.208 198.418 108.448C198.418 110.688 196.673 112.338 194.309 112.338C191.945 112.338 190.199 110.675 190.199 108.448ZM196.673 108.448C196.673 107.019 195.669 106.043 194.322 106.043C192.976 106.043 191.972 107.019 191.972 108.448C191.972 109.878 192.976 110.853 194.322 110.853C195.669 110.853 196.673 109.878 196.673 108.448Z" fill="white"/>
<path d="M199.146 108.901V104.696H200.892V108.847C200.892 110.276 201.51 110.867 202.569 110.867C203.627 110.867 204.245 110.276 204.245 108.847V104.696H205.963V108.901C205.963 111.114 204.699 112.337 202.555 112.337C200.411 112.337 199.146 111.114 199.146 108.901Z" fill="white"/>
<path d="M213.659 107.417C213.659 109.094 212.409 110.138 210.389 110.138H208.877V112.214H207.131V104.696H210.389C212.395 104.682 213.659 105.727 213.659 107.417ZM211.9 107.417C211.9 106.593 211.364 106.112 210.306 106.112H208.89V108.723H210.306C211.364 108.709 211.9 108.228 211.9 107.417Z" fill="white"/>
<defs>
<radialGradient id="paint0_radial_64_3856" cx="0" cy="0" r="1" gradientUnits="userSpaceOnUse" gradientTransform="translate(176.964 59.8176) rotate(-2.73394) scale(7.84387 7.84387)">
<stop stop-color="#A9C745"/>
<stop offset="1" stop-color="#234924"/>
</radialGradient>
</defs>
</svg>
