<svg id="Layer_1" data-name="Layer 1" xmlns="http://www.w3.org/2000/svg" xmlns:xlink="http://www.w3.org/1999/xlink" viewBox="0 0 242 235.49"><defs><style>.cls-1{fill:none;}.cls-2{fill:#fcb833;}.cls-3{clip-path:url(#clip-path);}.cls-4{fill:#1d244c;}</style><clipPath id="clip-path" transform="translate(443.27 -304.16)"><circle class="cls-1" cx="-321.72" cy="391.14" r="86.98"/></clipPath></defs><title>logo</title><circle class="cls-2" cx="121.56" cy="86.98" r="86.98"/><g class="cls-3"><path class="cls-4" d="M-321.45,334.35c2.64,4.64,6,11.08,9.84,19.5,5.94,13.11,10.82,28.41,15.35,48.14,6.6,28.77,6.69,65.68,6.69,66V502h-64.2l.45-33.84V468c0-.36.07-37.23,6.69-66,4.53-19.73,9.41-35,15.35-48.14,3.82-8.42,7.2-14.86,9.83-19.5m0-13.72s-6.91,9.1-16.48,30.21c-7.13,15.71-12,32.71-15.82,49.51-6.88,30-6.88,67.68-6.88,67.68l-.53,41.24h78.89V468s0-37.72-6.88-67.68c-3.85-16.8-8.69-33.8-15.81-49.51-9.57-21.11-16.49-30.21-16.49-30.21Z" transform="translate(443.27 -304.16)"/><path class="cls-4" d="M-299.53,494.81v-7.3h-31.73l.43-28.16v-.11c0-.32.08-31.88,6.63-56.51,4.5-16.89,9.34-30,15.23-41.19,2.87-5.47,5.49-10,7.73-13.54l-4.64-6.31c-2.65,4.07-5.91,9.5-9.56,16.45-7.12,13.56-12,28.22-15.82,42.71-6.87,25.84-6.87,58.39-6.87,58.39l-.54,35.57Z" transform="translate(443.27 -304.16)"/><path class="cls-4" d="M-343.91,494.81v-7.3h31.73l-.42-28.16v-.11c0-.32-.08-31.88-6.63-56.51-4.5-16.89-9.34-30-15.23-41.19-2.87-5.47-5.49-10-7.73-13.54l4.64-6.31c2.64,4.07,5.91,9.5,9.56,16.45,7.12,13.56,12,28.22,15.81,42.71,6.88,25.84,6.88,58.39,6.88,58.39l.54,35.57Z" transform="translate(443.27 -304.16)"/><path class="cls-4" d="M-260.09,494.81l-.34-7.3h-45.48l.42-27.85v-.11c0-.31.08-31.58,6.63-56,3.85-14.33,7.95-25.89,12.74-35.89l-5.08-6.21c-6.52,12.84-11.06,26.59-14.71,40.2-6.88,25.61-6.88,57.87-6.88,57.87l-.54,35.26Z" transform="translate(443.27 -304.16)"/><path class="cls-4" d="M-383.34,494.81l.34-7.3h45.48l-.42-27.85v-.11c0-.31-.07-31.58-6.62-56-3.85-14.33-7.95-25.89-12.74-35.89l5.08-6.21c6.52,12.84,11.06,26.59,14.71,40.2,6.88,25.61,6.88,57.87,6.88,57.87l.53,35.26Z" transform="translate(443.27 -304.16)"/></g><path class="cls-2" d="M-443,514.38v-2.94h12.6a2.53,2.53,0,0,0,1.81-.6,2.07,2.07,0,0,0,.64-1.59,2,2,0,0,0-.64-1.63,2.72,2.72,0,0,0-1.81-.54h-7.72a6,6,0,0,1-2.14-.36,4.58,4.58,0,0,1-1.62-1,4.27,4.27,0,0,1-1-1.51,5,5,0,0,1-.36-1.92,5.23,5.23,0,0,1,.33-1.88,4,4,0,0,1,1-1.49,4.64,4.64,0,0,1,1.63-1,6.3,6.3,0,0,1,2.22-.36H-426v2.93h-12.06a2.14,2.14,0,0,0-1.58.55,2,2,0,0,0-.55,1.51,2,2,0,0,0,.56,1.5,2.15,2.15,0,0,0,1.54.53h7.7a5.56,5.56,0,0,1,3.89,1.21,4.65,4.65,0,0,1,1.33,3.65,5.88,5.88,0,0,1-.32,2,4.33,4.33,0,0,1-1,1.56,4.59,4.59,0,0,1-1.63,1,6.45,6.45,0,0,1-2.3.37Z" transform="translate(443.27 -304.16)"/><path class="cls-2" d="M-407,497.58h2.87V507a10.24,10.24,0,0,1-.51,3.39,5.59,5.59,0,0,1-1.59,2.39,7,7,0,0,1-2.81,1.41,16.23,16.23,0,0,1-4.17.46,16.12,16.12,0,0,1-4.15-.46,7,7,0,0,1-2.81-1.41,5.59,5.59,0,0,1-1.59-2.39,10.24,10.24,0,0,1-.51-3.39v-9.38h3V507a6.58,6.58,0,0,0,.32,2.17,3.15,3.15,0,0,0,1,1.48,4.47,4.47,0,0,0,1.89.85,13.92,13.92,0,0,0,2.91.26,14,14,0,0,0,2.91-.26,4.43,4.43,0,0,0,1.88-.85,3.24,3.24,0,0,0,1-1.48A6.59,6.59,0,0,0-407,507Z" transform="translate(443.27 -304.16)"/><path class="cls-2" d="M-401.88,497.58h3.58l7.63,12.94,7.6-12.94h3.37l-9.68,16.08a2.31,2.31,0,0,1-.6.7,1.39,1.39,0,0,1-.81.25,1.43,1.43,0,0,1-.83-.25,2.31,2.31,0,0,1-.6-.7Z" transform="translate(443.27 -304.16)"/><path class="cls-2" d="M-364.91,514.38l-2.52-4.23h-7.95l1.39-2.38h5.15l-3.74-6.29-7.63,12.9h-3.35l9.66-16.09a2.27,2.27,0,0,1,.6-.69,1.39,1.39,0,0,1,.84-.25,1.33,1.33,0,0,1,.82.25,2.38,2.38,0,0,1,.59.69l9.68,16.09Z" transform="translate(443.27 -304.16)"/><path class="cls-2" d="M-343.28,514.38l-4.25-4.67h-6.28v-2.59h7a3.16,3.16,0,0,0,2.4-.86,3.56,3.56,0,0,0,.81-2.51,3.21,3.21,0,0,0-.84-2.44,3.35,3.35,0,0,0-2.37-.8H-356v13.87h-2.92v-16.8h12.07a7.09,7.09,0,0,1,2.56.43,5.14,5.14,0,0,1,1.92,1.22,5.3,5.3,0,0,1,1.2,1.93,7.24,7.24,0,0,1,.42,2.54,6.5,6.5,0,0,1-.91,3.53,5.1,5.1,0,0,1-2.56,2l5.06,5.11Z" transform="translate(443.27 -304.16)"/><path class="cls-2" d="M-334.17,502.08v12.3H-337V499.13a1.94,1.94,0,0,1,.41-1.29,1.37,1.37,0,0,1,1.09-.47,1.52,1.52,0,0,1,.63.14,2.2,2.2,0,0,1,.62.46l11.86,11.76V497.44h2.79v15.39a1.86,1.86,0,0,1-.4,1.29,1.33,1.33,0,0,1-1,.47,1.85,1.85,0,0,1-1.34-.63Z" transform="translate(443.27 -304.16)"/><path class="cls-2" d="M-298.51,514.38l-2.52-4.23h-8l1.38-2.38h5.16l-3.75-6.29-7.62,12.9h-3.35l9.66-16.09a2.27,2.27,0,0,1,.6-.69,1.36,1.36,0,0,1,.83-.25,1.31,1.31,0,0,1,.82.25,2.38,2.38,0,0,1,.59.69l9.68,16.09Z" transform="translate(443.27 -304.16)"/><path class="cls-2" d="M-292.51,514.38v-16.8h12.3a8.2,8.2,0,0,1,2.23.28,4.82,4.82,0,0,1,1.72.82,3.59,3.59,0,0,1,1.11,1.36,4.33,4.33,0,0,1,.39,1.88,4.93,4.93,0,0,1-.18,1.41,3.54,3.54,0,0,1-.51,1,3.4,3.4,0,0,1-.75.72,3.28,3.28,0,0,1-.89.42,3.82,3.82,0,0,1,1.89,1.34,3.9,3.9,0,0,1,.74,2.45,5.42,5.42,0,0,1-.38,2.1,4.46,4.46,0,0,1-1.09,1.6,4.66,4.66,0,0,1-1.71,1,6.56,6.56,0,0,1-2.23.36Zm5.06-7.3V504.6h7.26a3,3,0,0,0,1.85-.46,1.86,1.86,0,0,0,.6-1.57,2,2,0,0,0-.25-1.07,1.73,1.73,0,0,0-.73-.63,3.89,3.89,0,0,0-1.13-.29c-.44,0-.93-.07-1.47-.07h-8.25v11h8.5a8.3,8.3,0,0,0,1.46-.12,3.62,3.62,0,0,0,1.15-.38,2,2,0,0,0,.76-.68,2,2,0,0,0,.26-1,2,2,0,0,0-.65-1.61,2.77,2.77,0,0,0-1.89-.56Z" transform="translate(443.27 -304.16)"/><path class="cls-2" d="M-271.2,514.45V497.58h2.94v16.87Zm13.52,0v-7.31h-8.46v-2.61h8.46v-6.95h2.93v16.87Z" transform="translate(443.27 -304.16)"/><path class="cls-2" d="M-236.12,497.58h2.87V507a10.24,10.24,0,0,1-.51,3.39,5.53,5.53,0,0,1-1.6,2.39,7,7,0,0,1-2.8,1.41,16.26,16.26,0,0,1-4.18.46,16,16,0,0,1-4.14-.46,7,7,0,0,1-2.81-1.41,5.53,5.53,0,0,1-1.6-2.39,10.26,10.26,0,0,1-.5-3.39v-9.38h3V507a6.58,6.58,0,0,0,.32,2.17,3.15,3.15,0,0,0,1,1.48,4.49,4.49,0,0,0,1.88.85,14.09,14.09,0,0,0,2.92.26,14.06,14.06,0,0,0,2.91-.26,4.49,4.49,0,0,0,1.88-.85,3.24,3.24,0,0,0,1-1.48,6.59,6.59,0,0,0,.31-2.17Z" transform="translate(443.27 -304.16)"/><path class="cls-2" d="M-209.91,514.38l-3.21-11.81-4.77,10.93a2.23,2.23,0,0,1-.61.82,1.38,1.38,0,0,1-.89.29,1.56,1.56,0,0,1-1.5-1.11l-4.74-10.93-3.21,11.81h-2.89l4.32-15.81a1.4,1.4,0,0,1,1.46-1.2,1.6,1.6,0,0,1,.87.25,1.66,1.66,0,0,1,.61.74l5.17,11.88,5.18-11.88a1.45,1.45,0,0,1,1.41-1,1.41,1.41,0,0,1,1.41,1.2l4.3,15.81Z" transform="translate(443.27 -304.16)"/><path class="cls-2" d="M-204.21,514.38v-16.8h2.94v16.8Z" transform="translate(443.27 -304.16)"/><path class="cls-2" d="M-421.8,539.42v-16.8h9.73a8.78,8.78,0,0,1,3.28.6,7.72,7.72,0,0,1,2.59,1.68,8,8,0,0,1,1.7,2.6,9,9,0,0,1,.61,3.34,9.46,9.46,0,0,1-.61,3.4,8.41,8.41,0,0,1-1.7,2.72,8,8,0,0,1-2.59,1.8,8.08,8.08,0,0,1-3.28.66Zm9.73-2.94a5.34,5.34,0,0,0,2.09-.41,5.1,5.1,0,0,0,1.66-1.15,5,5,0,0,0,1.1-1.74,6.1,6.1,0,0,0,.39-2.2,6,6,0,0,0-.39-2.18,4.93,4.93,0,0,0-1.1-1.72A5,5,0,0,0-410,526a5.34,5.34,0,0,0-2.09-.41h-6.82v10.93Z" transform="translate(443.27 -304.16)"/><path class="cls-2" d="M-400.8,539.42v-16.8h15v2.93h-12.08v10.93h12.11v2.94Zm5.07-7.31v-2.47h9.31v2.47Z" transform="translate(443.27 -304.16)"/><path class="cls-2" d="M-383.69,522.62h3.58l7.62,12.94,7.61-12.94h3.37l-9.68,16.08a2.27,2.27,0,0,1-.6.69,1.33,1.33,0,0,1-.81.26,1.35,1.35,0,0,1-.83-.26,2,2,0,0,1-.6-.69Z" transform="translate(443.27 -304.16)"/><path class="cls-2" d="M-359,539.42v-16.8h15v2.93H-356.1v10.93H-344v2.94Zm5.06-7.31v-2.47h9.31v2.47Z" transform="translate(443.27 -304.16)"/><path class="cls-2" d="M-340.78,539.42v-16.8h2.93v13.86h11.3v2.94Z" transform="translate(443.27 -304.16)"/><path class="cls-2" d="M-316.08,539.42a7.89,7.89,0,0,1-3.24-.66,8,8,0,0,1-2.59-1.8,8.27,8.27,0,0,1-1.71-2.72,9.25,9.25,0,0,1-.62-3.4,9,9,0,0,1,.62-3.37,7.55,7.55,0,0,1,1.71-2.6,7.53,7.53,0,0,1,2.59-1.66,8.57,8.57,0,0,1,3.24-.59H-312a9,9,0,0,1,3.34.6,7.57,7.57,0,0,1,2.6,1.68,7.64,7.64,0,0,1,1.69,2.6,9,9,0,0,1,.6,3.34,9.25,9.25,0,0,1-.61,3.4,8.27,8.27,0,0,1-1.71,2.72,8.08,8.08,0,0,1-2.6,1.8,8.15,8.15,0,0,1-3.31.66Zm4.09-2.94a5.5,5.5,0,0,0,2.13-.41,5,5,0,0,0,1.67-1.15,5,5,0,0,0,1.1-1.74,6.1,6.1,0,0,0,.4-2.2,6,6,0,0,0-.4-2.18,4.93,4.93,0,0,0-1.1-1.72,5,5,0,0,0-1.67-1.12,5.5,5.5,0,0,0-2.13-.41h-4.09a5.34,5.34,0,0,0-2.09.41,4.87,4.87,0,0,0-1.65,1.12,5,5,0,0,0-1.09,1.71,5.93,5.93,0,0,0-.39,2.19,6.1,6.1,0,0,0,.39,2.2,5.15,5.15,0,0,0,1.09,1.74,5,5,0,0,0,1.65,1.15,5.34,5.34,0,0,0,2.09.41Z" transform="translate(443.27 -304.16)"/><path class="cls-2" d="M-295.63,534.75v-2.84h6.75a3.28,3.28,0,0,0,2.42-.88,3.15,3.15,0,0,0,.86-2.31,3.09,3.09,0,0,0-.86-2.31,3.31,3.31,0,0,0-2.42-.86h-8.89v13.87h-2.92v-16.8h11.81a7.5,7.5,0,0,1,2.6.42,5.34,5.34,0,0,1,1.93,1.21,4.9,4.9,0,0,1,1.2,1.88,7,7,0,0,1,.42,2.49,7.07,7.07,0,0,1-.42,2.49,5.25,5.25,0,0,1-1.2,1.93,5.3,5.3,0,0,1-1.93,1.26,7.05,7.05,0,0,1-2.6.45Z" transform="translate(443.27 -304.16)"/><path class="cls-2" d="M-280,539.42v-16.8h15v2.93H-277v10.93h12.11v2.94Zm5.06-7.31v-2.47h9.32v2.47Z" transform="translate(443.27 -304.16)"/><path class="cls-2" d="M-246.13,539.42l-4.25-4.67h-6.28v-2.59h7a3.12,3.12,0,0,0,2.4-.87,3.51,3.51,0,0,0,.81-2.5,3.21,3.21,0,0,0-.84-2.44,3.33,3.33,0,0,0-2.37-.8h-9.15v13.87h-2.91v-16.8h12.06a7.31,7.31,0,0,1,2.56.42,5.29,5.29,0,0,1,1.92,1.23,5.09,5.09,0,0,1,1.2,1.93,7.24,7.24,0,0,1,.42,2.54,6.35,6.35,0,0,1-.91,3.52,5.11,5.11,0,0,1-2.56,2l5.06,5.11Z" transform="translate(443.27 -304.16)"/><path class="cls-2" d="M-239.75,539.42v-2.94h12.6a2.53,2.53,0,0,0,1.81-.6,2.1,2.1,0,0,0,.64-1.59,2,2,0,0,0-.64-1.63,2.72,2.72,0,0,0-1.81-.55h-7.72a6,6,0,0,1-2.14-.35,4.58,4.58,0,0,1-1.62-1,4.36,4.36,0,0,1-1-1.51,5,5,0,0,1-.36-1.92,5.23,5.23,0,0,1,.33-1.88,4,4,0,0,1,1-1.49,4.66,4.66,0,0,1,1.63-1,6.53,6.53,0,0,1,2.21-.35h12.07v2.93h-12.07a2.17,2.17,0,0,0-1.57.54,2,2,0,0,0-.55,1.52,2,2,0,0,0,.56,1.5,2.18,2.18,0,0,0,1.54.53h7.7a5.61,5.61,0,0,1,3.89,1.2,4.67,4.67,0,0,1,1.33,3.65,5.94,5.94,0,0,1-.32,2,4.33,4.33,0,0,1-1,1.56,4.59,4.59,0,0,1-1.63,1,6.68,6.68,0,0,1-2.3.37Z" transform="translate(443.27 -304.16)"/></svg>