<?xml version="1.0" encoding="utf-8"?>
<!-- Generator: Adobe Illustrator 22.1.0, SVG Export Plug-In . SVG Version: 6.00 Build 0)  -->
<svg version="1.1" id="Layer_1" xmlns="http://www.w3.org/2000/svg" xmlns:xlink="http://www.w3.org/1999/xlink" x="0px" y="0px"
	 width="226px" height="226px" viewBox="0 0 226 226" style="enable-background:new 0 0 226 226;" xml:space="preserve">
<g>
	<path d="M112.8,114.5c-24.8,0-49.6,0-74.4,0c-13.7,0-18.8-5-18.8-18.6c0-14.8,0-29.6,0.1-44.5c0.1-11,5.7-16.4,16.8-16.4
		c51.1,0,102.2,0,153.4,0c11.2,0,16.8,5.7,16.8,17c0,15.2,0,30.3,0,45.5c0,11.3-5.6,17-16.9,17C164.1,114.6,138.5,114.5,112.8,114.5
		z M113.1,39.5c-25.5,0-51,0-76.4,0c-8.8,0-12.6,3.7-12.6,12.4c-0.1,15.3-0.1,30.6,0,46c0,8.2,4.1,12.2,12.4,12.2
		c51,0,101.9,0,152.9,0c9.1,0,12.8-3.7,12.8-12.7c0-14.8,0-29.6,0-44.5c0-10.1-3.3-13.4-13.6-13.4C163.4,39.5,138.2,39.5,113.1,39.5
		z"/>
	<path d="M169.3,150.9c3.3-5.6,6-10.3,8.8-15c0.8-1.3,1.2-3.2,3.6-1.8c2.4,1.4,1,2.7,0.3,4.1c-2.2,3.9-4.4,7.8-6.8,11.7
		c-1.4,2.4-1.4,3.6,1.9,3.5c4.5-0.1,9-0.1,13.5,0c1.6,0,3.4-0.4,3.4,2.3c0,2.7-1.9,2.2-3.5,2.2c-3.5,0.1-7,0-10.5,0
		c-6.7,0-6.7,0-3.5,5.6c1.9,3.3,3.8,6.7,5.7,10c0.8,1.4,1.5,2.5-0.5,3.7c-2,1.2-2.6,0.1-3.4-1.3c-2.8-4.9-5.6-9.8-9-15.6
		c-3.2,5.5-5.9,10.3-8.8,15.1c-0.8,1.3-1.1,3.2-3.6,1.8c-2.4-1.4-1.1-2.6-0.4-4c2.7-4.7,5.4-9.5,8.4-14.7
		c-5.5-1.2-10.6-0.2-15.6-0.6c-1.7-0.1-4.5,1.3-4.6-2c-0.1-3.7,3-2.3,4.8-2.4c3.8-0.2,7.7-0.2,11.5,0c3.8,0.2,3.8-1.2,2.1-4
		c-2.4-3.8-4.5-7.8-6.8-11.6c-0.8-1.4-1.4-2.5,0.5-3.6c1.9-1.1,2.6-0.2,3.4,1.3C163.1,140.3,165.9,145.1,169.3,150.9z"/>
	<path d="M90.1,141.7c0.1,6.3-2.1,11.7-6.2,16.4c-8.2,9.4-8.8,17-1.9,27.5c1.1,1.6,1.1,2.5-0.2,3.7c-1.8,1.7-2.6,0.1-3.5-1
		c-7.3-8.4-7.2-22.3,0.4-31.3c9-10.7,9.5-16.1,2.2-28.2c-1.1-1.8-0.6-2.6,0.6-3.7c1.7-1.5,2.3,0.2,3.1,1
		C88,129.6,90.1,135.8,90.1,141.7z"/>
	<path d="M56,141.8c-0.1,7.2-2,11.8-5.8,15.7c-2.9,3-5.4,6.3-6.8,10.4c-1.2,3.4-1.5,6.9,0.7,10.1c1.3,1.9,0.8,3.1-0.8,4.1
		c-2.1,1.3-2.5-0.9-3.2-1.9c-2.3-3.5-2.5-7.5-1.6-11.5c1.3-5.5,4.4-10,8.1-14.1c5.7-6.2,6.3-13.1,1.7-20c-1.2-1.8-2-3.1,0.1-4.5
		c2.4-1.6,2.9,0.9,3.7,1.9C54.8,135.3,56,139.2,56,141.8z"/>
	<path d="M107.1,168.2c0.1-5.2,2.1-9.6,5.5-13.5c6-6.9,6.5-12.9,1.7-20.4c-1-1.6-1.7-2.7,0.1-4.2c2.3-1.9,2.9,0.5,3.7,1.6
		c5.6,7.1,5.1,17.5-1,24.9c-6.7,8.1-7.3,12.7-2,21.5c1,1.7,0.8,2.6-0.4,3.8c-1.9,1.9-2.6-0.2-3.4-1.2
		C108.4,177,107.1,172.8,107.1,168.2z"/>
	<path d="M113.2,94.1c24.2,0,48.3,0,72.5,0c1,0,2,0,3,0c1.7-0.1,3,0.2,2.9,2.3c-0.1,2.2-1.6,2.2-3.1,2.2c-0.8,0-1.7,0-2.5,0
		c-48.7,0-97.3,0-146,0c-1.2,0-2.3,0-3.5,0c-1.6,0-1.9-1-1.9-2.4c0-1.4,0.6-2.2,2.1-2.1c1.2,0,2.3,0,3.5,0
		C64.6,94.1,88.9,94.1,113.2,94.1z"/>
	<path d="M113.2,86c-24.3,0-48.7,0-73,0c-1.3,0-2.7,0-4,0c-1.3,0-1.6-0.9-1.6-2c0-1,0.1-2.1,1.4-2.2c1.3-0.1,2.7-0.1,4-0.1
		c48.7,0,97.3,0,146,0c1.3,0,2.7,0,4,0.1c1.6,0.1,1.6,1.3,1.6,2.6c0,1.3-0.7,1.8-1.9,1.8c-1.2,0-2.3,0-3.5,0
		C161.9,86,137.6,86,113.2,86z"/>
</g>
</svg>
