<?xml version="1.0" encoding="utf-8"?>
<!-- Generator: Adobe Illustrator 22.1.0, SVG Export Plug-In . SVG Version: 6.00 Build 0)  -->
<svg version="1.1" id="Layer_1" xmlns="http://www.w3.org/2000/svg" xmlns:xlink="http://www.w3.org/1999/xlink" x="0px" y="0px"
	 width="226px" height="226px" viewBox="0 0 226 226" style="enable-background:new 0 0 226 226;" xml:space="preserve">
<path d="M146,46c1.4,0.5,1.8,1.6,1.8,3c0,21.3,0,42.6,0,63.9c0,0.4,0,0.8-0.1,1.2c-0.2,1-0.8,1.6-1.8,1.6c-1,0-1.7-0.6-1.9-1.5
	c-0.1-0.5-0.1-1.1-0.1-1.6c0-20.4,0-40.7,0-61.1c0-1.2-0.3-1.5-1.5-1.5c-20.4,0-40.8,0-61.2,0c-1.2,0-1.5,0.3-1.5,1.5
	c0,20.3,0,40.6,0,60.9c0,0.5,0,1.1,0,1.6c-0.1,1-0.7,1.6-1.8,1.7c-1.1,0.1-1.7-0.5-2-1.6c-0.1-0.3-0.1-0.7-0.1-1.1
	c0-21.4,0-42.8,0-64.1c0-1.5,0.5-2.5,1.9-2.9C100.5,46,123.3,46,146,46z"/>
<path d="M44.7,177.2c0.6-1.1,1.6-1.3,2.8-1.3c43.7,0,87.4,0,131,0c1.2,0,2.1,0.4,2.7,1.3c0,0.9,0.3,2.1-0.1,2.6
	c-0.4,0.4-1.7,0.1-2.6,0.1c-44.1,0-88.2,0-132.3,0c-1.4,0-1.9-0.3-1.6-1.6C44.8,177.9,44.7,177.6,44.7,177.2z"/>
<path d="M181.2,119.6c-0.6,1.1-1.6,1.3-2.8,1.3c-43.6,0-87.3,0-130.9,0c-1.2,0-2.2-0.2-2.8-1.3c0-0.4,0-0.9,0-1.3
	c0.8-1,1.8-1.2,3-1.2c43.5,0,87,0,130.5,0c1.2,0,2.3,0.2,3,1.2C181.2,118.7,181.2,119.2,181.2,119.6z"/>
<path d="M117.6,83.6c0-9,0-18,0-27.1c0-1.2,0.2-1.6,1.5-1.6c6.4,0.1,12.7,0.1,19.1,0c1,0,1.3,0.2,1.3,1.2c0,18.2,0,36.4,0,54.7
	c0,1-0.3,1.2-1.3,1.2c-6.4,0-12.8-0.1-19.2,0c-1.2,0-1.4-0.4-1.4-1.5C117.6,101.6,117.6,92.6,117.6,83.6z M120.4,83.6
	c0,8.1,0,16.3,0,24.4c0,0.7-0.1,1.3,1,1.2c4.7-0.1,9.4,0,14.1,0c0.8,0,1-0.3,1-1.1c0-16.4,0-32.8,0-49.2c0-0.9-0.3-1.2-1.2-1.2
	c-4.5,0-9,0.1-13.5,0c-1.1,0-1.5,0.2-1.5,1.4C120.5,67.3,120.4,75.5,120.4,83.6z"/>
<path d="M84.1,83.5c0-9,0-18,0-27.1c0-1.2,0.4-1.5,1.5-1.4c6.3,0.1,12.6,0.1,18.9,0c1.1,0,1.4,0.3,1.4,1.4c0,18.1,0,36.3,0,54.4
	c0,1.1-0.4,1.4-1.4,1.4c-6.4,0-12.7,0-19.1,0c-1,0-1.3-0.3-1.3-1.3C84.2,101.7,84.1,92.6,84.1,83.5z M86.9,83.6c0,8.1,0,16.2,0,24.2
	c0,1.1,0.3,1.4,1.4,1.4c4.5-0.1,9.1,0,13.6,0c0.9,0,1.2-0.2,1.2-1.2c0-16.3,0-32.7,0-49c0-1-0.2-1.3-1.3-1.3c-4.5,0.1-9,0.1-13.5,0
	c-1.2,0-1.5,0.3-1.5,1.5C87,67.4,86.9,75.5,86.9,83.6z"/>
<path d="M113.8,83.5c0,9.6,0,19.2,0,28.8c0,0.4,0,0.9,0,1.3c-0.2,1-0.8,1.7-1.9,1.7c-1,0-1.6-0.6-1.9-1.6c-0.1-0.4-0.1-0.9-0.1-1.3
	c0-19.3,0-38.6,0-58c0-0.4,0-0.9,0.1-1.3c0.2-1,0.8-1.6,1.8-1.6c1.1,0,1.7,0.6,1.9,1.7c0.1,0.4,0,0.9,0,1.3
	C113.8,64.2,113.8,73.8,113.8,83.5z"/>
<path d="M64.4,148.4c0-7.8,0-15.6,0-23.3c0-1.1,0.1-1.6,1.4-1.5c2.5,0.1,2.5,0,2.5,2.5c0,15.2,0,30.4,0,45.6c0,1.1-0.2,1.6-1.5,1.6
	c-2.5-0.1-2.5,0-2.5-2.4C64.4,163.3,64.4,155.9,64.4,148.4z"/>
<path d="M86.8,148.4c0,7.8,0,15.6,0,23.5c0,1.1-0.3,1.4-1.4,1.4c-2.5-0.1-2.5,0-2.5-2.5c0-15.2,0-30.5,0-45.7c0-1.2,0.3-1.5,1.5-1.4
	c2.5,0.1,2.5,0,2.5,2.4C86.8,133.5,86.8,140.9,86.8,148.4z"/>
<path d="M101.5,148.4c0-7.9,0-15.7,0-23.6c0-1,0.3-1.3,1.3-1.2c2.7,0.1,2.7,0,2.7,2.6c0,15.1,0,30.3,0,45.4c0,1.3-0.4,1.6-1.6,1.6
	c-2.3-0.1-2.3,0-2.3-2.3C101.5,163.4,101.5,155.9,101.5,148.4z"/>
<path d="M175.6,148.3c0-7.8,0-15.6,0-23.4c0-1.1,0.3-1.3,1.3-1.3c2.6,0.1,2.6,0,2.6,2.6c0,15.1,0,30.3,0,45.4c0,1.2-0.2,1.7-1.6,1.7
	c-2.3-0.1-2.3,0-2.3-2.4C175.6,163.3,175.6,155.8,175.6,148.3z"/>
<path d="M45.8,148.4c0-7.8,0-15.6,0-23.3c0-1.1,0.2-1.6,1.4-1.5c2.5,0.1,2.5,0,2.5,2.5c0,15.2,0,30.4,0,45.6c0,1.3-0.4,1.6-1.6,1.6
	c-2.3-0.1-2.3,0-2.3-2.3C45.8,163.4,45.8,155.9,45.8,148.4z"/>
<path d="M123.9,148.4c0,7.8,0,15.6,0,23.3c0,1.1-0.1,1.6-1.4,1.5c-2.4-0.1-2.4,0-2.4-2.4c0-15.2,0-30.5,0-45.7
	c0-1.3,0.4-1.5,1.5-1.5c2.3,0.1,2.3,0,2.3,2.3C123.9,133.4,123.9,140.9,123.9,148.4z"/>
<path d="M142.4,148.4c0,7.8,0,15.6,0,23.5c0,1.1-0.3,1.4-1.4,1.4c-2.5-0.1-2.5,0-2.5-2.4c0-15.2,0-30.5,0-45.7
	c0-1.2,0.4-1.6,1.5-1.5c2.3,0.1,2.3,0,2.3,2.3C142.4,133.4,142.4,140.9,142.4,148.4z"/>
<path d="M157.1,148.3c0-7.7,0-15.5,0-23.2c0-1.1,0.2-1.6,1.4-1.5c2.4,0.1,2.4,0,2.4,2.5c0,15.2,0,30.5,0,45.7c0,1.3-0.4,1.5-1.5,1.5
	c-2.3-0.1-2.3,0-2.3-2.3C157.1,163.4,157.1,155.8,157.1,148.3z"/>
</svg>
