<?xml version="1.0" encoding="utf-8"?>
<!-- Generator: Adobe Illustrator 22.1.0, SVG Export Plug-In . SVG Version: 6.00 Build 0)  -->
<svg version="1.1" id="Layer_1" xmlns="http://www.w3.org/2000/svg" xmlns:xlink="http://www.w3.org/1999/xlink" x="0px" y="0px"
	 width="226px" height="226px" viewBox="0 0 226 226" style="enable-background:new 0 0 226 226;" xml:space="preserve">
<style type="text/css">
	.st0{fill:#FFFFFF;}
</style>
<g>
	<path class="st0" d="M159.8,28c0.7,0,1.4,0,2.1,0c0.1,0.1,0.3,0.1,0.4,0.2c3.2,0.6,5.7,3,6.3,6.3c0.2,1.1,0.2,2.2,0.1,3.3
		c0,0.8,0.2,1,1,1c5.8,0,11.6,0,17.3,0c0.8,0,1.6,0,2.3,0.2c5.1,1.1,8.6,5.3,8.6,10.6c0,23,0,46,0,68.9c0,22.9,0,45.7,0,68.6
		c0,2-0.4,4-1.4,5.7c-2.2,3.7-5.5,5.3-9.8,5.3c-47.7,0-95.4,0-143.1,0c-1.7,0-3.5,0-5.2,0c-3.9-0.1-6.9-1.9-9-5.2
		c-0.8-1.3-1.2-2.7-1.5-4.2c0-46.9,0-93.8,0-140.7c0-0.1,0.1-0.1,0.1-0.2c0.6-4.7,4.9-9.2,11.1-9.1c5.7,0.1,11.4,0,17.1,0
		c0.8,0,1-0.2,1-1c-0.1-0.7,0-1.4,0-2.1c0.2-3.1,1.7-5.3,4.5-6.7c0.7-0.4,1.6-0.5,2.3-0.8c0.7,0,1.4,0,2.1,0
		c0.2,0.1,0.3,0.1,0.5,0.2c3.1,0.7,5.1,2.5,6.1,5.4c0.5,1.3,0.4,2.7,0.3,4.1c0,0.8,0.2,1,1,1c25.9,0,51.9,0,77.8,0
		c0.7,0,1.1-0.1,1-0.9c-0.1-0.6,0-1.2,0-1.8c0-2.5,1.1-4.5,3-6.1C157,28.8,158.4,28.4,159.8,28z M113.1,73.1c-26.2,0-52.3,0-78.5,0
		c-1.4,0-1.3-0.2-1.3,1.2c0,37.4,0,74.7,0,112.1c0,0.4,0,0.9,0,1.3c0.2,2,1.2,3.4,2.9,4.3c1,0.5,2.1,0.6,3.2,0.6c49,0,98,0,147.1,0
		c0.5,0,0.9,0,1.4-0.1c2.3-0.3,3.7-1.5,4.5-3.7c0.3-0.8,0.3-1.6,0.3-2.5c0-37.4,0-74.8,0-112.2c0-1.3,0.1-1.2-1.2-1.2
		C165.4,73.1,139.2,73.1,113.1,73.1z M113,67.9c26.2,0,52.4,0,78.6,0c0.8,0,1-0.2,1-1c0-5.7,0-11.4,0-17.2c0-3.6-2.1-5.8-5.8-5.8
		c-5.8,0-11.5,0-17.3,0c-0.7,0-0.9,0.2-0.9,0.9c0,3.4,0.1,6.8,0,10.1c-0.1,4.1-3.5,7.4-7.6,7.6c-4.5,0.1-8.1-3.3-8.2-7.8
		c-0.1-3.3,0-6.6,0-10c0-0.7-0.2-0.8-0.8-0.8c-1.7,0-3.5,0-5.2,0c-24.1,0-48.3,0-72.4,0c-1.3,0-1.3,0-1.3,1.3c0,3.2,0,6.4,0,9.5
		c-0.1,4.2-3.6,7.6-7.7,7.7c-4.6,0.1-8.1-3.4-8.1-8.2c0-3.1,0-6.3,0-9.5c0-0.7-0.2-1-0.9-1c-5.7,0-11.4,0-17.2,0
		c-0.5,0-1.1,0-1.6,0.1c-2.6,0.6-4.2,2.7-4.2,5.5c0,5.7,0,11.4,0,17.1c0,1.2,0,1.2,1.2,1.2C60.7,67.9,86.8,67.9,113,67.9z
		 M163.5,45.3c0-3,0-6,0-9c0-1.7-1.1-2.9-2.6-2.9c-1.6,0-2.7,1.2-2.7,2.9c0,6,0,12,0,18c0,1.8,1.1,3,2.7,2.9c1.6,0,2.6-1.2,2.6-2.9
		C163.5,51.3,163.5,48.3,163.5,45.3z M62.5,45.3c0,3,0,6,0,9c0,1.7,1.1,2.9,2.6,2.9c1.6,0,2.7-1.2,2.7-2.9c0-6,0-12,0-18
		c0-1.8-1.1-3-2.7-2.9c-1.6,0-2.6,1.2-2.6,2.9C62.5,39.2,62.5,42.2,62.5,45.3z"/>
	<path class="st0" d="M65.2,152.8c2.5,0,5.1,0,7.6,0c1.9,0,3,1,3,2.9c0,4.2,0,8.5,0,12.7c0,1.9-1.1,2.9-3,2.9c-5.1,0-10.2,0-15.3,0
		c-1.9,0-3-1.1-3-3c0-4.2,0-8.4,0-12.6c0-1.9,1-3,3-3C60.1,152.8,62.7,152.8,65.2,152.8z M65.1,166.1c1.6,0,3.1,0,4.7,0
		c0.5,0,0.7-0.1,0.7-0.7c0-2.2,0-4.4,0-6.7c0-0.6-0.2-0.7-0.7-0.7c-3.1,0-6.1,0-9.2,0c-0.5,0-0.8,0.1-0.8,0.7c0,2.2,0,4.4,0,6.6
		c0,0.6,0.2,0.7,0.8,0.7C62.1,166.1,63.6,166.1,65.1,166.1z"/>
	<path class="st0" d="M160.8,142.2c-2.5,0-5.1,0-7.6,0c-1.9,0-2.9-1-2.9-2.9c0-4.2,0-8.4,0-12.7c0-1.9,1.1-3,3-3
		c5.1,0,10.1,0,15.2,0c2,0,3,1.1,3,3.1c0,4.2,0,8.3,0,12.5c0,2-1,3-3,3C165.8,142.2,163.3,142.2,160.8,142.2z M160.7,136.9
		c1.6,0,3.1,0,4.7,0c0.5,0,0.8-0.1,0.8-0.7c0-2.2,0-4.4,0-6.7c0-0.5-0.1-0.6-0.6-0.6c-3.1,0-6.3,0-9.4,0c-0.5,0-0.6,0.2-0.6,0.6
		c0,2.2,0,4.5,0,6.7c0,0.6,0.2,0.7,0.7,0.6C157.7,136.9,159.2,136.9,160.7,136.9z"/>
	<path class="st0" d="M65.2,142.2c-2.5,0-5.1,0-7.6,0c-1.9,0-3-1-3-3c0-4.2,0-8.4,0-12.6c0-1.9,1.1-3,3-3c5.1,0,10.2,0,15.3,0
		c1.9,0,3,1,3,2.9c0,4.2,0,8.5,0,12.7c0,1.9-1,2.9-2.9,2.9C70.3,142.2,67.7,142.2,65.2,142.2z M65.1,136.9c1.6,0,3.1,0,4.7,0
		c0.5,0,0.7-0.1,0.7-0.7c0-2.2,0-4.5,0-6.7c0-0.4-0.1-0.6-0.6-0.6c-3.1,0-6.3,0-9.4,0c-0.5,0-0.6,0.2-0.6,0.6c0,2.2,0,4.4,0,6.7
		c0,0.5,0.2,0.7,0.7,0.7C62.1,136.9,63.6,136.9,65.1,136.9z"/>
	<path class="st0" d="M160.8,94.4c2.6,0,5.1,0,7.7,0c1.8,0,2.9,1.1,2.9,2.8c0,4.3,0,8.6,0,12.8c0,1.8-1.1,2.9-2.9,2.9
		c-5.1,0-10.2,0-15.3,0c-1.9,0-3-1-3-3c0-4.2,0-8.4,0-12.7c0-2,1-3,3-3C155.7,94.4,158.3,94.4,160.8,94.4z M160.7,107.7
		c1.6,0,3.2,0,4.8,0c0.5,0,0.7-0.1,0.7-0.6c0-2.3,0-4.5,0-6.8c0-0.5-0.2-0.6-0.7-0.6c-3.1,0-6.2,0-9.3,0c-0.5,0-0.7,0.1-0.7,0.7
		c0,2.2,0,4.5,0,6.7c0,0.6,0.2,0.7,0.7,0.7C157.7,107.7,159.2,107.7,160.7,107.7z"/>
	<path class="st0" d="M65.2,94.4c2.6,0,5.1,0,7.7,0c1.8,0,2.9,1,2.9,2.8c0,4.3,0,8.6,0,12.8c0,1.9-1.1,2.9-2.9,2.9
		c-5.1,0-10.2,0-15.3,0c-1.9,0-3-1.1-3-2.9c0-4.2,0-8.4,0-12.7c0-1.9,1.1-3,3-3C60.1,94.4,62.7,94.4,65.2,94.4z M65.2,99.7
		c-1.5,0-3.1,0-4.6,0c-0.5,0-0.8,0.1-0.8,0.7c0,2.2,0,4.4,0,6.6c0,0.5,0.1,0.7,0.7,0.7c3.1,0,6.2,0,9.3,0c0.5,0,0.7-0.1,0.7-0.7
		c0-2.2,0-4.5,0-6.7c0-0.6-0.2-0.7-0.7-0.7C68.3,99.7,66.7,99.7,65.2,99.7z"/>
	<path class="st0" d="M128.9,113c-2.5,0-5.1,0-7.6,0c-1.9,0-2.9-1.1-3-2.9c0-4.2,0-8.5,0-12.7c0-1.9,1-2.9,2.9-2.9
		c5.1,0,10.3,0,15.4,0c1.8,0,2.9,1.1,2.9,2.8c0,4.3,0,8.6,0,12.9c0,1.7-1.1,2.8-2.8,2.8C134.1,113,131.5,113,128.9,113z
		 M128.9,107.7c1.6,0,3.2,0,4.8,0c0.5,0,0.7-0.1,0.7-0.6c0-2.2,0-4.4,0-6.7c0-0.5-0.2-0.7-0.7-0.7c-3.1,0-6.2,0-9.4,0
		c-0.5,0-0.7,0.1-0.7,0.6c0,2.2,0,4.4,0,6.7c0,0.5,0.2,0.7,0.7,0.7C125.8,107.7,127.3,107.7,128.9,107.7z"/>
	<path class="st0" d="M97.1,94.4c2.6,0,5.1,0,7.7,0c1.8,0,2.9,1,2.9,2.8c0,4.3,0,8.6,0,12.9c0,1.7-1.1,2.8-2.8,2.8
		c-5.2,0-10.3,0-15.5,0c-1.8,0-2.9-1.1-2.9-2.9c0-4.3,0-8.6,0-12.8c0-1.8,1.1-2.9,2.9-2.9C91.9,94.4,94.5,94.4,97.1,94.4z
		 M97.2,99.7c-1.6,0-3.1,0-4.7,0c-0.5,0-0.8,0.1-0.8,0.7c0,2.2,0,4.4,0,6.7c0,0.4,0.1,0.6,0.6,0.6c3.2,0,6.3,0,9.5,0
		c0.5,0,0.6-0.2,0.6-0.6c0-2.3,0-4.5,0-6.8c0-0.5-0.2-0.6-0.6-0.6C100.2,99.7,98.7,99.7,97.2,99.7z"/>
	<path class="st0" d="M97.1,152.8c2.5,0,5.1,0,7.6,0c1.9,0,2.9,1,2.9,2.9c0,4.2,0,8.5,0,12.7c0,1.8-1.1,2.9-2.9,2.9
		c-5.1,0-10.3,0-15.4,0c-1.8,0-2.9-1.1-2.9-2.9c0-4.3,0-8.5,0-12.8c0-1.8,1.1-2.9,2.9-2.9C91.9,152.8,94.5,152.8,97.1,152.8z
		 M97.1,166.1c1.5,0,3.1,0,4.6,0c0.5,0,0.8-0.1,0.8-0.7c0-2.2,0-4.4,0-6.6c0-0.6-0.2-0.7-0.8-0.7c-3.1,0-6.1,0-9.2,0
		c-0.5,0-0.8,0.1-0.8,0.7c0,2.2,0,4.4,0,6.6c0,0.6,0.2,0.7,0.8,0.7C94,166.1,95.5,166.1,97.1,166.1z"/>
	<path class="st0" d="M97,142.2c-2.5,0-5.1,0-7.6,0c-1.9,0-2.9-1-2.9-3c0-4.2,0-8.4,0-12.7c0-1.9,1.1-3,3-3c5.1,0,10.2,0,15.3,0
		c1.9,0,2.9,1.1,2.9,2.9c0,4.3,0,8.5,0,12.8c0,1.8-1,2.8-2.9,2.8C102.2,142.2,99.6,142.2,97,142.2z M97,136.9c1.6,0,3.1,0,4.7,0
		c0.5,0,0.7-0.1,0.7-0.7c0-2.2,0-4.4,0-6.7c0-0.5-0.1-0.7-0.6-0.6c-3.1,0-6.3,0-9.4,0c-0.4,0-0.6,0.1-0.6,0.6c0,2.3,0,4.5,0,6.8
		c0,0.6,0.2,0.7,0.7,0.7C94,136.9,95.5,136.9,97,136.9z"/>
	<path class="st0" d="M128.9,171.4c-2.5,0-5,0-7.5,0c-2.1,0-3.1-1-3.1-3.1c0-4.2,0-8.3,0-12.5c0-2,1-3,3-3c5.1,0,10.1,0,15.2,0
		c2,0,3,1,3,3c0,4.2,0,8.3,0,12.5c0,2-1,3.1-3.1,3.1C133.9,171.4,131.4,171.4,128.9,171.4z M128.9,166.1c1.5,0,3,0,4.5,0
		c0.6,0,0.9-0.1,0.9-0.8c0-2.1,0-4.2,0-6.3c0-0.6-0.2-0.8-0.8-0.8c-3,0-6.1,0-9.1,0c-0.6,0-0.8,0.1-0.8,0.8c0,2.2,0,4.3,0,6.5
		c0,0.6,0.1,0.8,0.7,0.7C125.8,166.1,127.4,166.1,128.9,166.1z"/>
	<path class="st0" d="M128.9,142.2c-2.5,0-5.1,0-7.6,0c-1.9,0-2.9-1-2.9-2.9c0-4.2,0-8.5,0-12.7c0-1.8,1.1-2.9,2.9-2.9
		c5.1,0,10.2,0,15.3,0c1.9,0,3,1.1,3,3c0,4.2,0,8.5,0,12.7c0,1.8-1,2.9-2.8,2.9C134.1,142.2,131.5,142.2,128.9,142.2z M128.9,136.9
		c1.6,0,3.1,0,4.7,0c0.6,0,0.8-0.1,0.8-0.7c0-2.2,0-4.4,0-6.6c0-0.5-0.1-0.7-0.7-0.7c-3.1,0-6.2,0-9.4,0c-0.6,0-0.7,0.2-0.7,0.7
		c0,2.2,0,4.3,0,6.5c0,0.6,0.1,0.8,0.8,0.8C125.9,136.9,127.4,136.9,128.9,136.9z"/>
</g>
</svg>
