<?xml version="1.0" encoding="utf-8"?>
<!-- Generator: Adobe Illustrator 22.1.0, SVG Export Plug-In . SVG Version: 6.00 Build 0)  -->
<svg version="1.1" id="Layer_1" xmlns="http://www.w3.org/2000/svg" xmlns:xlink="http://www.w3.org/1999/xlink" x="0px" y="0px"
	 width="226px" height="226px" viewBox="0 0 226 226" style="enable-background:new 0 0 226 226;" xml:space="preserve">
<style type="text/css">
	.st0{fill:#FFFFFF;}
</style>
<g>
	<path class="st0" d="M169.1,96.7c-0.4,0-0.8-0.2-1.2-0.5c-4.3-4.2-8.5-8.3-12.4-12.3c-0.8-0.8-0.7-1.9,0.1-2.8
		c4.3-4.3,8.2-8.2,12.1-12c0.5-0.4,1-0.7,1.6-0.7c0.5,0,1,0.2,1.4,0.6c0.8,0.8,0.8,2.1-0.1,3c-1,1.1-2.1,2.1-3.3,3.2
		c-0.6,0.5-1.1,1.1-1.7,1.6l-3,2.9l4.1,0.6c1.7,0.2,3.4,0.4,5,0.4c11.8,0,20.7-6.6,23.2-17.3c1.5-6.4,0.1-13.1-4-18.4
		c-4.1-5.3-10.2-8.5-16.8-8.7c-2-0.1-2.3-0.6-2.6-1.3c-0.3-0.6-0.2-1.2,0.1-1.7c0.4-0.6,1.3-1,2.2-1c11.7,0,22.5,8.7,25.1,20.2
		l0.7,3.1v6c-0.1,0.4-0.2,0.8-0.3,1.2c-0.2,1-0.5,2-0.8,3c-3.1,11-13.3,18.8-24.7,19c-0.8,0-1.6,0-2.4,0l-4.5,0h-4.8l3.4,3.4
		c0.6,0.6,1.2,1.2,1.8,1.8c1.2,1.2,2.3,2.3,3.3,3.4c0.5,0.5,0.7,1.2,0.7,1.8c-0.1,0.6-0.4,1.1-0.9,1.4
		C169.9,96.5,169.5,96.7,169.1,96.7z"/>
	<path class="st0" d="M165.2,193.9c-34.2-0.3-64.6-11.7-90.4-34C50.6,139,35.1,112.2,28.9,80.1c-1.5-7.9-2.3-16.4-2.3-25.2
		c0-5.9,4.4-10.3,10.3-10.3c1.7,0,3.4,0,5.1,0l17.4,0c1.8,0,3.7,0,5.5,0c5.7,0,10.1,4.4,10.2,9.9c0,9.6,1.5,19.1,4.5,28.3
		c1.1,3.6,0.5,6.7-2.1,10c-2.5,3.2-5,6.5-7.4,9.6c-1.8,2.4-3.6,4.7-5.4,7.1c-1.4,1.8-0.5,3.5-0.1,4.2l0.1,0.2
		c9.3,17.5,22.8,31.3,40.1,41c1.5,0.9,2.7,1.2,3.9,1.2c1.5,0,2.9-0.6,4.4-1.8c4.1-3.4,8.5-6.6,12.7-9.8l2.8-2.1c1.7-1.3,3.6-2,5.5-2
		c0.9,0,1.8,0.1,2.7,0.4c9.5,3,19.6,4.6,29.9,4.8c4.6,0.1,8.7,4.1,9,8.7c0.2,4.4,0.2,9,0.2,13.4c0,1.8,0,3.6,0,5.4
		c0,3.1,0,6.6,0,10.2c-0.1,6.4-4.2,10.6-10.5,10.6L165.2,193.9z M50.6,48.7c-4.4,0-8.9,0-13.3,0c-2.1,0-3.8,0.6-5,1.8
		c-1.2,1.2-1.7,2.9-1.7,5c0.1,18.4,3.8,36,11,52.6c12.3,28,32,49.8,58.6,64.8c19.9,11.2,41.7,16.9,64.9,17c0,0,0,0,0,0
		c4.2,0,6.6-2.4,6.6-6.7c0-3,0-6.1,0-9.1l0-8.4c0-3.1,0-6.3,0-9.4c0-4.3-2.4-6.7-6.6-6.7c-9.6,0-19.1-1.5-28.4-4.5
		c-0.8-0.3-1.6-0.4-2.3-0.4c-1.5,0-2.9,0.5-4.2,1.5c-2.7,2.1-5.5,4.2-8.2,6.2c-3.5,2.6-7.1,5.4-10.6,8.1c-1.1,0.8-1.7,0.9-2.2,0.9
		c-0.6,0-1.3-0.2-2.1-0.6c-21.1-10.7-37.1-26.7-47.7-47.7c-0.8-1.6-0.7-2.7,0.4-4.1c3-3.9,6-7.9,9-11.8c1.8-2.4,3.6-4.8,5.5-7.2
		c1.5-2,1.9-4.2,1.1-6.4c-2.9-8.8-4.4-18.1-4.6-28.4c-0.1-4.2-2.4-6.6-6.7-6.6C59.7,48.7,55.2,48.7,50.6,48.7z"/>
</g>
<g>
	<path d="M452.8,22c0.7,0,1.4,0,2.1,0c0.1,0.1,0.3,0.1,0.4,0.2c3.2,0.6,5.7,3,6.3,6.3c0.2,1.1,0.2,2.2,0.1,3.3c0,0.8,0.2,1,1,1
		c5.8,0,11.6,0,17.3,0c0.8,0,1.6,0,2.3,0.2c5.1,1.1,8.6,5.3,8.6,10.6c0,23,0,46,0,68.9c0,22.9,0,45.7,0,68.6c0,2-0.4,4-1.4,5.7
		c-2.2,3.7-5.5,5.3-9.8,5.3c-47.7,0-95.4,0-143.1,0c-1.7,0-3.5,0-5.2,0c-3.9-0.1-6.9-1.9-9-5.2c-0.8-1.3-1.2-2.7-1.5-4.2
		c0-46.9,0-93.8,0-140.7c0-0.1,0.1-0.1,0.1-0.2c0.6-4.7,4.9-9.2,11.1-9.1c5.7,0.1,11.4,0,17.1,0c0.8,0,1-0.2,1-1
		c-0.1-0.7,0-1.4,0-2.1c0.2-3.1,1.7-5.3,4.5-6.7c0.7-0.4,1.6-0.5,2.3-0.8c0.7,0,1.4,0,2.1,0c0.2,0.1,0.3,0.1,0.5,0.2
		c3.1,0.7,5.1,2.5,6.1,5.4c0.5,1.3,0.4,2.7,0.3,4.1c0,0.8,0.2,1,1,1c25.9,0,51.9,0,77.8,0c0.7,0,1.1-0.1,1-0.9c-0.1-0.6,0-1.2,0-1.8
		c0-2.5,1.1-4.5,3-6.1C450,22.8,451.4,22.4,452.8,22z M406.1,67.1c-26.2,0-52.3,0-78.5,0c-1.4,0-1.3-0.2-1.3,1.2
		c0,37.4,0,74.7,0,112.1c0,0.4,0,0.9,0,1.3c0.2,2,1.2,3.4,2.9,4.3c1,0.5,2.1,0.6,3.2,0.6c49,0,98,0,147.1,0c0.5,0,0.9,0,1.4-0.1
		c2.3-0.3,3.7-1.5,4.5-3.7c0.3-0.8,0.3-1.6,0.3-2.5c0-37.4,0-74.8,0-112.2c0-1.3,0.1-1.2-1.2-1.2C458.4,67.1,432.2,67.1,406.1,67.1z
		 M406,61.9c26.2,0,52.4,0,78.6,0c0.8,0,1-0.2,1-1c0-5.7,0-11.4,0-17.2c0-3.6-2.1-5.8-5.8-5.8c-5.8,0-11.5,0-17.3,0
		c-0.7,0-0.9,0.2-0.9,0.9c0,3.4,0.1,6.8,0,10.1c-0.1,4.1-3.5,7.4-7.6,7.6c-4.5,0.1-8.1-3.3-8.2-7.8c-0.1-3.3,0-6.6,0-10
		c0-0.7-0.2-0.8-0.8-0.8c-1.7,0-3.5,0-5.2,0c-24.1,0-48.3,0-72.4,0c-1.3,0-1.3,0-1.3,1.3c0,3.2,0,6.4,0,9.5
		c-0.1,4.2-3.6,7.6-7.7,7.7c-4.6,0.1-8.1-3.4-8.1-8.2c0-3.1,0-6.3,0-9.5c0-0.7-0.2-1-0.9-1c-5.7,0-11.4,0-17.2,0
		c-0.5,0-1.1,0-1.6,0.1c-2.6,0.6-4.2,2.7-4.2,5.5c0,5.7,0,11.4,0,17.1c0,1.2,0,1.2,1.2,1.2C353.7,61.9,379.8,61.9,406,61.9z
		 M456.5,39.3c0-3,0-6,0-9c0-1.7-1.1-2.9-2.6-2.9c-1.6,0-2.7,1.2-2.7,2.9c0,6,0,12,0,18c0,1.8,1.1,3,2.7,2.9c1.6,0,2.6-1.2,2.6-2.9
		C456.5,45.3,456.5,42.3,456.5,39.3z M355.5,39.3c0,3,0,6,0,9c0,1.7,1.1,2.9,2.6,2.9c1.6,0,2.7-1.2,2.7-2.9c0-6,0-12,0-18
		c0-1.8-1.1-3-2.7-2.9c-1.6,0-2.6,1.2-2.6,2.9C355.5,33.2,355.5,36.2,355.5,39.3z"/>
	<path d="M358.2,146.8c2.5,0,5.1,0,7.6,0c1.9,0,3,1,3,2.9c0,4.2,0,8.5,0,12.7c0,1.9-1.1,2.9-3,2.9c-5.1,0-10.2,0-15.3,0
		c-1.9,0-3-1.1-3-3c0-4.2,0-8.4,0-12.6c0-1.9,1-3,3-3C353.1,146.8,355.6,146.8,358.2,146.8z M358.1,160.1c1.6,0,3.1,0,4.7,0
		c0.5,0,0.7-0.1,0.7-0.7c0-2.2,0-4.4,0-6.7c0-0.6-0.2-0.7-0.7-0.7c-3.1,0-6.1,0-9.2,0c-0.5,0-0.8,0.1-0.8,0.7c0,2.2,0,4.4,0,6.6
		c0,0.6,0.2,0.7,0.8,0.7C355.1,160.1,356.6,160.1,358.1,160.1z"/>
	<path d="M453.8,136.2c-2.5,0-5.1,0-7.6,0c-1.9,0-2.9-1-2.9-2.9c0-4.2,0-8.4,0-12.7c0-1.9,1.1-3,3-3c5.1,0,10.1,0,15.2,0
		c2,0,3,1.1,3,3.1c0,4.2,0,8.3,0,12.5c0,2-1,3-3,3C458.8,136.2,456.3,136.2,453.8,136.2z M453.7,130.9c1.6,0,3.1,0,4.7,0
		c0.5,0,0.8-0.1,0.8-0.7c0-2.2,0-4.4,0-6.7c0-0.5-0.1-0.6-0.6-0.6c-3.1,0-6.3,0-9.4,0c-0.5,0-0.6,0.2-0.6,0.6c0,2.2,0,4.5,0,6.7
		c0,0.6,0.2,0.7,0.7,0.6C450.7,130.9,452.2,130.9,453.7,130.9z"/>
	<path d="M358.2,136.2c-2.5,0-5.1,0-7.6,0c-1.9,0-3-1-3-3c0-4.2,0-8.4,0-12.6c0-1.9,1.1-3,3-3c5.1,0,10.2,0,15.3,0c1.9,0,3,1,3,2.9
		c0,4.2,0,8.5,0,12.7c0,1.9-1,2.9-2.9,2.9C363.3,136.2,360.7,136.2,358.2,136.2z M358.1,130.9c1.6,0,3.1,0,4.7,0
		c0.5,0,0.7-0.1,0.7-0.7c0-2.2,0-4.5,0-6.7c0-0.4-0.1-0.6-0.6-0.6c-3.1,0-6.3,0-9.4,0c-0.5,0-0.6,0.2-0.6,0.6c0,2.2,0,4.4,0,6.7
		c0,0.5,0.2,0.7,0.7,0.7C355.1,130.9,356.6,130.9,358.1,130.9z"/>
	<path d="M453.8,88.4c2.6,0,5.1,0,7.7,0c1.8,0,2.9,1.1,2.9,2.8c0,4.3,0,8.6,0,12.8c0,1.8-1.1,2.9-2.9,2.9c-5.1,0-10.2,0-15.3,0
		c-1.9,0-3-1-3-3c0-4.2,0-8.4,0-12.7c0-2,1-3,3-3C448.7,88.4,451.3,88.4,453.8,88.4z M453.7,101.7c1.6,0,3.2,0,4.8,0
		c0.5,0,0.7-0.1,0.7-0.6c0-2.3,0-4.5,0-6.8c0-0.5-0.2-0.6-0.7-0.6c-3.1,0-6.2,0-9.3,0c-0.5,0-0.7,0.1-0.7,0.7c0,2.2,0,4.5,0,6.7
		c0,0.6,0.2,0.7,0.7,0.7C450.7,101.7,452.2,101.7,453.7,101.7z"/>
	<path d="M358.2,88.4c2.6,0,5.1,0,7.7,0c1.8,0,2.9,1,2.9,2.8c0,4.3,0,8.6,0,12.8c0,1.9-1.1,2.9-2.9,2.9c-5.1,0-10.2,0-15.3,0
		c-1.9,0-3-1.1-3-2.9c0-4.2,0-8.4,0-12.7c0-1.9,1.1-3,3-3C353.1,88.4,355.7,88.4,358.2,88.4z M358.2,93.7c-1.5,0-3.1,0-4.6,0
		c-0.5,0-0.8,0.1-0.8,0.7c0,2.2,0,4.4,0,6.6c0,0.5,0.1,0.7,0.7,0.7c3.1,0,6.2,0,9.3,0c0.5,0,0.7-0.1,0.7-0.7c0-2.2,0-4.5,0-6.7
		c0-0.6-0.2-0.7-0.7-0.7C361.3,93.7,359.7,93.7,358.2,93.7z"/>
	<path d="M421.9,107c-2.5,0-5.1,0-7.6,0c-1.9,0-2.9-1.1-3-2.9c0-4.2,0-8.5,0-12.7c0-1.9,1-2.9,2.9-2.9c5.1,0,10.3,0,15.4,0
		c1.8,0,2.9,1.1,2.9,2.8c0,4.3,0,8.6,0,12.9c0,1.7-1.1,2.8-2.8,2.8C427.1,107,424.5,107,421.9,107z M421.9,101.7c1.6,0,3.2,0,4.8,0
		c0.5,0,0.7-0.1,0.7-0.6c0-2.2,0-4.4,0-6.7c0-0.5-0.2-0.7-0.7-0.7c-3.1,0-6.2,0-9.4,0c-0.5,0-0.7,0.1-0.7,0.6c0,2.2,0,4.4,0,6.7
		c0,0.5,0.2,0.7,0.7,0.7C418.8,101.7,420.3,101.7,421.9,101.7z"/>
	<path d="M390.1,88.4c2.6,0,5.1,0,7.7,0c1.8,0,2.9,1,2.9,2.8c0,4.3,0,8.6,0,12.9c0,1.7-1.1,2.8-2.8,2.8c-5.2,0-10.3,0-15.5,0
		c-1.8,0-2.9-1.1-2.9-2.9c0-4.3,0-8.6,0-12.8c0-1.8,1.1-2.9,2.9-2.9C384.9,88.4,387.5,88.4,390.1,88.4z M390.2,93.7
		c-1.6,0-3.1,0-4.7,0c-0.5,0-0.8,0.1-0.8,0.7c0,2.2,0,4.4,0,6.7c0,0.4,0.1,0.6,0.6,0.6c3.2,0,6.3,0,9.5,0c0.5,0,0.6-0.2,0.6-0.6
		c0-2.3,0-4.5,0-6.8c0-0.5-0.2-0.6-0.6-0.6C393.2,93.7,391.7,93.7,390.2,93.7z"/>
	<path d="M390.1,146.8c2.5,0,5.1,0,7.6,0c1.9,0,2.9,1,2.9,2.9c0,4.2,0,8.5,0,12.7c0,1.8-1.1,2.9-2.9,2.9c-5.1,0-10.3,0-15.4,0
		c-1.8,0-2.9-1.1-2.9-2.9c0-4.3,0-8.5,0-12.8c0-1.8,1.1-2.9,2.9-2.9C384.9,146.8,387.5,146.8,390.1,146.8z M390.1,160.1
		c1.5,0,3.1,0,4.6,0c0.5,0,0.8-0.1,0.8-0.7c0-2.2,0-4.4,0-6.6c0-0.6-0.2-0.7-0.8-0.7c-3.1,0-6.1,0-9.2,0c-0.5,0-0.8,0.1-0.8,0.7
		c0,2.2,0,4.4,0,6.6c0,0.6,0.2,0.7,0.8,0.7C387,160.1,388.5,160.1,390.1,160.1z"/>
	<path d="M390,136.2c-2.5,0-5.1,0-7.6,0c-1.9,0-2.9-1-2.9-3c0-4.2,0-8.4,0-12.7c0-1.9,1.1-3,3-3c5.1,0,10.2,0,15.3,0
		c1.9,0,2.9,1.1,2.9,2.9c0,4.3,0,8.5,0,12.8c0,1.8-1,2.8-2.9,2.8C395.2,136.2,392.6,136.2,390,136.2z M390,130.9c1.6,0,3.1,0,4.7,0
		c0.5,0,0.7-0.1,0.7-0.7c0-2.2,0-4.4,0-6.7c0-0.5-0.1-0.7-0.6-0.6c-3.1,0-6.3,0-9.4,0c-0.4,0-0.6,0.1-0.6,0.6c0,2.3,0,4.5,0,6.8
		c0,0.6,0.2,0.7,0.7,0.7C387,130.9,388.5,130.9,390,130.9z"/>
	<path d="M421.9,165.4c-2.5,0-5,0-7.5,0c-2.1,0-3.1-1-3.1-3.1c0-4.2,0-8.3,0-12.5c0-2,1-3,3-3c5.1,0,10.1,0,15.2,0c2,0,3,1,3,3
		c0,4.2,0,8.3,0,12.5c0,2-1,3.1-3.1,3.1C426.9,165.4,424.4,165.4,421.9,165.4z M421.9,160.1c1.5,0,3,0,4.5,0c0.6,0,0.9-0.1,0.9-0.8
		c0-2.1,0-4.2,0-6.3c0-0.6-0.2-0.8-0.8-0.8c-3,0-6.1,0-9.1,0c-0.6,0-0.8,0.1-0.8,0.8c0,2.2,0,4.3,0,6.5c0,0.6,0.1,0.8,0.7,0.7
		C418.8,160.1,420.4,160.1,421.9,160.1z"/>
	<path d="M421.9,136.2c-2.5,0-5.1,0-7.6,0c-1.9,0-2.9-1-2.9-2.9c0-4.2,0-8.5,0-12.7c0-1.8,1.1-2.9,2.9-2.9c5.1,0,10.2,0,15.3,0
		c1.9,0,3,1.1,3,3c0,4.2,0,8.5,0,12.7c0,1.8-1,2.9-2.8,2.9C427.1,136.2,424.5,136.2,421.9,136.2z M421.9,130.9c1.6,0,3.1,0,4.7,0
		c0.6,0,0.8-0.1,0.8-0.7c0-2.2,0-4.4,0-6.6c0-0.5-0.1-0.7-0.7-0.7c-3.1,0-6.2,0-9.4,0c-0.6,0-0.7,0.2-0.7,0.7c0,2.2,0,4.3,0,6.5
		c0,0.6,0.1,0.8,0.8,0.8C418.9,130.9,420.4,130.9,421.9,130.9z"/>
</g>
</svg>
