<?xml version="1.0" encoding="utf-8"?>
<!-- Generator: Adobe Illustrator 22.1.0, SVG Export Plug-In . SVG Version: 6.00 Build 0)  -->
<svg version="1.1" id="Layer_1" xmlns="http://www.w3.org/2000/svg" xmlns:xlink="http://www.w3.org/1999/xlink" x="0px" y="0px"
	 width="226px" height="226px" viewBox="0 0 226 226" style="enable-background:new 0 0 226 226;" xml:space="preserve">
<path d="M86.4,26c3.3,1.8,6.8,3.3,10.3,5c5,2.4,9.9,4.8,14.9,7.2c1.8,0.9,2,1.6,1.2,3.4c-1.3,2.7-2.6,5.4-3.9,8.1
	c-0.3,0.6-0.3,0.9,0.4,1.2c19.4,8.6,38.5,17.6,57.8,26.5c1.1,0.5,1.6,0.5,2.4-0.6c3.9-5.3,10.5-7.6,16.8-6
	c6.2,1.6,10.8,6.8,11.7,13.2c0,0.3,0.1,0.6,0.2,0.9c0,1,0,2,0,3c-0.2,0.9-0.4,1.8-0.6,2.7c-2.6,9.1-12.4,14-21.1,10.5
	c-0.9-0.4-1.1-0.1-1.5,0.6c-11,20.2-22,40.4-33.1,60.7c-0.3,0.6-0.5,1.1-0.4,1.7c0,3.3,0,6.7,0,10c0,0.9,0.3,1.1,1.1,1.1
	c8.4,0,16.9,0,25.3,0c7.6,0,13.9,5,15.7,12.3c0.3,1.4,0.4,2.8,0.4,4.3c0,2.1,0,4.2,0,6.2c0,1.3-0.7,1.9-1.9,2c-0.3,0-0.6,0-0.9,0
	c-27.7,0-55.4,0-83,0c-2.4,0-2.8-0.4-2.8-2.8c0-2.9-0.3-5.8,0.2-8.6c1.4-7.9,7.9-13.4,15.9-13.4c8.4,0,16.7,0,25.1,0
	c1,0,1.4-0.2,1.3-1.3c-0.1-3.3,0-6.7,0-10c0-1.1,0.2-2,0.7-2.9c11.1-20.2,22.1-40.5,33.2-60.7c0.5-1,0.6-1.5-0.3-2.4
	c-4.5-4.3-6.1-9.6-4.5-15.7c0.2-0.7,0-1-0.6-1.3c-19.5-9-38.9-17.9-58.4-26.9c-0.6-0.3-0.9-0.3-1.3,0.4c-2,4.2-3.9,8.3-6,12.5
	c-0.3,0.6-0.1,1,0.3,1.5c4.9,5.5,8.3,11.8,10.1,18.9c2.5,10.2,1.5,20.1-2.9,29.7c-0.6,1.4-1.5,1.6-3.1,0.9
	c-8.5-4.1-17-8.1-25.5-12.2c-16.7-8-33.3-16-50-24c-0.7-0.3-1.4-0.7-1.8-1.5c0-0.4,0-0.8,0-1.1c0.1-0.1,0.2-0.3,0.3-0.4
	c9.1-16.8,23.2-25.2,42.4-24.8c0.8,0,1.1-0.3,1.4-0.9c4-8.3,8-16.6,11.9-24.9c0.3-0.7,0.8-1.4,1.4-1.8C85.7,26,86,26,86.4,26z
	 M108.9,97.7c-0.1-3-0.4-6.3-1.2-9.5c-5.1-20.3-24.3-33.5-45.1-30.6c-13.2,1.8-23.1,8.8-30,20.2c-0.4,0.7-0.5,1.1,0.4,1.5
	c23.9,11.4,47.8,22.9,71.7,34.3c0.7,0.3,1,0.3,1.3-0.5C107.8,108.2,108.8,103.2,108.9,97.7z M139.5,196.4c13.1,0,26.2,0,39.3,0
	c0.3,0,0.6,0,0.9,0c0.5,0,0.7-0.1,0.7-0.6c-0.1-2.4,0.2-4.9-0.3-7.2c-1.3-6-6.3-9.8-12.5-9.9c-13.8,0-27.6,0-41.5,0c-5,0-10,0-15,0
	c-6,0.1-11,4.1-12.2,10c-0.5,2.2-0.2,4.4-0.3,6.6c-0.1,1.1,0.3,1.2,1.3,1.2C113.2,196.4,126.3,196.4,139.5,196.4z M97.5,64.8
	c0.4-0.2,0.4-0.5,0.6-0.8c3.6-7.4,7.2-14.7,10.8-22.1c0.3-0.6,0.3-0.9-0.4-1.3c-7-3.3-14-6.7-21-10c-0.5-0.3-0.8-0.3-1.1,0.3
	c-3.6,7.5-7.2,15.1-10.8,22.6c-0.3,0.6-0.2,0.8,0.5,0.9c7.8,1.4,14.8,4.7,20.9,9.9C97.1,64.5,97.3,64.6,97.5,64.8z M182.2,73.8
	c-6.8,0-12.4,5.5-12.4,12.2c-0.1,6.9,5.5,12.6,12.4,12.6c6.8,0,12.4-5.5,12.4-12.4C194.6,79.4,189.1,73.9,182.2,73.8z"/>
<polygon points="86.7,235.8 86.7,235.7 86.7,235.7 "/>
<polygon points="97.3,235.8 97.3,235.7 97.4,235.7 "/>
</svg>
