<?xml version="1.0" encoding="utf-8"?>
<!-- Generator: Adobe Illustrator 22.1.0, SVG Export Plug-In . SVG Version: 6.00 Build 0)  -->
<svg version="1.1" id="Layer_1" xmlns="http://www.w3.org/2000/svg" xmlns:xlink="http://www.w3.org/1999/xlink" x="0px" y="0px"
	 width="226px" height="226px" viewBox="0 0 226 226" style="enable-background:new 0 0 226 226;" xml:space="preserve">
<g>
	<path d="M95.8,167c0,10.8-0.1,21.7,0.1,32.5c0.1,3.4-0.7,4.7-4.4,4.6c-11-0.2-22-0.2-33,0c-3.8,0.1-4.8-1.1-4.7-4.8
		c0.2-21.5,0-43,0.2-64.5c0-3.6-1-5.6-4.3-7.4C25.2,114,15.6,83.7,27.9,58.9c12.4-25.1,42.2-37,67.3-25
		c34.2,16.2,69.9,23.4,107.5,22c7.8-0.3,6.8-0.8,6.9,6.9c0.1,13.2-0.2,26.3,0.1,39.5c0.1,4.3-0.9,5.7-5.4,5.6
		c-20.8-0.5-41.6-0.1-62.1,4.8c-14.6,3.5-28.7,8.5-42.3,14.9c-3,1.4-4.2,3-4.1,6.4C96,145,95.8,156,95.8,167z M58.2,162.4
		c0,10.7,0.1,21.3-0.1,32c-0.1,3.8,0.9,5.3,5,5.2c7.5-0.3,15-0.4,22.5,0c4.8,0.3,5.7-1.5,5.7-5.9c-0.2-21-0.1-42-0.2-63
		c0-2.9,0.8-4.4,3.5-5.7c10.4-4.9,21-9.4,32-12.8c19.9-6.2,40.3-8.9,61.1-9.1c5.6,0,12.9,2.4,16.3-1.1c3.4-3.5,0.8-10.8,1-16.4
		c0.2-6.3,0-12.7,0-19c0-6.5,0-6.8-6.4-6.5c-36.1,1.4-70.5-5.7-103.2-21.3C71.1,27.2,43,37.4,31.7,61.5
		c-11.2,23.9-1.3,51.6,22.9,63.4c2.9,1.4,3.8,3,3.7,6C58.1,141.4,58.2,151.9,58.2,162.4z"/>
	<path d="M102,81.7c0,15.3-12,27.2-27.3,27.2c-15.2,0-27.2-12.2-27.1-27.4c0.1-15,12-26.9,27-27C89.8,54.4,102,66.5,102,81.7z
		 M74.7,104.4c12.4,0.1,22.6-9.8,22.8-22.3C97.8,69.6,87.5,59,74.9,59C62.7,58.9,52.3,69.1,52,81.4C51.8,93.9,62.1,104.3,74.7,104.4
		z"/>
</g>
</svg>
