<?xml version="1.0" encoding="utf-8"?>
<!-- Generator: Adobe Illustrator 22.1.0, SVG Export Plug-In . SVG Version: 6.00 Build 0)  -->
<svg version="1.1" id="Layer_1" xmlns="http://www.w3.org/2000/svg" xmlns:xlink="http://www.w3.org/1999/xlink" x="0px" y="0px"
	 width="226px" height="226px" viewBox="0 0 226 226" style="enable-background:new 0 0 226 226;" xml:space="preserve">
<path d="M199.1,122.4c0.1-0.5,0.2-0.9,0.2-1.4v-6.4c0-4.8-3.9-8.7-8.7-8.7h-4.5V55.2c0-6.9-5.6-12.5-12.5-12.5h-121
	c-6.9,0-12.5,5.6-12.5,12.5V106h-4.8c-4.8,0-8.7,3.9-8.7,8.7v6.4c0,0.5,0.1,1,0.2,1.4c-6,2-10.2,7.7-10.2,14.1v29.9
	c0,3.9,3.2,7.1,7.1,7.1h12.3v5.2c0,2.5,2,4.6,4.6,4.6h3.4c2.5,0,4.6-2,4.6-4.6v-5.2h133.1v5.2c0,2.5,2,4.6,4.6,4.6h3.4
	c2.5,0,4.6-2,4.6-4.6v-5.2h8c3.9,0,7.1-3.2,7.1-7.1v-29.9C209.3,130.1,205.1,124.4,199.1,122.4z M189.8,173.8v4.9
	c0,0.1-0.1,0.1-0.1,0.1h-3.4c-0.1,0-0.1-0.1-0.1-0.1v-4.9H189.8z M44.2,173.8v4.9c0,0.1-0.1,0.1-0.1,0.1h-3.4
	c-0.1,0-0.1-0.1-0.1-0.1v-4.9H44.2z M64.8,102.5c0-0.3,0.3-0.6,0.6-0.6h30.5c0.3,0,0.6,0.3,0.6,0.6v3.1H64.8V102.5z M161,97.5h-30.5
	c-2.8,0-5,2.2-5,5v3.1h-24.7v-3.1c0-2.8-2.2-5-5-5H65.4c-2.8,0-5,2.2-5,5v3.1H44.6V55.2c0-4.4,3.6-8.1,8.1-8.1h121
	c4.4,0,8.1,3.6,8.1,8.1v50.4h-15.8v-3.1C165.9,99.7,163.7,97.5,161,97.5z M129.9,102.5c0-0.3,0.3-0.6,0.6-0.6H161
	c0.3,0,0.6,0.3,0.6,0.6v3.1h-31.6V102.5z M194.9,121c0,0.4-0.3,0.7-0.7,0.7H31.8c-0.4,0-0.7-0.3-0.7-0.7v-6.4c0-2.3,1.9-4.2,4.2-4.2
	h155.3c2.3,0,4.2,1.9,4.2,4.2V121z M204.9,166.5c0,1.5-1.2,2.6-2.6,2.6H23.8c-1.5,0-2.6-1.2-2.6-2.6v-29.9c0-5.8,4.7-10.4,10.4-10.4
	h162.9c5.8,0,10.4,4.7,10.4,10.4L204.9,166.5z"/>
</svg>
