<?xml version="1.0" encoding="utf-8"?>
<!-- Generator: Adobe Illustrator 22.1.0, SVG Export Plug-In . SVG Version: 6.00 Build 0)  -->
<svg version="1.1" id="Layer_1" xmlns="http://www.w3.org/2000/svg" xmlns:xlink="http://www.w3.org/1999/xlink" x="0px" y="0px"
	 width="226px" height="226px" viewBox="0 0 226 226" style="enable-background:new 0 0 226 226;" xml:space="preserve">
<style type="text/css">
	.st0{fill:#FFFFFF;}
</style>
<path class="st0" d="M71.4,197.4c-11.8,0-23.6,0-35.4,0c-6,0-9.5-3.5-9.5-9.5c0-9.8,0-19.5,0-29.3c0-21.6,0-43.3,0-64.9
	c0-3.2,1.2-5.5,3.8-7.5c17.2-12.4,34.7-25.1,51.6-37.4l20.3-14.7c3.6-2.6,7.3-4,10.9-4s7.2,1.3,10.9,4l20.7,15
	c16.8,12.2,34.1,24.8,51.2,37.1c2.6,1.9,3.8,4.2,3.8,7.5c0,24.5,0,49.5,0,73.6l0,20.6c0,5.9-3.6,9.5-9.5,9.5h-77.6v0L71.4,197.4z
	 M160.2,192.2c9.9,0,19.8,0,29.7,0c1.6,0,3.5-0.3,4.3-2.5c0.8-2.3,0.1-4.7-1.6-5.9l-11.8-8.6c-20.2-14.6-40.4-29.3-60.6-43.9
	c-2.3-1.7-4.8-2.5-7.2-2.5c-2.4,0-4.8,0.8-7,2.4c-21.1,15.3-42.2,30.6-63.3,45.9l-9.9,7.2l-0.2,0.1c-0.4,0.3-0.9,0.6-1,1.3
	c-0.5,2-0.3,3.6,0.6,4.7c0.9,1.2,2.4,1.8,4.5,1.8L160.2,192.2z M140.5,139.7l53.7,39v-77.9L140.5,139.7z M31.7,178.4l0.7-0.4
	l0.4-0.2c0.2-0.1,0.4-0.2,0.5-0.3l12.3-8.9c12.7-9.2,25.3-18.4,38-27.5c0.4-0.3,1-0.8,0.9-1.4c0-0.6-0.5-0.9-1-1.1
	c-0.1-0.1-0.2-0.1-0.3-0.2c-12.4-9-24.7-17.9-37.1-26.9l-14.6-10.5V178.4z M112.9,35.4c-2.7,0.1-5.1,1-7.5,2.7
	c-5.6,4.1-11.3,8.2-16.9,12.3L69.3,64.3c-12,8.7-24.1,17.5-36.1,26.2c-1.3,0.9-1.8,1.7-1.8,2.6c0,0.8,0.5,1.6,1.6,2.3l14.3,10.4
	c13.6,9.8,27.1,19.7,40.7,29.6c0.6,0.4,1.1,0.6,1.6,0.6c0.5,0,1.1-0.2,1.7-0.7c3.2-2.4,6.5-4.8,9.7-7.1l1.5-1.1
	c3.4-2.4,6.9-3.6,10.4-3.6c3.5,0,7,1.2,10.3,3.6l0.6,0.5c3.4,2.5,7,5,10.4,7.6c0.7,0.6,1.3,0.8,1.9,0.8c0.6,0,1.2-0.2,1.9-0.8
	c14.3-10.4,28.9-21,43-31.2l11.5-8.4c1.2-0.9,1.8-1.7,1.8-2.6c0-0.9-0.6-1.7-1.8-2.6c-3.5-2.5-6.9-5-10.4-7.5L165,70.5
	c-14.9-10.8-29.8-21.7-44.8-32.5C118,36.3,115.6,35.5,112.9,35.4L112.9,35.4L112.9,35.4z"/>
</svg>
