<?xml version="1.0" encoding="utf-8"?>
<!-- Generator: Adobe Illustrator 22.1.0, SVG Export Plug-In . SVG Version: 6.00 Build 0)  -->
<svg version="1.1" id="Layer_1" xmlns="http://www.w3.org/2000/svg" xmlns:xlink="http://www.w3.org/1999/xlink" x="0px" y="0px"
	 width="226px" height="226px" viewBox="0 0 226 226" style="enable-background:new 0 0 226 226;" xml:space="preserve">
<path d="M113.1,37c26.2,0,52.3,0,78.5,0c10.8,0,15.1,4.3,15.1,15.2c0,45.8,0,75.6,0,121.5c0,11.3-4.1,15.5-15.3,15.5
	c-52,0-104,0-156,0c-12,0-15.8-3.9-15.8-15.9c0-45.3,0-74.6,0-120c0-12.6,3.8-16.3,16.5-16.3C61.7,37,87.4,37,113.1,37z M112.9,41.5
	c-26,0-52,0-78,0c-8.6,0-10.9,2.4-10.9,11c0,45.7,0,75.3,0,121c0,8.9,2.4,11.3,11.2,11.3c52,0,104,0,156,0c8.5,0,10.9-2.5,10.9-11.1
	c0-45.7,0-75.3,0-121c0-9-2.2-11.2-11.2-11.2C164.9,41.5,138.9,41.5,112.9,41.5z"/>
<path d="M112.9,173.7c-24.1,0-48.3-0.1-72.4,0.1c-4,0-5.4-0.8-5.4-5.1c0.2-42.3,0.2-68.6,0-110.9c0-4.4,1.4-5.1,5.4-5.1
	c48.5,0.1,96.9,0.1,145.4,0c3.7,0,5.1,0.8,5.1,4.9c-0.2,42.5-0.2,68.9,0,111.4c0,4.2-1.5,4.8-5.2,4.8
	C161.6,173.6,137.2,173.7,112.9,173.7z M113,169.1c23,0,46-0.1,69,0.1c3.5,0,4.6-1,4.6-4.5c-0.1-39.6-0.1-63.3,0-102.9
	c0-3.8-1.2-4.8-4.8-4.8c-45.6,0.1-91.3,0.1-136.9,0c-3.9,0-5,1.1-5,5.1c0.1,39.5,0.1,63,0,102.4c0,3.8,1.1,4.8,4.8,4.7
	C67.3,169,90.1,169.1,113,169.1z"/>
<path d="M113.1,152.9c-21.9,0.1-39.8-17.8-39.8-39.7c0-21.9,17.9-39.8,39.8-39.8c21.9,0,39.7,17.8,39.8,39.8
	C152.9,135,135.1,152.8,113.1,152.9z M113.1,90.4c-12.6,0.1-22.9,10.5-22.8,23c0.1,12.3,10.5,22.5,22.8,22.6c12.4,0,23-10.6,22.8-23
	C135.7,100.6,125.3,90.3,113.1,90.4z M115.3,144c-0.1,2.4-0.2,4.6,3.2,4c5.8-1,11.1-3.2,15.8-6.8c0.9-0.7,2.1-1.5,0.8-2.7
	c-2.2-2.2-3.8-5.7-7.8-2.2c-2.3,2.1-5.5,3.1-8.7,3.4C115.7,140.1,115,141.6,115.3,144z M110.9,144.9c-0.1-2.3,0.4-4.4-2.2-4.8
	c-4.3-0.7-8.1-2.6-11.8-4.9c-3.2-1.9-4,1.9-5.7,3.2c-1.9,1.6,0.3,2.5,1.4,3.3c4.3,3.2,9.2,5.1,14.4,6.2
	C110.2,148.6,111.3,147.3,110.9,144.9z M147.9,118.5c0.3-1.6,0.2-3.2-2-3.1c-2.2,0.1-5.3-1.5-6,2.3c-0.7,3.6-1.7,7.2-4,10
	c-3.1,3.8,0.2,5.4,2.2,7c2.9,2.3,3.4-1.3,4.4-2.6C145.5,128.2,147.1,123.4,147.9,118.5z M143.9,110.9c3.5,0.6,4.8-0.7,3.9-4.4
	c-1.1-4.5-2.5-9-5.4-12.7c-0.9-1.2-1.4-4.7-4.1-2.5c-1.9,1.6-5.6,3.1-2.4,7c2.2,2.7,3.4,6.1,3.9,9.6
	C140.1,110.5,141.4,111.2,143.9,110.9z M82.4,115.3c-4.3,0-4.6,0.3-3.9,4.3c0.8,4.5,2.5,8.6,4.9,12.4c3,4.6,3.9,4.6,7.4,0.4
	c1.3-1.6,0.8-2.6-0.1-3.9c-2.1-3-3.6-6.4-4.2-10C86,115.6,84.4,115.1,82.4,115.3z M82.8,110.7c0.6-0.2,2.9,1,3.3-1.8
	c0.7-4.3,2.5-8.2,4.9-11.9c2.1-3.3-1.7-4.1-3.1-5.7c-1.9-2.2-2.8,0.4-3.6,1.5c-3.1,4.2-4.9,9-6,14.1
	C77.6,110.1,78.6,111.4,82.8,110.7z M110.9,82.1c-0.2-1.7,0.8-4.4-2.7-3.9c-6,0.9-11.5,3.1-16.3,6.8c-0.9,0.7-2.1,1.5-0.8,2.7
	c2.2,2.2,3.8,5.8,7.9,2.2c2.3-2.1,5.6-3,8.7-3.5C110.4,86.1,111.3,84.7,110.9,82.1z M115.3,82c0.2,1.6-0.6,3.7,2.2,4.2
	c4.3,0.7,8.1,2.6,11.9,4.9c3.1,1.9,4-1.9,5.7-3.3c1.9-1.7-0.4-2.5-1.4-3.3c-4.2-3.1-8.9-5-14-6.1C116.3,77.7,114.8,78.5,115.3,82z"
	/>
</svg>
