<?xml version="1.0" encoding="utf-8"?>
<!-- Generator: Adobe Illustrator 22.1.0, SVG Export Plug-In . SVG Version: 6.00 Build 0)  -->
<svg version="1.1" id="Layer_1" xmlns="http://www.w3.org/2000/svg" xmlns:xlink="http://www.w3.org/1999/xlink" x="0px" y="0px"
	 width="226px" height="226px" viewBox="0 0 226 226" style="enable-background:new 0 0 226 226;" xml:space="preserve">
<path d="M201.3,35.9H24.7c-2.3,0-4.1,1.8-4.1,4.1v110.4c0,2.3,1.8,4.1,4.1,4.1H70v6.3c0,1.7,1.4,3.1,3.1,3.1h18.8l-0.1,21.9H73.1
	v4.3l19.5,0l56.1,0v-4.3h-18.8l0.1-21.9h18.7c1.7,0,3.1-1.4,3.1-3.1v-6.3h49.5c2.3,0,4.1-1.8,4.1-4.1V40
	C205.4,37.7,203.6,35.9,201.3,35.9z M125.5,185.8H96.2l0.1-21.9h29.3L125.5,185.8z M147.5,159.5H74.3v-5.1h73.1V159.5z M201,150.1
	H25V40.2H201V150.1z"/>
</svg>
