<?xml version="1.0" encoding="utf-8"?>
<!-- Generator: Adobe Illustrator 22.1.0, SVG Export Plug-In . SVG Version: 6.00 Build 0)  -->
<svg version="1.1" id="Layer_1" xmlns="http://www.w3.org/2000/svg" xmlns:xlink="http://www.w3.org/1999/xlink" x="0px" y="0px"
	 width="226px" height="226px" viewBox="0 0 226 226" style="enable-background:new 0 0 226 226;" xml:space="preserve">
<g>
	<path d="M16.2,78.8c-0.1-0.1-0.1-0.1-0.2-0.2c-0.6-0.7-1.3-1.3-1.9-1.9c-0.4-0.3-1.1-1-1.4-1.3c0.2-0.3,1.2-1,1.7-1.4
		c0.5-0.4,1.1-0.8,1.6-1.2C35.3,55,58.2,43.2,83.8,37.8c9.5-2,19.4-3.1,29.3-3.1c38.8,0.7,72.6,14.4,100.2,40.8
		c-0.4,0.4-0.8,0.8-1.1,1.1c-0.2,0.2-0.4,0.4-0.6,0.6c-0.5,0.5-1.1,1.1-1.5,1.4c-0.4-0.3-1.1-0.9-1.5-1.4l-0.1-0.1
		c-20.3-18.9-44.3-30.9-71.4-35.6c-8.1-1.4-16.2-2.1-24.2-2.1c-15,0-30.1,2.5-44.8,7.5c-19.5,6.6-36.8,17.2-51.6,31.6
		C16.4,78.6,16.3,78.7,16.2,78.8z"/>
	<path d="M43.1,105.7c-0.9-1.1-2-2.2-3.3-3.3c13-12.4,28.2-21.1,45.3-25.8c9.2-2.5,18.7-3.8,28.2-3.8c28.3,0.4,52.9,10.4,73,29.6
		c-1.2,1-2.2,2.1-3.3,3.3c-6.4-6.2-13.6-11.5-21.3-15.7c-15.2-8.3-31.4-12.5-48.2-12.5c-2.3,0-4.7,0.1-7,0.2
		C82.3,79.4,61,88.8,43.1,105.7C43.1,105.7,43.1,105.7,43.1,105.7z"/>
	<path d="M113.2,191.3c-12,0-21.9-9.8-21.9-21.8c0-5.7,2.3-11.2,6.4-15.4c4.2-4.2,9.7-6.5,15.5-6.5c11.9,0,21.9,10.1,21.9,21.9
		C135.1,181.3,125,191.3,113.2,191.3L113.2,191.3z M113.1,152.1c-9.3,0-17.2,7.9-17.2,17.2c0,4.6,1.8,9,5.1,12.3
		c3.3,3.3,7.6,5.1,12.2,5.1c9.3,0,17.2-7.9,17.2-17.3C130.4,160.1,122.5,152.2,113.1,152.1L113.1,152.1z"/>
	<path d="M158.4,130.5c-12.4-11.6-28.5-18-45.3-18c-12.1,0-24,3.4-34.4,9.7c-4,2.4-7.6,5.2-10.7,8.3c-0.6-0.6-1.2-1.2-1.7-1.8
		l-0.1-0.1c-0.3-0.3-0.5-0.5-0.8-0.8c-0.2-0.2-0.4-0.4-0.6-0.6c0.2-0.2,0.5-0.5,0.7-0.6c13.5-12.2,29.6-18.5,47.9-18.7
		c18.5,0.3,34.8,6.8,48.3,19.4C160.4,128.3,159.3,129.4,158.4,130.5z"/>
</g>
</svg>
