<svg id="Layer_1" data-name="Layer 1" xmlns="http://www.w3.org/2000/svg" xmlns:xlink="http://www.w3.org/1999/xlink" viewBox="0 0 712.82 158.61"><defs><style>.cls-1{fill:#004546;}.cls-2{fill:url(#linear-gradient);}</style><linearGradient id="linear-gradient" x1="214.97" y1="242.73" x2="342.19" y2="369.95" gradientUnits="userSpaceOnUse"><stop offset="0" stop-color="#6eb98f"/><stop offset="0.16" stop-color="#69b48c"/><stop offset="0.36" stop-color="#5ca683"/><stop offset="0.56" stop-color="#468e74"/><stop offset="0.78" stop-color="#276d5f"/><stop offset="1" stop-color="#004445"/></linearGradient></defs><title>Untitled-2</title><path class="cls-1" d="M410.79,250.34v59.81a6.1,6.1,0,1,1-12.2,0V250.34a6.1,6.1,0,1,1,12.2,0Z" transform="translate(-201 -244.19)"/><path class="cls-1" d="M483.4,250.32q0,.3,0,.6v59.43a6.15,6.15,0,0,1-12.29,0V269.28l-13.89,19.06a6.16,6.16,0,0,1-4.94,2.52,6.46,6.46,0,0,1-4.93-2.51l-13.9-19.07v41.07a6.1,6.1,0,1,1-12.2,0V250.72a2.61,2.61,0,0,1,0-.4,6.07,6.07,0,0,1,10.95-3.61v-.06l20.11,27.68,20.29-27.78,0,.08a6.07,6.07,0,0,1,10.89,3.69Z" transform="translate(-201 -244.19)"/><path class="cls-1" d="M559,308l-29.6-59.28a6.17,6.17,0,0,0-5.43-3.31h-.12a6.11,6.11,0,0,0-5.33,3.53l-27.42,59.25a6,6,0,0,0,2.91,8,5.43,5.43,0,0,0,2.54.61,6,6,0,0,0,5.44-3.53L508.63,299a3,3,0,0,0,.43,0H541l7.21,14.42a6,6,0,0,0,8.07,2.63,5.76,5.76,0,0,0,3-3.38A6,6,0,0,0,559,308Zm-44.8-21.08,10-21.53L535,286.92Z" transform="translate(-201 -244.19)"/><path class="cls-1" d="M632.77,282.17c0,19.77-14.75,34.13-35.07,34.13-19.72,0-35.17-15.85-35.17-36.1A36.09,36.09,0,0,1,623.33,254a6.14,6.14,0,0,1,.21,8.67,6.07,6.07,0,0,1-8.57.29,23.51,23.51,0,0,0-16.33-6.54,23.82,23.82,0,0,0-23.81,23.8c0,13.41,10,23.9,22.87,23.9,11.6,0,20.34-6.77,22.4-17.28H608.31a6.1,6.1,0,1,1,0-12.2h18.21a6.11,6.11,0,0,1,6.15,6.05v.4A4,4,0,0,1,632.77,282.17Z" transform="translate(-201 -244.19)"/><path class="cls-1" d="M653.51,250.34v59.81a6.1,6.1,0,1,1-12.2,0V250.34a6.1,6.1,0,1,1,12.2,0Z" transform="translate(-201 -244.19)"/><path class="cls-1" d="M700,244.19a36.06,36.06,0,1,0,36,36.11A36.09,36.09,0,0,0,700,244.19Zm0,59.91a23.85,23.85,0,1,1,23.8-23.9A23.93,23.93,0,0,1,700,304.1Z" transform="translate(-201 -244.19)"/><path class="cls-1" d="M456.39,392.73a36,36,0,0,1-60.61-26.41,36.05,36.05,0,0,1,60.13-26.78,5.9,5.9,0,0,1,2,4.14,6.06,6.06,0,0,1-10.09,4.83,23.94,23.94,0,1,0-16.06,41.72,23.79,23.79,0,0,0,16.34-6.37,6.07,6.07,0,0,1,8.57.3A6.16,6.16,0,0,1,456.39,392.73Z" transform="translate(-201 -244.19)"/><path class="cls-1" d="M512.9,393.64,501,371.13a20.84,20.84,0,0,0,12.51-18.8c0-11.93-9.6-22-21-22l-21.43.56a6,6,0,0,0-5.65,6v59.53a6,6,0,1,0,11.91,0V373.22h11.26l13.68,26a5.93,5.93,0,0,0,8.08,2.54,5.89,5.89,0,0,0,2.93-3.52A6,6,0,0,0,512.9,393.64Zm-35.54-51.31h15.17c4.74,0,9.06,4.77,9.06,10,0,4.78-4.58,9-9.81,9H477.36Z" transform="translate(-201 -244.19)"/><path class="cls-1" d="M533.23,372.66v17.76h26.43a6,6,0,1,1,0,12H527.18a5.9,5.9,0,0,1-6-6V336.37a6,6,0,0,1,6-6.05h32.48a6.05,6.05,0,1,1,0,12.1H533.23v18.22h26.43a6,6,0,1,1,0,12Z" transform="translate(-201 -244.19)"/><path class="cls-1" d="M639,394l-29.59-59.27a6.18,6.18,0,0,0-5.43-3.32h-.12a6.11,6.11,0,0,0-5.33,3.53l-27.42,59.26a5.86,5.86,0,0,0-.2,4.59,5.92,5.92,0,0,0,3.11,3.37,5.43,5.43,0,0,0,2.54.61,6,6,0,0,0,5.44-3.52L588.63,385a3,3,0,0,0,.43,0H621l7.22,14.42a6,6,0,0,0,8.06,2.62,5.79,5.79,0,0,0,3.05-3.37A6.06,6.06,0,0,0,639,394ZM594.22,373l10-21.53L615,373Z" transform="translate(-201 -244.19)"/><path class="cls-1" d="M686.66,336.56a6.11,6.11,0,0,1-6.06,6.15H664.87v53.75a6.1,6.1,0,1,1-12.2,0V342.71H637a6.11,6.11,0,0,1,0-12.21H680.6A6.07,6.07,0,0,1,686.66,336.56Z" transform="translate(-201 -244.19)"/><path class="cls-1" d="M707.41,336.37v59.82a6.11,6.11,0,1,1-12.21,0V336.37a6.11,6.11,0,1,1,12.21,0Z" transform="translate(-201 -244.19)"/><path class="cls-1" d="M753.93,330.22a36.06,36.06,0,1,0,36,36.1A36.1,36.1,0,0,0,753.93,330.22Zm0,59.92a23.86,23.86,0,1,1,23.81-23.91A23.93,23.93,0,0,1,753.93,390.14Z" transform="translate(-201 -244.19)"/><path class="cls-1" d="M856,336.56v59.76l0-.05A6.25,6.25,0,0,1,844.11,399l-34.26-44.5v41.86a6.16,6.16,0,0,1-6.15,6.15,6.09,6.09,0,0,1-6.15-6.15V336.74a1.21,1.21,0,0,1,0-.19,6.13,6.13,0,0,1,11.25-3.38l34.87,45.26V336.56a6.09,6.09,0,0,1,6.14-6.15A6.16,6.16,0,0,1,856,336.56Z" transform="translate(-201 -244.19)"/><path class="cls-1" d="M913.79,383.07A18.64,18.64,0,0,1,907,396.3a26.5,26.5,0,0,1-13.11,5.85,39.84,39.84,0,0,1-4.67.28c-9.54,0-18.62-4-24.26-10.67a6,6,0,0,1,.7-8.47,6,6,0,0,1,8.39.7c4.08,4.74,11.36,7.24,18.12,6.25,4.43-.64,9.33-3.37,9.59-7.89.28-4-2.86-7.77-7.28-8.76a32,32,0,0,0-6.12-.64h-.15c-4.85-.29-10.35-.61-15.46-4.11-7-4.81-10.45-13.53-8.34-21.21,2.28-8.27,9.92-14.74,19-16.07A33.54,33.54,0,0,1,908.27,338a6,6,0,1,1-7.46,9.49,21,21,0,0,0-15.74-4c-4.35.64-8.08,3.68-9,7.38-.89,3.12,1.13,6.43,3.58,8.1s5.78,1.81,9.37,2l1.16.08a42.24,42.24,0,0,1,7,.87C907.2,364.09,914.37,373.19,913.79,383.07Z" transform="translate(-201 -244.19)"/><path class="cls-2" d="M209.68,264.55h137.8a6.85,6.85,0,1,0,0-13.7H209.68a6.85,6.85,0,1,0,0,13.7Zm68.9,44.09a43.75,43.75,0,1,0,43.75,43.75A43.8,43.8,0,0,0,278.58,308.64Zm0,70.57a26.82,26.82,0,1,1,26.82-26.82A26.85,26.85,0,0,1,278.58,379.21Zm0-104.4A77.67,77.67,0,0,0,201,352.39a8.68,8.68,0,1,0,17.36,0,60.22,60.22,0,0,1,120.44,0,8.68,8.68,0,0,0,17.36,0A77.67,77.67,0,0,0,278.58,274.81Z" transform="translate(-201 -244.19)"/></svg>