<svg width="120" height="21" viewBox="0 0 120 21" fill="none" xmlns="http://www.w3.org/2000/svg">
<path d="M50.703 0V20.588H46.8095V0H50.703ZM56.08 0V20.588H52.1864V0H56.08ZM45.3172 5.30718V20.5895H41.4237V5.30718H45.3172ZM43.3712 4.30754C44.8458 4.30754 45.5831 3.58053 45.5831 2.12499C45.5831 0.669455 44.8458 0 43.3712 0C41.8966 0 41.1593 0.708835 41.1593 2.12499C41.1593 3.54115 41.8966 4.30754 43.3712 4.30754ZM61.4526 5.30718V20.5895H57.559V5.30718H61.4526ZM59.5065 4.30754C60.9811 4.30754 61.7184 3.58053 61.7184 2.12499C61.7184 0.669455 60.9811 0 59.5065 0C58.0319 0 57.2946 0.708835 57.2946 2.12499C57.2946 3.54115 58.0319 4.30754 59.5065 4.30754ZM39.9359 5.2269C39.1046 4.99214 38.1147 4.874 36.9617 4.874C34.3004 4.874 32.2148 5.40714 30.702 6.47191V4.874H26.8085V20.5895H30.702V10.375L31.3218 10.0842C31.7346 9.89037 32.4014 9.69196 33.3237 9.48749C34.2446 9.28453 35.2228 9.18154 36.2538 9.18154C37.5507 9.18154 38.7756 9.32694 39.9256 9.61774L39.9359 9.4678V5.2269ZM102.043 9.19517C101.77 8.29246 101.318 7.48366 100.683 6.76574C100.049 6.04782 99.1574 5.50559 98.0074 5.13603C96.8574 4.76798 95.4563 4.5832 93.8055 4.5832C91.3395 4.5832 88.9881 5.19812 86.7497 6.42193V4.874H82.8562V20.5895H86.7497V10.113C87.2799 9.8419 88.1832 9.5405 89.4595 9.21031C90.7344 8.88013 91.9989 8.71504 93.2532 8.71504C95.2139 8.71504 96.5887 9.03008 97.3788 9.66015C98.1675 10.2902 98.5626 11.2747 98.5626 12.6136V20.588H102.456V12.3516C102.456 11.149 102.32 10.0964 102.046 9.19365L102.043 9.19517ZM78.6747 6.19776C76.8829 5.12088 74.3141 4.5832 70.9669 4.5832C69.8757 4.5832 68.7624 4.6559 67.6271 4.8013C66.4917 4.9467 65.6252 5.08756 65.0274 5.22387C64.4296 5.36019 64.014 5.47681 63.7775 5.57375V9.43145L64.2196 9.29968C66.2685 8.71807 68.4436 8.42726 70.7451 8.42726C75.2277 8.42726 77.4689 9.29059 77.4689 11.0172V11.8609H77.4028C74.6005 11.4731 72.2124 11.2793 70.237 11.2793C67.583 11.2793 65.6883 11.6776 64.553 12.4728C63.4765 13.2483 62.9389 14.4705 62.9389 16.1396C62.9389 17.9435 63.5058 19.2143 64.6426 19.9519C65.7045 20.6501 67.4229 21 69.7963 21C72.1698 21 74.8267 20.4426 77.4718 19.3279V20.5926H81.3654V10.7855C81.3654 8.80591 80.4695 7.27919 78.6777 6.20231L78.6747 6.19776ZM70.237 17.3301C68.7917 17.3301 67.8327 17.1847 67.3612 16.8939C67.0072 16.6803 66.831 16.282 66.831 15.7004C66.831 15.1763 67.0087 14.7977 67.3612 14.566C67.8033 14.2752 69.012 14.1298 70.9889 14.1298C73.1568 14.1298 75.3158 14.2464 77.4704 14.4796V16.1381C75.3319 16.9333 72.9218 17.3316 70.237 17.3316V17.3301ZM107.836 0.218103L103.943 1.52672V13.8087C103.943 14.7598 104.016 15.5747 104.164 16.2532C104.311 16.9333 104.587 17.577 104.994 18.1889C105.399 18.8008 105.944 19.2946 106.63 19.6732C107.316 20.0519 108.208 20.3472 109.306 20.5608C110.405 20.7743 111.714 20.8803 113.232 20.8803C115.754 20.8803 118.01 20.5214 120 19.8035L119.624 15.9034C119.004 16.0972 118.094 16.2865 116.892 16.4713C115.691 16.6561 114.566 16.7485 113.519 16.7485C111.896 16.7485 110.665 16.6228 109.825 16.3699C108.985 16.1184 108.443 15.7776 108.199 15.3505C107.955 14.9234 107.833 14.3024 107.833 13.4876V9.00584H119.844V4.874H107.833V0.218103H107.836ZM23.0295 9.62834V9.77981C23.7536 10.1842 24.3161 10.79 24.7156 11.5958C25.1151 12.4031 25.3148 13.3316 25.3148 14.3812C25.3148 16.4001 24.7934 17.939 23.7506 18.9977C22.7078 20.0564 20.9953 20.5865 18.6145 20.5865H0V0H18.6365C22.7181 0 24.7596 1.85691 24.7596 5.57072C24.7596 7.48821 24.1824 8.84075 23.0295 9.62834ZM4.21522 8.23491H18.4148C19.8497 8.23491 20.5664 7.56848 20.5664 6.23714C20.5664 4.80433 19.694 4.08792 17.9492 4.08792H4.21522V8.23642V8.23491ZM18.4809 11.9593H4.21522V16.5001H18.3252C19.3312 16.5001 20.045 16.3138 20.4666 15.9397C20.8881 15.5671 21.0996 14.9855 21.0996 14.1994C21.0996 12.706 20.2272 11.9593 18.4823 11.9593H18.4809Z" fill="black"/>
</svg>
