<svg width="40" height="40" viewBox="0 0 40 40" fill="none" xmlns="http://www.w3.org/2000/svg">
<path d="M40 20.493C40 20.3153 39.9649 20.1732 39.8595 20.0311C39.5785 19.6402 39.2272 19.2849 38.8409 18.9651C38.7706 18.8941 38.7003 18.8585 38.595 18.7875C38.4193 18.6809 38.2437 18.5743 38.0681 18.4677C37.8924 18.3611 37.7168 18.29 37.506 18.1834C37.4007 18.1479 37.3304 18.1124 37.225 18.0768C36.6279 17.8636 35.9956 17.686 35.3282 17.5439C35.2229 17.5083 35.1175 17.5083 34.977 17.4728C34.0637 17.3307 33.0801 17.2951 32.0615 17.2951C31.3238 17.2951 30.551 17.3662 29.7783 17.4373L30.0241 17.6149C29.9539 17.5439 29.8485 17.5083 29.7783 17.4373C25.7387 17.8636 21.7695 19.0362 20.1537 19.5336L21.0318 18.4322C21.0318 18.4322 21.0318 18.3966 21.0669 18.3966C21.1021 18.3611 21.1372 18.29 21.1372 18.219C21.1723 18.219 21.2075 18.1834 21.2777 18.1834C21.4182 18.1124 21.5587 18.0768 21.6992 18.0058C21.8749 17.9347 22.0154 17.8636 22.191 17.757C22.3666 17.686 22.5423 17.5794 22.7179 17.4728C22.8935 17.3662 23.1043 17.2596 23.2799 17.153C23.4907 17.0464 23.6663 16.9043 23.8419 16.7977C24.2283 16.549 24.5796 16.3002 24.9308 16.016C25.2821 15.7673 25.5983 15.5185 25.8441 15.2698C26.09 15.0566 26.3359 14.879 26.5115 14.7724C26.5818 14.7013 26.652 14.6658 26.7223 14.6302C26.7574 14.5947 26.7925 14.5947 26.7925 14.5947C26.8277 14.5947 26.8276 14.5592 26.8628 14.5236C26.933 14.4171 26.8979 14.3105 26.7925 14.2394C26.6872 14.1683 26.5818 14.2039 26.5115 14.3105C26.5115 14.3105 26.5115 14.346 26.4764 14.3815C26.4413 14.4171 26.4061 14.4881 26.3359 14.5592C26.1954 14.7013 26.0198 14.9145 25.7739 15.1632C25.528 15.3764 25.2118 15.6251 24.8957 15.9094C24.5796 16.1581 24.1932 16.4424 23.8068 16.6911C23.6312 16.7977 23.4204 16.9398 23.2448 17.0464C23.0692 17.153 22.8584 17.2951 22.6828 17.3662C22.5072 17.4728 22.3315 17.5794 22.1559 17.6505C21.9803 17.7215 21.8046 17.8281 21.6641 17.8636C21.5236 17.9347 21.3479 17.9702 21.2426 18.0413C21.2074 18.0413 21.2075 18.0413 21.1723 18.0768C21.1723 17.9347 21.1021 17.757 20.9616 17.686C20.8211 17.5794 20.6454 17.5794 20.5049 17.6149C20.5049 17.5794 20.5049 17.5439 20.5049 17.5083C20.5049 17.3662 20.54 17.2241 20.54 17.0464C20.54 16.8688 20.5752 16.6911 20.6103 16.5134C20.6455 16.3358 20.6806 16.1226 20.7157 15.9094C20.7508 15.6962 20.8211 15.483 20.8562 15.2698C20.8913 15.0566 20.9616 14.8434 21.0318 14.5947C21.1723 14.1683 21.3129 13.7419 21.4534 13.3156C21.5939 12.9247 21.7344 12.5339 21.8749 12.2141C22.0154 11.8943 22.1559 11.6456 22.2612 11.4679C22.3315 11.3968 22.3666 11.3258 22.4018 11.2902C22.4369 11.2547 22.472 11.2192 22.472 11.2192C22.5071 11.1837 22.5072 11.1837 22.5072 11.1481C22.5423 11.0415 22.472 10.9349 22.3666 10.8994C22.2613 10.8639 22.1559 10.9349 22.1207 11.0415C22.1207 11.0415 22.1207 11.0771 22.0856 11.1126C22.0856 11.1837 22.0505 11.2547 22.0154 11.3258C21.9451 11.5034 21.8749 11.7877 21.7343 12.1075C21.5938 12.4273 21.4534 12.8181 21.3128 13.209C21.1723 13.5998 21.0318 14.0617 20.9265 14.4881C20.8562 14.7013 20.786 14.9145 20.7508 15.1632C20.7157 15.3764 20.6455 15.5896 20.6103 15.8028C20.5752 16.016 20.5401 16.2292 20.5049 16.4068C20.4698 16.62 20.4347 16.7977 20.4347 16.9753C20.3996 17.153 20.3996 17.2951 20.3996 17.4373C20.3996 17.5083 20.3996 17.5794 20.3996 17.6505C20.3644 17.686 20.3293 17.7215 20.2942 17.757L19.4863 18.9296C19.4863 17.2241 19.416 13.0313 18.6081 9.01621C18.5378 8.94514 18.4676 8.90961 18.3622 8.83855L18.6081 9.01621C18.4676 8.27004 18.292 7.48834 18.0812 6.7777C17.8002 5.78281 17.449 4.85898 17.0626 4.00621C17.0275 3.89962 16.9572 3.79302 16.9221 3.68643C16.6059 3.08239 16.2547 2.47835 15.8683 1.9809C15.798 1.90984 15.7278 1.80324 15.6575 1.73217C15.517 1.59005 15.3765 1.41239 15.236 1.27026C15.0955 1.12814 14.955 0.986007 14.7794 0.879412C14.7091 0.808348 14.6388 0.772816 14.5335 0.701752C14.1471 0.417497 13.6905 0.204308 13.2338 0.0266489C13.0582 -0.00888297 12.9177 -0.00888297 12.742 0.0266489C12.6015 0.0621808 12.461 0.168772 12.3557 0.3109C11.8639 1.02154 11.056 2.54941 10.9857 4.57472C10.9857 5.03664 10.9857 5.53409 11.0911 6.06707C11.0911 6.1026 11.0911 6.13813 11.0911 6.17366C11.0911 6.20919 11.0911 6.24473 11.056 6.28026C11.0208 6.35132 10.9857 6.42238 10.9506 6.49344C10.9155 6.52898 10.9155 6.52898 10.8803 6.56451C10.8803 6.60004 10.8452 6.60005 10.8452 6.63558L10.8101 6.6711C10.775 6.70663 10.775 6.70664 10.7399 6.74217L10.7047 6.7777C10.6696 6.81324 10.6696 6.84876 10.6345 6.8843L10.5993 6.91983C10.5642 6.95536 10.5291 6.99089 10.5291 7.02642L10.4939 7.06195C10.4588 7.09749 10.4237 7.13302 10.3886 7.20408C10.3886 7.20408 10.3886 7.23961 10.3534 7.23961C10.3183 7.27515 10.2832 7.34621 10.2481 7.38174C10.2481 7.38174 10.2481 7.41727 10.213 7.41727C10.1778 7.48834 10.1427 7.52387 10.1076 7.59493C10.1076 7.59493 10.1076 7.59494 10.1076 7.63047C10.0724 7.70153 10.0373 7.73706 10.0022 7.80813C9.96704 7.87919 9.93194 7.95026 9.89682 8.02132C9.86169 8.09238 9.82655 8.16345 9.79142 8.23451C8.94839 9.83345 8.35127 12.143 10.213 14.0973C10.3535 14.2394 10.494 14.3815 10.6345 14.5236C10.6345 14.5236 4.4171 14.1683 3.81996 20.0666C3.7497 20.8483 3.74972 21.7722 3.92535 22.8026C3.92535 22.8736 3.96047 22.9092 3.96047 22.9802L0.272213 23.9041H0.237095C0.0263374 23.9751 -0.0439065 24.2239 0.026346 24.4015C0.0965986 24.6147 0.342448 24.6858 0.518079 24.6147L4.0307 23.229C4.5576 25.5741 6.38418 26.1781 8.52688 25.9649C11.618 25.6807 15.3414 23.6909 16.8167 22.8736L15.4467 24.899C15.3765 25.0056 15.4116 25.1477 15.4819 25.2187C15.5873 25.2898 15.7277 25.2898 15.798 25.1832L17.3084 23.2645C16.9572 24.97 16.2195 29.1273 16.8518 32.2185C17.3084 34.3504 18.3974 35.9494 20.7508 35.7717L20.4698 39.5736C20.4698 39.7868 20.6103 39.9645 20.8211 40C21.0318 40 21.2074 39.8579 21.2426 39.6447V39.6091L20.9967 35.7717C21.067 35.7717 21.1021 35.7717 21.1723 35.7362C22.191 35.5585 23.034 35.3098 23.7717 35.0255C29.1811 32.6804 26.9682 26.7821 26.9682 26.7821C27.1438 26.8887 27.3194 26.9953 27.4951 27.0664C29.8836 28.2745 31.8858 26.9953 33.1504 25.7162C33.2206 25.6451 33.2558 25.6096 33.326 25.5385C33.3963 25.4675 33.4314 25.4319 33.4665 25.3609C33.5017 25.2898 33.5719 25.2543 33.607 25.1832C33.607 25.1832 33.607 25.1832 33.6422 25.1477C33.6773 25.1121 33.7124 25.0411 33.7827 25.0055C33.7827 25.0055 33.7827 25.0055 33.8178 24.97C33.8529 24.9345 33.8881 24.8634 33.9232 24.8279C33.9232 24.8279 33.9232 24.7924 33.9583 24.7924C33.9934 24.7568 34.0285 24.7213 34.0637 24.6502L34.0988 24.6147C34.1339 24.5792 34.1691 24.5436 34.1691 24.5081L34.2042 24.4726C34.2393 24.437 34.2393 24.4015 34.2744 24.366C34.2744 24.3304 34.3096 24.3304 34.3096 24.3304C34.3447 24.2949 34.3447 24.2594 34.3798 24.2594C34.3798 24.2238 34.4149 24.2239 34.4149 24.1883C34.4149 24.1528 34.4501 24.1528 34.4501 24.1173C34.4852 24.0817 34.4852 24.0462 34.5203 24.0462C34.5554 23.9751 34.6257 23.9041 34.6959 23.8685C34.7311 23.833 34.7662 23.833 34.8013 23.833C34.8365 23.833 34.8716 23.7975 34.9067 23.7975C35.4336 23.7264 35.8902 23.6198 36.3117 23.4421C38.2086 22.8026 39.4029 21.5234 39.9298 20.8483C39.9649 20.8128 40 20.6707 40 20.493ZM10.8101 12.8537C10.8452 12.8537 10.8452 12.8537 10.8101 12.8537V12.8537Z" fill="url(#paint0_radial_63_1605)"/>
<defs>
<radialGradient id="paint0_radial_63_1605" cx="0" cy="0" r="1" gradientUnits="userSpaceOnUse" gradientTransform="translate(19.817 19.9778) rotate(-2.76546) scale(20.0485 20.279)">
<stop stop-color="#A9C745"/>
<stop offset="1" stop-color="#234924"/>
</radialGradient>
</defs>
</svg>
