<svg width="29" height="24" viewBox="0 0 29 24" fill="none" xmlns="http://www.w3.org/2000/svg">
<path d="M27.5 20H1.5C1.23478 20 0.980429 19.8946 0.792892 19.7071C0.605356 19.5196 0.5 19.2652 0.5 19C0.5 18.7348 0.605356 18.4804 0.792892 18.2929C0.980429 18.1054 1.23478 18 1.5 18H2.5V16C2.50364 12.9916 3.63571 10.0941 5.67245 7.88008C7.70919 5.66605 10.5024 4.29664 13.5 4.0425V2H11.5C11.2348 2 10.9804 1.89464 10.7929 1.70711C10.6054 1.51957 10.5 1.26522 10.5 1C10.5 0.734784 10.6054 0.48043 10.7929 0.292893C10.9804 0.105357 11.2348 0 11.5 0H17.5C17.7652 0 18.0196 0.105357 18.2071 0.292893C18.3946 0.48043 18.5 0.734784 18.5 1C18.5 1.26522 18.3946 1.51957 18.2071 1.70711C18.0196 1.89464 17.7652 2 17.5 2H15.5V4.0425C18.4976 4.29664 21.2908 5.66605 23.3276 7.88008C25.3643 10.0941 26.4964 12.9916 26.5 16V18H27.5C27.7652 18 28.0196 18.1054 28.2071 18.2929C28.3946 18.4804 28.5 18.7348 28.5 19C28.5 19.2652 28.3946 19.5196 28.2071 19.7071C28.0196 19.8946 27.7652 20 27.5 20ZM24.5 16C24.5 13.3478 23.4464 10.8043 21.5711 8.92893C19.6957 7.05357 17.1522 6 14.5 6C11.8478 6 9.3043 7.05357 7.42893 8.92893C5.55357 10.8043 4.5 13.3478 4.5 16V18H24.5V16ZM0.5 23C0.5 23.2652 0.605356 23.5196 0.792892 23.7071C0.980429 23.8946 1.23478 24 1.5 24H27.5C27.7652 24 28.0196 23.8946 28.2071 23.7071C28.3946 23.5196 28.5 23.2652 28.5 23C28.5 22.7348 28.3946 22.4804 28.2071 22.2929C28.0196 22.1054 27.7652 22 27.5 22H1.5C1.23478 22 0.980429 22.1054 0.792892 22.2929C0.605356 22.4804 0.5 22.7348 0.5 23Z" fill="white"/>
</svg>
