<svg width="772" height="691" viewBox="0 0 772 691" fill="none" xmlns="http://www.w3.org/2000/svg">
<path d="M432.514 558.582C398.779 558.582 365.141 560.419 331.406 564.188C128.019 588.352 18.8175 670.606 47.4828 691C34.4177 691 3.21737 669.349 0.0973363 642.092C-3.0227 609.326 69.323 577.14 151.126 556.069C204.752 518.954 270.955 443.466 323.996 382.283C299.035 385.376 274.66 387.212 250.382 387.212C143.034 387.212 55.6729 343.911 48.8478 287.658C47.5803 279.635 55.0879 264.17 63.863 253.635C81.9982 232.564 111.248 231.404 115.636 233.82C104.423 237.493 91.2607 248.029 90.6757 259.144C88.8232 301.189 163.021 359.376 278.463 359.376C289.675 359.376 301.57 358.796 314.05 357.539C325.263 356.283 335.891 355.026 347.103 353.19C469.37 201.054 601.093 2.42774 712.732 0.0113562C748.32 -0.568576 776.4 21.0822 771.428 60.6142C760.215 167.032 592.318 312.401 398.291 366.238C339.011 436.12 269.103 508.515 218.597 541.861C249.797 536.255 280.998 532.582 307.81 531.325C322.143 530.745 336.476 530.069 352.076 530.069C487.505 530.069 662.226 559.162 722.775 607.393C652.769 578.977 545.42 558.582 432.514 558.582ZM425.689 333.375C626.639 266.587 743.347 92.1238 737.692 39.5434C735.84 23.4986 726.48 12.2866 710.197 17.3126C659.009 32.7775 545.42 190.519 425.689 333.375Z" fill="#234924" fill-opacity="0.05"/>
</svg>
