<svg width="97" height="94" viewBox="0 0 97 94" fill="none" xmlns="http://www.w3.org/2000/svg">
<path d="M69.8222 7.37501C60.3025 1.84935 49.1132 -0.116794 38.2664 1.83015C27.4196 3.7771 17.627 9.50939 10.6496 17.9962C3.67227 26.483 -0.0320217 37.1674 0.2029 48.128C0.437821 59.0886 4.59654 69.6063 11.9312 77.7896C19.2658 85.9729 29.2952 91.2849 40.2155 92.7703C51.1359 94.2556 62.2308 91.817 71.505 85.8928C80.7793 79.9686 87.6242 70.9476 90.809 60.4521C93.9938 49.9566 93.3095 38.6753 88.879 28.6368L79.9218 32.548C83.4161 40.4653 83.9558 49.3629 81.444 57.6407C78.9321 65.9184 73.5335 73.0333 66.2189 77.7057C58.9044 82.378 50.1538 84.3014 41.5409 83.1299C32.928 81.9584 25.0179 77.7689 19.2331 71.3147C13.4483 64.8605 10.1683 56.5653 9.98301 47.9206C9.79773 39.276 12.7193 30.8492 18.2223 24.1557C23.7254 17.4622 31.4488 12.9411 40.0037 11.4056C48.5585 9.87 57.3835 11.4207 64.8916 15.7788L69.8222 7.37501Z" fill="#A9C745"/>
<path d="M59.8216 24.419C54.3819 21.2615 47.988 20.138 41.7898 21.2506C35.5916 22.3631 29.9958 25.6387 26.0088 30.4883C22.0217 35.3379 19.905 41.4432 20.0392 47.7065C20.1735 53.9697 22.5499 59.9798 26.7411 64.656C30.9323 69.3321 36.6634 72.3675 42.9036 73.2163C49.1438 74.0651 55.4837 72.6716 60.7833 69.2863C66.0828 65.9011 69.9943 60.7463 71.8141 54.7488C73.634 48.7514 73.243 42.3049 70.7113 36.5687L62.4344 40.1827C64.101 43.9589 64.3585 48.2027 63.1604 52.1509C61.9624 56.0991 59.3874 59.4925 55.8987 61.7211C52.41 63.9496 48.2363 64.867 44.1283 64.3082C40.0203 63.7495 36.2475 61.7512 33.4884 58.6728C30.7293 55.5945 29.1648 51.638 29.0765 47.5148C28.9881 43.3917 30.3816 39.3725 33.0063 36.1799C35.631 32.9874 39.3148 30.8311 43.3951 30.0987C47.4754 29.3663 51.6846 30.1059 55.2656 32.1845L59.8216 24.419Z" fill="#A9C745"/>
<path fill-rule="evenodd" clip-rule="evenodd" d="M51.3655 39.6485L69.3594 22.2892V11.0512L79.5555 0.635541C79.5555 0.635541 81.1147 -0.279971 82.0356 0.0873464C83.064 0.497537 83.4135 2.55422 83.4135 2.55422V12.6958H94.1607C94.1607 12.6958 96.1004 12.6564 96.6408 13.5179C97.2218 14.4441 96.0897 16.2591 96.0897 16.2591L85.3425 27.223H74.3197L55.927 45.2045C56.546 47.1079 56.5709 49.162 55.9852 51.0922C55.3028 53.3412 53.836 55.2743 51.8487 56.5437C49.8613 57.8132 47.4839 58.3358 45.1438 58.0175C42.8037 57.6992 40.6546 56.5609 39.0828 54.8073C37.5111 53.0538 36.62 50.8 36.5696 48.4513C36.5193 46.1026 37.3131 43.813 38.8082 41.9945C40.3034 40.1759 42.4018 38.9475 44.7261 38.5303C47.004 38.1214 49.3524 38.5179 51.3655 39.6485ZM49.108 43.7752L49.0924 43.8017C48.0299 43.1849 46.7809 42.9654 45.5702 43.1828C44.3595 43.4001 43.2664 44.0399 42.4876 44.9872C41.7088 45.9345 41.2953 47.1271 41.3215 48.3505C41.3478 49.5739 41.812 50.7479 42.6307 51.6613C43.4493 52.5748 44.5688 53.1677 45.7878 53.3335C47.0067 53.4993 48.2451 53.2271 49.2803 52.5658C50.3155 51.9046 51.0795 50.8976 51.435 49.7261C51.7905 48.5546 51.7141 47.2954 51.2196 46.1749L51.3425 46.1213L49.108 43.7752Z" fill="white"/>
</svg>
