<svg width="117" height="20" viewBox="0 0 117 20" fill="none" xmlns="http://www.w3.org/2000/svg">
<path d="M9.54592 0.769775L11.6542 7.25855H18.477L12.9573 11.2688L15.0656 17.7576L9.54592 13.7473L4.02624 17.7576L6.13457 11.2688L0.614884 7.25855H7.43759L9.54592 0.769775Z" fill="#F8B520"/>
<path d="M33.8516 0.769775L35.9599 7.25855H42.7826L37.2629 11.2688L39.3713 17.7576L33.8516 13.7473L28.3319 17.7576L30.4402 11.2688L24.9205 7.25855H31.7433L33.8516 0.769775Z" fill="#F8B520"/>
<path d="M58.1563 0.769775L60.2646 7.25855H67.0873L61.5676 11.2688L63.676 17.7576L58.1563 13.7473L52.6366 17.7576L54.7449 11.2688L49.2252 7.25855H56.0479L58.1563 0.769775Z" fill="#F8B520"/>
<path d="M82.4619 0.769775L84.5703 7.25855H91.393L85.8733 11.2688L87.9816 17.7576L82.4619 13.7473L76.9423 17.7576L79.0506 11.2688L73.5309 7.25855H80.3536L82.4619 0.769775Z" fill="#F8B520"/>
<path d="M106.767 0.769775L108.875 7.25855H115.698L110.178 11.2688L112.286 17.7576L106.767 13.7473L101.247 17.7576L103.355 11.2688L97.8356 7.25855H104.658L106.767 0.769775Z" fill="#F8B520"/>
</svg>
