<svg width="1354" height="41" viewBox="0 0 1354 41" fill="none" xmlns="http://www.w3.org/2000/svg">
<line opacity="0.3" x1="8.74228e-08" y1="20.2658" x2="617" y2="20.2659" stroke="#234924"/>
<path d="M697 21.2589C697 21.0812 696.965 20.9391 696.859 20.797C696.578 20.4061 696.227 20.0508 695.841 19.731C695.771 19.6599 695.7 19.6244 695.595 19.5533C695.419 19.4467 695.244 19.3402 695.068 19.2336C694.892 19.127 694.717 19.0559 694.506 18.9493C694.401 18.9138 694.33 18.8782 694.225 18.8427C693.628 18.6295 692.996 18.4519 692.328 18.3097C692.223 18.2742 692.117 18.2742 691.977 18.2387C691.064 18.0965 690.08 18.061 689.061 18.061C688.324 18.061 687.551 18.1321 686.778 18.2031L687.024 18.3808C686.954 18.3097 686.849 18.2742 686.778 18.2031C682.739 18.6295 678.769 19.8021 677.154 20.2995L678.032 19.198C678.032 19.198 678.032 19.1625 678.067 19.1625C678.102 19.127 678.137 19.0559 678.137 18.9848C678.172 18.9848 678.207 18.9493 678.278 18.9493C678.418 18.8782 678.559 18.8427 678.699 18.7716C678.875 18.7006 679.015 18.6295 679.191 18.5229C679.367 18.4519 679.542 18.3453 679.718 18.2387C679.894 18.1321 680.104 18.0255 680.28 17.9189C680.491 17.8123 680.666 17.6702 680.842 17.5636C681.228 17.3148 681.58 17.0661 681.931 16.7819C682.282 16.5331 682.598 16.2844 682.844 16.0357C683.09 15.8225 683.336 15.6448 683.512 15.5382C683.582 15.4672 683.652 15.4317 683.722 15.3961C683.757 15.3606 683.793 15.3606 683.793 15.3606C683.828 15.3606 683.828 15.325 683.863 15.2895C683.933 15.1829 683.898 15.0763 683.793 15.0053C683.687 14.9342 683.582 14.9697 683.512 15.0763C683.512 15.0763 683.512 15.1119 683.476 15.1474C683.441 15.1829 683.406 15.254 683.336 15.3251C683.195 15.4672 683.02 15.6804 682.774 15.9291C682.528 16.1423 682.212 16.391 681.896 16.6753C681.58 16.924 681.193 17.2082 680.807 17.457C680.631 17.5636 680.42 17.7057 680.245 17.8123C680.069 17.9189 679.858 18.061 679.683 18.1321C679.507 18.2387 679.332 18.3453 679.156 18.4163C678.98 18.4874 678.805 18.594 678.664 18.6295C678.524 18.7006 678.348 18.7361 678.243 18.8072C678.207 18.8072 678.207 18.8072 678.172 18.8427C678.172 18.7006 678.102 18.5229 677.962 18.4519C677.821 18.3453 677.645 18.3453 677.505 18.3808C677.505 18.3453 677.505 18.3097 677.505 18.2742C677.505 18.1321 677.54 17.9899 677.54 17.8123C677.54 17.6346 677.575 17.457 677.61 17.2793C677.645 17.1016 677.681 16.8884 677.716 16.6753C677.751 16.4621 677.821 16.2489 677.856 16.0357C677.891 15.8225 677.962 15.6093 678.032 15.3606C678.172 14.9342 678.313 14.5078 678.453 14.0814C678.594 13.6906 678.734 13.2997 678.875 12.9799C679.015 12.6602 679.156 12.4114 679.261 12.2338C679.331 12.1627 679.367 12.0916 679.402 12.0561C679.437 12.0206 679.472 11.9851 679.472 11.9851C679.507 11.9495 679.507 11.9495 679.507 11.914C679.542 11.8074 679.472 11.7008 679.367 11.6653C679.261 11.6297 679.156 11.7008 679.121 11.8074C679.121 11.8074 679.121 11.8429 679.086 11.8785C679.086 11.9495 679.051 12.0206 679.015 12.0916C678.945 12.2693 678.875 12.5536 678.734 12.8734C678.594 13.1931 678.453 13.584 678.313 13.9748C678.172 14.3657 678.032 14.8276 677.926 15.254C677.856 15.4672 677.786 15.6804 677.751 15.9291C677.716 16.1423 677.645 16.3555 677.61 16.5687C677.575 16.7819 677.54 16.9951 677.505 17.1727C677.47 17.3859 677.435 17.5636 677.435 17.7412C677.4 17.9189 677.4 18.061 677.4 18.2031C677.4 18.2742 677.4 18.3453 677.4 18.4163C677.364 18.4519 677.329 18.4874 677.294 18.5229L676.486 19.6955C676.486 17.9899 676.416 13.7972 675.608 9.78208C675.538 9.71101 675.468 9.67548 675.362 9.60442L675.608 9.78208C675.468 9.03591 675.292 8.25421 675.081 7.54357C674.8 6.54868 674.449 5.62485 674.063 4.77208C674.027 4.66549 673.957 4.55889 673.922 4.4523C673.606 3.84825 673.255 3.24422 672.868 2.74677C672.798 2.67571 672.728 2.56911 672.658 2.49804C672.517 2.35592 672.376 2.17826 672.236 2.03613C672.095 1.89401 671.955 1.75188 671.779 1.64528C671.709 1.57422 671.639 1.53869 671.533 1.46762C671.147 1.18337 670.69 0.970177 670.234 0.792518C670.058 0.756986 669.918 0.756986 669.742 0.792518C669.602 0.82805 669.461 0.934641 669.356 1.07677C668.864 1.78741 668.056 3.31528 667.986 5.34059C667.986 5.80251 667.986 6.29996 668.091 6.83294C668.091 6.86847 668.091 6.904 668.091 6.93953C668.091 6.97506 668.091 7.0106 668.056 7.04613C668.021 7.11719 667.986 7.18825 667.951 7.25931C667.915 7.29484 667.915 7.29485 667.88 7.33038C667.88 7.36591 667.845 7.36592 667.845 7.40145L667.81 7.43697C667.775 7.4725 667.775 7.47251 667.74 7.50804L667.705 7.54357C667.67 7.57911 667.67 7.61463 667.634 7.65016L667.599 7.6857C667.564 7.72123 667.529 7.75676 667.529 7.79229L667.494 7.82782C667.459 7.86336 667.424 7.89889 667.389 7.96995C667.389 7.96995 667.389 8.00548 667.353 8.00548C667.318 8.04102 667.283 8.11208 667.248 8.14761C667.248 8.14761 667.248 8.18314 667.213 8.18314C667.178 8.25421 667.143 8.28974 667.108 8.3608C667.108 8.3608 667.108 8.3608 667.108 8.39634C667.072 8.4674 667.037 8.50293 667.002 8.574C666.967 8.64506 666.932 8.71613 666.897 8.78719C666.862 8.85825 666.827 8.92932 666.791 9.00038C665.948 10.5993 665.351 12.9089 667.213 14.8631C667.353 15.0053 667.494 15.1474 667.634 15.2895C667.634 15.2895 661.417 14.9342 660.82 20.8325C660.75 21.6142 660.75 22.538 660.925 23.5684C660.925 23.6395 660.96 23.675 660.96 23.7461L657.272 24.6699H657.237C657.026 24.741 656.956 24.9897 657.026 25.1674C657.097 25.3806 657.342 25.4516 657.518 25.3806L661.031 23.9948C661.558 26.3399 663.384 26.944 665.527 26.7308C668.618 26.4465 672.341 24.4567 673.817 23.6395L672.447 25.6648C672.376 25.7714 672.412 25.9135 672.482 25.9846C672.587 26.0557 672.728 26.0557 672.798 25.9491L674.308 24.0304C673.957 25.7359 673.22 29.8931 673.852 32.9844C674.308 35.1163 675.397 36.7152 677.751 36.5376L677.47 40.3395C677.47 40.5527 677.61 40.7303 677.821 40.7659C678.032 40.7659 678.207 40.6237 678.243 40.4106V40.375L677.997 36.5376C678.067 36.5376 678.102 36.5376 678.172 36.502C679.191 36.3244 680.034 36.0757 680.772 35.7914C686.181 33.4463 683.968 27.548 683.968 27.548C684.144 27.6546 684.319 27.7612 684.495 27.8323C686.884 29.0404 688.886 27.7612 690.15 26.4821C690.221 26.411 690.256 26.3755 690.326 26.3044C690.396 26.2333 690.431 26.1978 690.467 26.1267C690.502 26.0557 690.572 26.0201 690.607 25.9491C690.607 25.9491 690.607 25.9491 690.642 25.9135C690.677 25.878 690.712 25.8069 690.783 25.7714C690.783 25.7714 690.783 25.7714 690.818 25.7359C690.853 25.7004 690.888 25.6293 690.923 25.5938C690.923 25.5938 690.923 25.5582 690.958 25.5582C690.993 25.5227 691.029 25.4872 691.064 25.4161L691.099 25.3806C691.134 25.345 691.169 25.3095 691.169 25.274L691.204 25.2384C691.239 25.2029 691.239 25.1674 691.274 25.1318C691.274 25.0963 691.31 25.0963 691.31 25.0963C691.345 25.0608 691.345 25.0252 691.38 25.0252C691.38 24.9897 691.415 24.9897 691.415 24.9542C691.415 24.9187 691.45 24.9187 691.45 24.8831C691.485 24.8476 691.485 24.8121 691.52 24.8121C691.555 24.741 691.626 24.6699 691.696 24.6344C691.731 24.5989 691.766 24.5989 691.801 24.5989C691.836 24.5989 691.872 24.5633 691.907 24.5633C692.434 24.4923 692.89 24.3857 693.312 24.208C695.209 23.5684 696.403 22.2893 696.93 21.6142C696.965 21.5787 697 21.4365 697 21.2589ZM667.81 13.6195C667.845 13.6195 667.845 13.6195 667.81 13.6195V13.6195Z" fill="url(#paint0_radial_652_5699)"/>
<line opacity="0.3" x1="737" y1="20.2658" x2="1354" y2="20.2659" stroke="#234924"/>
<defs>
<radialGradient id="paint0_radial_652_5699" cx="0" cy="0" r="1" gradientUnits="userSpaceOnUse" gradientTransform="translate(676.817 20.7437) rotate(-2.76546) scale(20.0485 20.279)">
<stop stop-color="#A9C745"/>
<stop offset="1" stop-color="#234924"/>
</radialGradient>
</defs>
</svg>
