<svg width="34" height="34" viewBox="0 0 34 34" fill="none" xmlns="http://www.w3.org/2000/svg">
<path d="M9.99967 0.333496H23.9997C29.333 0.333496 33.6663 4.66683 33.6663 10.0002V24.0002C33.6663 26.5639 32.6479 29.0227 30.835 30.8355C29.0222 32.6484 26.5634 33.6668 23.9997 33.6668H9.99967C4.66634 33.6668 0.333008 29.3335 0.333008 24.0002V10.0002C0.333008 7.4364 1.35146 4.97765 3.16431 3.1648C4.97716 1.35195 7.43592 0.333496 9.99967 0.333496ZM9.66634 3.66683C8.07504 3.66683 6.54892 4.29897 5.4237 5.42419C4.29848 6.54941 3.66634 8.07553 3.66634 9.66683V24.3335C3.66634 27.6502 6.34967 30.3335 9.66634 30.3335H24.333C25.9243 30.3335 27.4504 29.7014 28.5757 28.5761C29.7009 27.4509 30.333 25.9248 30.333 24.3335V9.66683C30.333 6.35016 27.6497 3.66683 24.333 3.66683H9.66634ZM25.7497 6.16683C26.3022 6.16683 26.8321 6.38632 27.2228 6.77702C27.6135 7.16772 27.833 7.69763 27.833 8.25016C27.833 8.8027 27.6135 9.3326 27.2228 9.7233C26.8321 10.114 26.3022 10.3335 25.7497 10.3335C25.1971 10.3335 24.6672 10.114 24.2765 9.7233C23.8858 9.3326 23.6663 8.8027 23.6663 8.25016C23.6663 7.69763 23.8858 7.16772 24.2765 6.77702C24.6672 6.38632 25.1971 6.16683 25.7497 6.16683ZM16.9997 8.66683C19.2098 8.66683 21.3294 9.5448 22.8922 11.1076C24.455 12.6704 25.333 14.79 25.333 17.0002C25.333 19.2103 24.455 21.3299 22.8922 22.8927C21.3294 24.4555 19.2098 25.3335 16.9997 25.3335C14.7895 25.3335 12.6699 24.4555 11.1071 22.8927C9.54432 21.3299 8.66634 19.2103 8.66634 17.0002C8.66634 14.79 9.54432 12.6704 11.1071 11.1076C12.6699 9.5448 14.7895 8.66683 16.9997 8.66683ZM16.9997 12.0002C15.6736 12.0002 14.4018 12.5269 13.4641 13.4646C12.5265 14.4023 11.9997 15.6741 11.9997 17.0002C11.9997 18.3262 12.5265 19.598 13.4641 20.5357C14.4018 21.4734 15.6736 22.0002 16.9997 22.0002C18.3258 22.0002 19.5975 21.4734 20.5352 20.5357C21.4729 19.598 21.9997 18.3262 21.9997 17.0002C21.9997 15.6741 21.4729 14.4023 20.5352 13.4646C19.5975 12.5269 18.3258 12.0002 16.9997 12.0002Z" fill="white"/>
</svg>
