<svg width="857" height="647" viewBox="0 0 857 647" fill="none" xmlns="http://www.w3.org/2000/svg">
<path d="M415.515 436.003C184.772 436.666 42.3619 576.944 0 647H857C805.982 576.391 646.259 435.339 415.515 436.003Z" fill="url(#paint0_linear_898_8297)"/>
<g filter="url(#filter0_f_898_8297)">
<ellipse cx="429" cy="474" rx="120" ry="12" fill="#234924"/>
</g>
<path fill-rule="evenodd" clip-rule="evenodd" d="M342.776 464.388L342.029 466.629C342.153 466.878 342.103 467.75 340.908 469.244C339.472 470.201 340.028 471.005 340.614 471.851L340.614 471.851C340.943 472.327 341.282 472.816 341.282 473.354C340.535 475.221 341.282 476.342 343.15 474.848C343.876 473.879 344.289 474.167 344.897 474.591C345.226 474.82 345.613 475.09 346.138 475.221C346.902 475.412 347.763 474.823 348.672 474.201C349.542 473.605 350.455 472.98 351.368 472.98C352.116 474.101 356.225 475.969 366.685 478.21C371.791 480.763 388.433 479.279 405.143 477.788H405.144C415.33 476.88 425.542 475.969 433.182 475.969C449.62 477.837 484.363 479.704 493.329 478.21C498.559 475.969 505.283 473.354 507.525 472.98C508.645 474.848 510.887 474.848 512.755 474.101C513.875 474.848 515.743 475.969 516.864 475.969C517.408 475.969 517.16 475.529 516.761 474.82C516.337 474.068 515.743 473.013 515.743 471.859C515.743 470.365 515.743 467.376 514.249 465.882C513.044 464.677 514.025 464.444 515.038 464.203L515.038 464.203L515.038 464.203C515.281 464.145 515.526 464.086 515.743 464.014C516.864 463.641 516.117 458.41 515.743 457.29C515.37 456.169 514.623 454.301 512.755 451.686C512.101 450.706 508.593 449.155 503.227 446.783L503.227 446.783C502.455 446.442 501.645 446.084 500.8 445.709C497.438 443.467 482.121 419.932 479.506 413.954C478.385 410.219 468.672 379.959 463.816 366.883C459.331 354.81 457.077 354.841 451.463 354.916H451.463H451.463H451.463C450.997 354.922 450.508 354.929 449.993 354.929C440.28 354.929 435.424 347.084 436.544 338.865C441.401 334.009 441.775 328.405 441.401 326.163C444.763 325.416 446.258 320.933 446.258 319.439C445.51 319.439 444.39 317.945 445.137 316.824C445.115 316.76 445.093 316.694 445.07 316.627C444.687 315.522 444.144 313.952 446.258 309.726C449.756 300.63 441.461 296.776 439.165 295.709L439.165 295.709C439.009 295.637 438.881 295.577 438.786 295.53C438.91 294.534 438.935 292.317 438.039 291.42C436.918 290.673 436.544 288.805 436.544 287.311C436.246 286.713 433.182 283.575 431.688 282.081C430.692 282.33 427.952 282.828 424.964 282.828C421.458 285.255 421.456 285.541 421.445 287.057C421.441 287.642 421.436 288.409 421.228 289.553C419.36 290.673 418.986 291.794 417.492 296.277C410.767 297.771 408.152 304.869 409.647 308.232C411.141 309.726 412.262 313.835 411.515 315.33C411.192 315.975 411.497 316.551 411.796 317.117C412.19 317.862 412.576 318.59 411.515 319.439C409.647 319.812 411.888 326.163 415.624 326.91C415.386 332.139 416.963 334.042 418.334 335.696C419.118 336.641 419.835 337.506 420.107 338.865C420.854 342.601 419.733 350.072 414.877 353.435C412.329 355.198 409.782 355.009 407.073 354.808C404.617 354.625 402.029 354.433 399.187 355.676C393.209 358.291 379.387 404.615 377.145 413.207C375.338 420.135 365.759 433.135 360.941 439.674L360.941 439.674L360.941 439.674C359.783 441.245 358.901 442.442 358.466 443.094C356.673 445.783 348.504 449.445 344.644 450.939L341.282 456.543V464.388H342.776ZM450.367 406.482C453.953 396.022 453.106 386.184 452.234 382.573C454.293 380.809 456.351 389.92 457.862 396.613C458.272 398.424 458.641 400.058 458.959 401.252C459.227 401.855 459.579 402.615 459.979 403.477L459.98 403.479C461.809 407.421 464.63 413.504 464.936 416.569C465.255 418.8 470.47 425.928 473.154 429.596L473.154 429.596L473.154 429.596C473.615 430.227 474.002 430.755 474.276 431.138C474.705 431.675 475.876 432.984 477.308 434.585L477.309 434.587L477.31 434.587L477.31 434.588L477.311 434.588C480.86 438.557 486.015 444.321 485.483 444.587C484.736 444.961 464.563 438.983 459.706 436.368C459.706 434.779 458.624 431.567 457.151 427.193C456.893 426.426 456.623 425.623 456.344 424.787C454.476 421.799 451.114 413.58 450.367 406.482ZM371.541 445.707C372.039 444.089 373.633 440.477 376.024 438.983C380.881 435.247 390.594 419.557 390.967 417.689C391.341 415.821 396.944 400.878 398.065 399.757C398.465 398.958 399.055 396.544 399.733 393.768L399.733 393.767L399.733 393.767C400.956 388.759 402.467 382.573 403.669 382.573C404.021 383.51 403.968 385.659 403.903 388.317V388.317C403.76 394.138 403.558 402.401 407.405 405.734C406.462 410.92 403.884 416.403 401.828 420.776C400.625 423.334 399.601 425.512 399.187 427.029C398.065 433.006 398.065 434.5 398.065 436.742C387.904 439.431 376.149 443.84 371.541 445.707ZM512.754 456.541L507.897 452.806C506.882 452.806 507.093 453.419 507.42 454.367C507.44 454.427 507.461 454.488 507.482 454.55C507.496 454.591 507.51 454.632 507.524 454.673C507.897 455.794 512.007 460.651 512.38 460.651C512.679 460.651 512.754 457.911 512.754 456.541ZM344.269 457.662C345.265 456.168 347.557 453.254 348.752 453.553C350.051 453.877 349.092 455.613 348.574 456.553C348.495 456.694 348.427 456.818 348.378 456.915C348.08 457.513 346.511 459.157 345.763 459.904C344.767 460.028 343.074 459.754 344.269 457.662Z" fill="#A9C745"/>
<path d="M689.707 504.677C682.21 483.079 672.406 462.286 660.065 443.1C647.84 423.915 632.615 406.568 614.622 392.552C596.745 378.537 576.215 368.197 554.647 360.96C543.921 357.283 532.849 354.526 521.661 352.343C510.473 350.046 499.055 348.897 487.752 347.174L486.022 346.944L485.791 345.451C485.215 340.396 485.214 336.145 485.099 331.55L484.984 317.994L485.099 304.438L485.215 297.66C485.33 295.247 485.33 293.409 485.791 290.422L486.137 288.01L488.79 288.584L499.401 291.111L496.172 293.639L496.056 266.871L498.709 269.628L487.175 269.169L484.522 269.054V266.412L484.407 249.294L486.483 252.051L481.87 250.673L479.794 250.098V247.916V234.245L481.754 237.002L477.948 235.738L475.988 235.049V232.981V221.838L478.179 224.71L473.911 223.561L471.72 222.986V220.689V210.005L473.911 212.877L469.298 211.613L467.107 211.039V208.741V203.571V202.308C467.107 202.078 467.107 201.963 467.107 201.848L466.991 201.503C466.876 201.274 466.761 200.929 466.761 201.044C466.876 201.044 466.53 201.274 468.145 201.963C468.26 201.963 467.568 201.848 467.337 201.733C466.53 201.503 465.492 200.929 464.8 199.895C464.108 198.861 463.877 197.827 463.877 197.138C463.762 195.759 463.877 195.185 463.877 194.151V188.752L465.953 191.624L462.147 190.36L460.071 189.671V187.488V184.271C460.071 183.122 460.071 182.088 459.956 181.399L459.84 181.054C459.84 181.169 459.84 181.169 460.186 181.629C460.417 181.859 460.532 181.973 460.763 182.088C461.109 182.318 461.801 182.433 461.57 182.433L461.224 182.318C460.417 182.088 459.264 181.744 458.341 180.71C457.303 179.676 456.957 178.297 456.842 177.378C456.726 176.459 456.842 175.885 456.842 175.31C456.842 174.851 456.611 173.128 456.611 172.438C456.611 172.323 456.496 172.094 456.611 172.323C456.726 172.438 456.611 172.783 457.764 173.472C457.88 173.587 458.11 173.587 458.11 173.587H457.995H457.88L457.534 173.472C456.726 173.128 455.688 172.553 454.881 171.519C453.266 169.107 453.843 167.154 453.728 166.35V165.775L453.612 164.971L453.497 163.248L455.342 165.89L452.805 164.741L451.536 164.167L451.075 162.903L447.269 151.3L449.114 153.253L447.038 152.449L445.885 151.989L445.308 150.84C443.001 146.015 442.194 140.616 442.079 135.676C441.963 130.621 442.424 125.911 442.194 121.431L442.079 119.593L443.693 118.559C446.461 116.72 449.806 115.112 452.113 113.274C454.42 111.321 456.034 109.023 456.611 106.381C456.957 105.003 456.957 103.624 456.957 102.016V96.731V86.1619V80.8773C456.957 79.0392 456.957 77.8904 456.611 76.3969C456.034 73.7546 454.535 71.457 452.228 69.7338C449.691 67.8957 446.807 66.2873 443.693 64.7939C442.079 63.9897 440.925 63.5301 439.31 63.0706L434.236 61.692L432.16 61.1176L431.929 58.9349L426.277 5.74451L431.237 8.3868C430.545 8.73144 429.968 9.07609 429.391 9.30585L428.93 9.53562C428.93 9.53562 429.045 9.53562 429.391 9.19097C429.737 8.96121 430.083 7.92727 429.968 8.27191C429.737 8.96121 429.622 9.99514 429.507 11.0291L428.815 17.8071L427.315 31.4781L425.816 45.149C425.355 49.7443 424.893 54.3396 424.086 59.0498L423.74 61.2325L421.664 61.692C414.974 63.1855 408.746 65.2534 404.248 69.3891C402.057 71.3421 400.442 73.7546 399.75 76.3969C399.404 77.7755 399.289 79.1541 399.289 80.6476V85.9321V96.5013V101.671C399.289 103.164 399.404 104.543 399.75 105.922C400.442 108.679 402.057 110.976 404.363 112.929C406.555 114.768 409.899 116.376 412.783 118.214L414.398 119.133V120.856V135.331V138.893V140.731C414.398 141.535 414.282 142.339 414.052 143.143C413.936 143.603 413.821 143.948 413.706 144.407L413.36 145.211L412.668 146.934L411.168 150.381L410.707 151.53L409.553 151.989L407.708 152.793L409.438 150.955L405.747 162.329L405.401 163.592L404.248 164.167L401.711 165.43L403.325 163.133C403.21 163.937 403.21 164.971 403.095 166.235C403.095 166.809 403.095 167.498 402.864 168.303C402.749 168.647 402.749 169.222 402.518 169.796C402.403 170.141 402.287 170.485 401.826 170.945C401.711 171.175 401.48 171.404 401.134 171.634C400.903 171.864 400.442 172.094 400.557 172.094C399.981 172.438 400.096 172.323 400.096 172.553C399.981 172.783 400.096 173.932 399.981 175.54C399.865 176.459 399.75 176.804 399.634 177.608C399.519 177.953 399.404 178.297 399.289 178.757C399.173 178.987 399.173 179.216 398.942 179.561C398.712 179.906 398.596 180.25 397.789 180.94C397.558 181.169 396.059 181.629 396.405 181.514H396.29C396.174 181.514 396.174 181.514 396.174 181.514C396.174 181.514 396.174 181.514 396.29 181.399C396.52 181.169 396.751 180.71 396.636 180.825V187.143V189.326L394.56 190.015L390.638 191.279L392.714 188.407V197.712V199.78L390.754 200.469L387.178 201.848L389.139 199.091V208.281V210.464L387.063 211.153L382.565 212.647L384.641 209.89V220.459V222.757L382.449 223.331L378.297 224.48L380.489 221.608V228.845C380.604 230.339 380.604 232.407 378.989 234.475C377.259 236.428 375.068 236.772 373.453 236.887L376.221 234.015V247.916V250.098L374.145 250.673L369.647 251.937L371.723 249.179L371.608 266.641V269.514H368.84L357.306 269.399L360.074 266.641L359.959 293.639L356.729 291.111L367.917 288.584L371.031 287.895V291.111L370.685 345.221V347.174L368.84 347.404C346.003 350.161 323.628 353.837 301.944 361.189C280.376 368.427 259.962 378.881 241.969 392.782C224.207 406.798 208.291 423.685 197.218 443.675C185.8 463.434 175.881 483.998 167 505.022C175.535 483.883 184.993 462.975 196.065 442.985C198.833 437.931 201.832 433.105 205.061 428.28C208.291 423.57 211.866 418.975 215.672 414.724C223.169 405.993 231.473 397.952 240.354 390.714C258.347 376.239 278.992 365.21 300.791 357.743C322.589 350.046 345.542 346.025 368.148 343.038L366.302 345.221L365.956 291.111L369.07 293.524L357.883 296.166L354.768 296.855V293.639L354.653 266.641V263.884H357.421L368.955 263.769L366.187 266.527L366.071 249.065V246.882L368.148 246.307L372.646 245.044L370.57 247.801V233.9V231.143L373.338 231.028C374.26 231.028 374.722 230.683 374.606 230.683C374.606 230.798 374.837 230.224 374.722 229.19L374.606 221.493V219.31L376.798 218.736L380.95 217.587L378.759 220.459V209.89V207.707L380.835 207.018L385.333 205.524L383.257 208.396V199.206V197.138L385.217 196.449L388.793 195.07L386.832 197.827V188.522V186.339L388.908 185.65L392.83 184.386L390.754 187.258V180.25C390.754 179.331 391.33 177.723 392.484 176.804C393.06 176.344 393.637 176.115 394.098 175.885C394.329 175.77 394.56 175.655 394.79 175.655L395.136 175.54C395.598 175.425 394.214 175.77 394.214 176C393.637 176.459 393.637 176.574 393.522 176.689L393.637 176.229C393.752 175.885 393.868 175.195 393.868 174.966C393.983 174.391 393.752 173.128 394.098 171.289C394.329 170.37 394.79 169.222 395.482 168.417C396.174 167.613 396.982 167.154 397.674 166.694C397.904 166.579 397.558 166.694 397.443 166.809C397.212 166.924 397.097 167.039 397.097 167.154C396.866 167.383 396.866 167.498 396.866 167.613C396.866 167.728 396.866 167.613 396.866 167.498C396.866 167.154 396.982 166.694 396.982 166.235C396.982 165.201 396.982 164.052 397.212 162.673L397.443 161.065L398.827 160.261L401.365 158.997L399.865 160.835L403.441 149.462L403.902 148.198L405.171 147.624L407.016 146.82L405.401 148.428L406.785 145.211L407.477 143.603L407.823 142.799C407.939 142.684 407.939 142.454 407.939 142.339C408.054 141.995 408.054 141.535 408.054 141.19V139.008V135.446V120.971L409.669 123.728C406.67 121.89 403.556 120.512 400.326 117.869C397.212 115.342 394.675 111.781 393.637 107.76C393.06 105.807 392.83 103.739 392.945 101.786V96.5013V86.1619V80.9922C392.83 79.0392 393.06 76.9713 393.522 74.9035C394.444 70.7677 396.982 67.2064 399.981 64.5641C405.863 59.2795 413.475 56.9819 420.28 55.3735L417.742 58.1307C418.434 53.7652 419.011 49.1699 419.357 44.5746L420.741 30.7888L422.125 17.0029L422.817 10.11C422.933 8.84632 423.163 7.58262 423.625 6.08916C423.509 6.20404 423.971 4.94034 424.547 4.48081C425.009 3.9064 425.355 3.79152 425.701 3.56175C426.277 3.21711 426.508 3.10223 426.854 2.98734C427.431 2.75758 427.777 2.52782 428.123 2.41293L432.621 0.000411987L433.198 5.05522L438.849 58.0158L436.542 55.2586L441.502 56.6372C443.232 57.0968 445.423 58.0158 446.807 58.82C450.037 60.4283 453.266 62.1516 456.38 64.4492C459.725 66.8617 462.378 70.7677 463.185 74.9035C463.646 76.8565 463.646 79.1541 463.646 80.8773V86.047V96.3864V101.556C463.646 103.394 463.646 105.577 463.07 107.645C462.147 111.781 459.494 115.457 456.38 117.869C454.766 119.248 453.266 119.937 451.767 120.971L447.153 123.728L448.653 120.856C448.883 125.911 448.422 130.736 448.537 135.331C448.653 139.927 449.229 144.177 451.075 148.083L449.345 146.475L451.421 147.279L452.805 147.854L453.266 149.232L456.957 160.835L455.227 158.997L457.764 160.146L459.379 160.835L459.61 162.673C459.84 164.282 459.956 168.992 459.725 167.613C459.61 167.498 459.61 167.498 459.725 167.613L460.417 167.843C461.801 168.647 461.917 169.336 462.147 169.681C462.493 170.485 462.493 170.83 462.608 171.175C462.839 172.783 462.839 173.242 462.954 175.081C462.954 175.77 462.954 176.229 462.954 176.459C462.954 176.689 462.955 176.459 462.724 176.229C462.493 176 462.493 176.114 462.724 176.229H462.839C462.608 176.229 463.416 176.344 463.762 176.574C464.108 176.804 464.339 176.919 464.569 177.148C465.146 177.838 465.261 178.182 465.377 178.412C465.607 178.987 465.607 179.331 465.723 179.791C466.069 181.399 465.953 182.433 465.953 183.582V187.028L463.877 184.156L467.683 185.42L469.759 186.109V188.292V193.577V195.989C469.759 196.219 469.759 196.104 469.644 195.759C469.413 195.53 469.183 195.415 469.298 195.415C469.413 195.415 469.183 195.415 469.759 195.53C471.835 196.334 471.72 197.023 472.066 197.368C472.527 198.172 472.643 198.746 472.873 199.321C472.989 199.665 472.989 199.895 473.104 200.24C473.22 200.584 473.219 201.044 473.219 201.159V202.537V208.052L471.028 205.18L475.642 206.443L477.833 207.018V209.315V219.999L475.642 217.127L479.909 218.276L482.1 218.851V221.033V232.177L480.14 229.42L483.946 230.683L485.907 231.373V233.441V247.112L483.83 244.354L488.444 245.733L490.52 246.307V248.49L490.405 265.608L487.752 262.85L499.286 263.425L501.938 263.54V266.067L501.823 292.835V296.166L498.594 295.362L487.983 292.72L490.981 290.882C490.751 292.375 490.635 295.017 490.52 297.085L490.289 303.863L490.059 317.304V330.861C490.174 335.226 490.174 340.051 490.52 343.957L488.675 342.234C499.978 344.072 511.396 345.451 522.699 347.863C534.002 350.276 545.19 353.148 556.031 357.054C577.83 364.636 598.591 375.55 616.468 390.14C634.345 404.615 649.454 422.421 661.334 442.066C673.214 461.941 682.671 482.964 689.707 504.677Z" fill="white"/>
<defs>
<filter id="filter0_f_898_8297" x="249" y="402" width="360" height="144" filterUnits="userSpaceOnUse" color-interpolation-filters="sRGB">
<feFlood flood-opacity="0" result="BackgroundImageFix"/>
<feBlend mode="normal" in="SourceGraphic" in2="BackgroundImageFix" result="shape"/>
<feGaussianBlur stdDeviation="30" result="effect1_foregroundBlur_898_8297"/>
</filter>
<linearGradient id="paint0_linear_898_8297" x1="428.5" y1="436" x2="428.5" y2="647" gradientUnits="userSpaceOnUse">
<stop stop-color="#4F7739" stop-opacity="0.53"/>
<stop offset="1" stop-color="#4F7739" stop-opacity="0"/>
</linearGradient>
</defs>
</svg>
