<svg width="74" height="60" viewBox="0 0 74 60" fill="none" xmlns="http://www.w3.org/2000/svg">
<path d="M18.0402 60C14.5587 60 11.7103 59.2857 9.49483 57.8571C7.27937 56.4286 5.45952 54.6032 4.0353 52.381C2.29458 49.8413 1.18685 47.0635 0.712112 44.0476C0.237371 41.0317 0 38.5714 0 36.6667C0 28.8889 1.97809 21.8254 5.93427 15.4762C9.89044 9.12699 16.0621 3.96826 24.4492 0L26.5855 4.28572C21.6799 6.34921 17.4072 9.60318 13.7675 14.0476C10.2861 18.4921 8.54534 23.0159 8.54534 27.6191C8.54534 29.5238 8.78271 31.1905 9.25746 32.6191C11.7894 30.5556 14.717 29.5238 18.0402 29.5238C22.1546 29.5238 25.7152 30.873 28.7219 33.5714C31.7285 36.2698 33.2319 40 33.2319 44.7619C33.2319 49.2064 31.7285 52.8571 28.7219 55.7143C25.7152 58.5714 22.1546 60 18.0402 60ZM58.3932 60C54.9118 60 52.0633 59.2857 49.8478 57.8571C47.6324 56.4286 45.8125 54.6032 44.3883 52.381C42.6476 49.8413 41.5399 47.0635 41.0651 44.0476C40.5904 41.0317 40.353 38.5714 40.353 36.6667C40.353 28.8889 42.3311 21.8254 46.2873 15.4762C50.2435 9.12699 56.4151 3.96826 64.8022 0L66.9385 4.28572C62.0329 6.34921 57.7602 9.60318 54.1205 14.0476C50.6391 18.4921 48.8984 23.0159 48.8984 27.6191C48.8984 29.5238 49.1357 31.1905 49.6105 32.6191C52.1424 30.5556 55.07 29.5238 58.3932 29.5238C62.5076 29.5238 66.0682 30.873 69.0749 33.5714C72.0816 36.2698 73.5849 40 73.5849 44.7619C73.5849 49.2064 72.0816 52.8571 69.0749 55.7143C66.0682 58.5714 62.5076 60 58.3932 60Z" fill="#A9C745"/>
</svg>
