<svg width="100" height="82" viewBox="0 0 100 82" fill="none" xmlns="http://www.w3.org/2000/svg">
<path d="M96.1711 60.0865C96.1711 61.9707 95.3113 64.029 93.218 66.192C91.1092 68.3709 87.8968 70.4853 83.6687 72.3331C75.2225 76.0244 63.3214 78.3907 50 78.3907C36.6786 78.3907 24.7775 76.0244 16.3313 72.3331C12.1032 70.4853 8.89082 68.3709 6.78203 66.192C4.68867 64.029 3.8289 61.9707 3.8289 60.0865C3.8289 58.2022 4.68867 56.1439 6.78203 53.9809C8.89082 51.802 12.1032 49.6877 16.3313 47.8398C24.7775 44.1486 36.6786 41.7822 50 41.7822C63.3214 41.7822 75.2225 44.1486 83.6687 47.8398C87.8968 49.6877 91.1092 51.802 93.218 53.9809C95.3113 56.1439 96.1711 58.2022 96.1711 60.0865Z" stroke="#A9C745" stroke-width="6.6578"/>
<path d="M61.2295 60.3069C61.2295 66.3379 56.3154 71.2514 50.2235 71.2514C44.1316 71.2514 39.2176 66.3379 39.2176 60.3069C39.2176 54.2758 44.1316 49.3623 50.2235 49.3623C56.3154 49.3623 61.2295 54.2758 61.2295 60.3069Z" stroke="#A9C745" stroke-width="6.6578"/>
<ellipse cx="50.4479" cy="60.3173" rx="4.48015" ry="4.46095" fill="white"/>
<path d="M9.45801 16.1501L19.3021 33.071" stroke="white" stroke-width="8.32226" stroke-linecap="round"/>
<path d="M36.123 5.00023L37.8515 24.4792" stroke="white" stroke-width="8.32226" stroke-linecap="round"/>
<path d="M65.2373 5.00023L63.582 24.4855" stroke="white" stroke-width="8.32226" stroke-linecap="round"/>
<path d="M90.3184 16.1501L80.0301 32.807" stroke="white" stroke-width="8.32226" stroke-linecap="round"/>
</svg>
