<svg width="29" height="17" viewBox="0 0 29 17" fill="none" xmlns="http://www.w3.org/2000/svg">
<path d="M27.0295 5.48308C27.3576 4.07521 28.4015 2.66646 28.4015 2.66646H23.7211C21.0917 0.966333 17.905 0.069458 14.3691 0.069458C10.7055 0.069458 7.39709 0.980333 4.78522 2.69446H0.402344C0.402344 2.69446 1.43134 4.07958 1.76384 5.47783C0.912469 6.65383 0.402344 8.07133 0.402344 9.62971C0.402344 13.4937 3.55147 16.6393 7.41547 16.6393C9.62659 16.6393 11.5848 15.6042 12.8798 14.01L14.3647 16.243L15.8732 13.982C16.5533 14.8572 17.435 15.5548 18.4431 16.0155C20.1432 16.7855 22.0525 16.8721 23.8025 16.2246C27.4258 14.8806 29.28 10.8337 27.95 7.21121C27.7212 6.59086 27.4032 6.00721 27.0058 5.47871L27.0295 5.48308ZM23.3282 14.9025C22.6395 15.1604 21.9063 15.2784 21.1715 15.2496C20.4366 15.2207 19.7149 15.0456 19.0486 14.7345C18.1008 14.295 17.2966 13.5964 16.729 12.7193C16.491 12.3693 16.2915 11.9905 16.141 11.5853C15.9668 11.1242 15.8855 10.6508 15.84 10.1678C15.7533 9.19746 15.8898 8.21746 16.309 7.30571C16.617 6.63658 17.0541 6.03487 17.5952 5.53515C18.1364 5.03542 18.771 4.64752 19.4625 4.39371C22.3666 3.32708 25.5875 4.81721 26.6541 7.71083C27.7251 10.6053 26.235 13.828 23.3457 14.899H23.3282V14.9025ZM12.0495 12.7622C11.5368 13.5202 10.8464 14.1412 10.0385 14.5709C9.23054 15.0005 8.32968 15.2258 7.41459 15.2271C4.33022 15.2271 1.81372 12.7115 1.81372 9.63058C1.81372 6.54971 4.33022 4.02971 7.41459 4.02971C10.5007 4.02971 13.0111 6.54971 13.0111 9.63058C13.0111 9.82221 12.9796 9.99458 12.956 10.1906C12.8606 11.1347 12.5596 12.0281 12.0495 12.7797V12.7622ZM3.85422 9.55708C3.85422 11.4716 5.41259 13.0212 7.32272 13.0212C9.23284 13.0212 10.7868 11.4716 10.7868 9.55708C10.7868 8.63834 10.4219 7.75723 9.77222 7.10758C9.12257 6.45793 8.24146 6.09296 7.32272 6.09296C6.40398 6.09296 5.52286 6.45793 4.87321 7.10758C4.22356 7.75723 3.85859 8.63834 3.85859 9.55708H3.85422ZM17.9137 9.55708C17.913 10.242 18.1155 10.9117 18.4956 11.4814C18.8756 12.0512 19.4161 12.4954 20.0487 12.7578C20.6813 13.0203 21.3776 13.0892 22.0493 12.9558C22.7211 12.8224 23.3382 12.4928 23.8226 12.0085C24.3069 11.5243 24.6367 10.9073 24.7703 10.2356C24.9038 9.56383 24.8351 8.86758 24.5728 8.23491C24.3105 7.60225 23.8664 7.06161 23.2968 6.68142C22.7271 6.30123 22.0575 6.09856 21.3726 6.09908C20.4552 6.10001 19.5755 6.46443 18.9263 7.11256C18.277 7.76068 17.911 8.63969 17.9085 9.55708H17.9137ZM5.05384 9.55708C5.05407 8.95692 5.29198 8.38128 5.71554 7.95609C6.1391 7.53089 6.71381 7.29075 7.31397 7.28821C8.55384 7.28821 9.58809 8.30933 9.58809 9.55708C9.58809 10.1608 9.34827 10.7398 8.92138 11.1667C8.49448 11.5936 7.9155 11.8334 7.31178 11.8334C6.70807 11.8334 6.12908 11.5936 5.70219 11.1667C5.27529 10.7398 5.03547 10.1608 5.03547 9.55708H5.05384ZM19.095 9.55708C19.095 8.95534 19.334 8.37824 19.7595 7.95275C20.185 7.52725 20.7621 7.28821 21.3638 7.28821C21.9587 7.30148 22.5247 7.54755 22.9401 7.97357C23.3555 8.39959 23.5873 8.97155 23.5855 9.56658C23.5838 10.1616 23.3488 10.7322 22.9309 11.1558C22.513 11.5795 21.9457 11.8223 21.3507 11.8321C21.0519 11.8324 20.7559 11.7738 20.4797 11.6596C20.2035 11.5454 19.9526 11.3778 19.7413 11.1665C19.53 10.9552 19.3624 10.7043 19.2482 10.4281C19.134 10.1519 19.0754 9.85594 19.0757 9.55708H19.095ZM14.3638 1.29446C16.8838 1.29446 19.1588 1.74596 21.1547 2.64896C20.3954 2.66903 19.6442 2.81053 18.9296 3.06808C18.0631 3.38228 17.2684 3.86676 16.5921 4.49296C15.9159 5.11917 15.3718 5.87442 14.9921 6.71421C14.6281 7.48421 14.4365 8.29971 14.363 9.12483C14.2338 7.38061 13.4589 5.74722 12.1896 4.54386C10.9204 3.34049 9.2481 2.65362 7.49947 2.61746C9.49534 1.76083 11.8115 1.29533 14.3131 1.29533L14.3638 1.29446Z" fill="#234924"/>
</svg>
