<svg width="493" height="258" viewBox="0 0 493 258" fill="none" xmlns="http://www.w3.org/2000/svg">
<path d="M-4.42349 177.323C-4.42349 177.323 228.35 172.163 449.658 2.34829" stroke="#A9C745" stroke-width="2.24517" stroke-miterlimit="10"/>
<path d="M454.242 22.2324L468.852 42.8127L449.426 54.1868C445.226 57.063 439.938 60.4891 433.924 64.2818C419.616 73.3971 411.999 84.8624 411.999 84.8624L386.68 45.5876C386.68 45.5876 399.034 39.4515 409.274 31.558C419.611 23.6428 443.85 6.60245 443.85 6.60245L454.242 22.2324Z" fill="#EBA934"/>
<path d="M0.972656 176.615L45.9344 250.149C45.9344 250.149 79.1063 227.033 100.513 225.659C121.942 224.381 158.222 213.258 161.229 211.361L134.042 154.839C134.042 154.839 67.2526 171.318 49.4096 173.716C31.5141 176.329 0.972656 176.615 0.972656 176.615Z" fill="#298ED7"/>
<path d="M151.651 150.055L183.506 203.088C183.506 203.088 204.143 188.89 223.475 187.274C242.785 185.56 256.271 179.067 260.081 177.599L236.765 121.22C236.765 121.22 165.217 147.505 161.154 147.405C157.113 147.402 151.651 150.055 151.651 150.055Z" fill="#EFEFEF"/>
<path d="M250.25 114.73L275.869 169.676C275.869 169.676 298.147 151.554 313.077 147.884C328.007 144.213 339.329 131.709 339.329 131.709L316.836 85.705C316.836 85.705 296.052 97.905 275.99 106.591C257.209 114.684 250.25 114.73 250.25 114.73Z" fill="#D8323A"/>
<path d="M323.011 84.4134L348.662 123.816C348.662 123.816 359.534 111.11 370.567 108.521C381.599 105.932 399.733 91.3848 399.733 91.3848L373.937 53.1313C373.937 53.1313 353.614 68.2736 339.522 72.9737C325.453 77.7704 323.011 84.4134 323.011 84.4134Z" fill="#27A845"/>
</svg>
