<svg width="596" height="40" viewBox="0 0 596 40" fill="none" xmlns="http://www.w3.org/2000/svg">
<line y1="19.5" x2="238" y2="19.5" stroke="#234924"/>
<path d="M318 20.493C318 20.3153 317.965 20.1732 317.859 20.0311C317.578 19.6402 317.227 19.2849 316.841 18.9651C316.771 18.8941 316.7 18.8585 316.595 18.7875C316.419 18.6809 316.244 18.5743 316.068 18.4677C315.892 18.3611 315.717 18.29 315.506 18.1834C315.401 18.1479 315.33 18.1124 315.225 18.0768C314.628 17.8636 313.996 17.686 313.328 17.5439C313.223 17.5083 313.117 17.5083 312.977 17.4728C312.064 17.3307 311.08 17.2951 310.061 17.2951C309.324 17.2951 308.551 17.3662 307.778 17.4373L308.024 17.6149C307.954 17.5439 307.849 17.5083 307.778 17.4373C303.739 17.8636 299.769 19.0362 298.154 19.5336L299.032 18.4322C299.032 18.4322 299.032 18.3966 299.067 18.3966C299.102 18.3611 299.137 18.29 299.137 18.219C299.172 18.219 299.207 18.1834 299.278 18.1834C299.418 18.1124 299.559 18.0768 299.699 18.0058C299.875 17.9347 300.015 17.8636 300.191 17.757C300.367 17.686 300.542 17.5794 300.718 17.4728C300.894 17.3662 301.104 17.2596 301.28 17.153C301.491 17.0464 301.666 16.9043 301.842 16.7977C302.228 16.549 302.58 16.3002 302.931 16.016C303.282 15.7673 303.598 15.5185 303.844 15.2698C304.09 15.0566 304.336 14.879 304.512 14.7724C304.582 14.7013 304.652 14.6658 304.722 14.6302C304.757 14.5947 304.793 14.5947 304.793 14.5947C304.828 14.5947 304.828 14.5592 304.863 14.5236C304.933 14.4171 304.898 14.3105 304.793 14.2394C304.687 14.1683 304.582 14.2039 304.512 14.3105C304.512 14.3105 304.512 14.346 304.476 14.3815C304.441 14.4171 304.406 14.4881 304.336 14.5592C304.195 14.7013 304.02 14.9145 303.774 15.1632C303.528 15.3764 303.212 15.6251 302.896 15.9094C302.58 16.1581 302.193 16.4424 301.807 16.6911C301.631 16.7977 301.42 16.9398 301.245 17.0464C301.069 17.153 300.858 17.2951 300.683 17.3662C300.507 17.4728 300.332 17.5794 300.156 17.6505C299.98 17.7215 299.805 17.8281 299.664 17.8636C299.524 17.9347 299.348 17.9702 299.243 18.0413C299.207 18.0413 299.207 18.0413 299.172 18.0768C299.172 17.9347 299.102 17.757 298.962 17.686C298.821 17.5794 298.645 17.5794 298.505 17.6149C298.505 17.5794 298.505 17.5439 298.505 17.5083C298.505 17.3662 298.54 17.2241 298.54 17.0464C298.54 16.8688 298.575 16.6911 298.61 16.5134C298.645 16.3358 298.681 16.1226 298.716 15.9094C298.751 15.6962 298.821 15.483 298.856 15.2698C298.891 15.0566 298.962 14.8434 299.032 14.5947C299.172 14.1683 299.313 13.7419 299.453 13.3156C299.594 12.9247 299.734 12.5339 299.875 12.2141C300.015 11.8943 300.156 11.6456 300.261 11.4679C300.331 11.3968 300.367 11.3258 300.402 11.2902C300.437 11.2547 300.472 11.2192 300.472 11.2192C300.507 11.1837 300.507 11.1837 300.507 11.1481C300.542 11.0415 300.472 10.9349 300.367 10.8994C300.261 10.8639 300.156 10.9349 300.121 11.0415C300.121 11.0415 300.121 11.0771 300.086 11.1126C300.086 11.1837 300.051 11.2547 300.015 11.3258C299.945 11.5034 299.875 11.7877 299.734 12.1075C299.594 12.4273 299.453 12.8181 299.313 13.209C299.172 13.5998 299.032 14.0617 298.926 14.4881C298.856 14.7013 298.786 14.9145 298.751 15.1632C298.716 15.3764 298.645 15.5896 298.61 15.8028C298.575 16.016 298.54 16.2292 298.505 16.4068C298.47 16.62 298.435 16.7977 298.435 16.9753C298.4 17.153 298.4 17.2951 298.4 17.4373C298.4 17.5083 298.4 17.5794 298.4 17.6505C298.364 17.686 298.329 17.7215 298.294 17.757L297.486 18.9296C297.486 17.2241 297.416 13.0313 296.608 9.01621C296.538 8.94514 296.468 8.90961 296.362 8.83855L296.608 9.01621C296.468 8.27004 296.292 7.48834 296.081 6.7777C295.8 5.78281 295.449 4.85898 295.063 4.00621C295.027 3.89962 294.957 3.79302 294.922 3.68643C294.606 3.08239 294.255 2.47835 293.868 1.9809C293.798 1.90984 293.728 1.80324 293.658 1.73217C293.517 1.59005 293.376 1.41239 293.236 1.27026C293.095 1.12814 292.955 0.986007 292.779 0.879412C292.709 0.808348 292.639 0.772816 292.533 0.701752C292.147 0.417497 291.69 0.204308 291.234 0.0266489C291.058 -0.00888297 290.918 -0.00888297 290.742 0.0266489C290.602 0.0621808 290.461 0.168772 290.356 0.3109C289.864 1.02154 289.056 2.54941 288.986 4.57472C288.986 5.03664 288.986 5.53409 289.091 6.06707C289.091 6.1026 289.091 6.13813 289.091 6.17366C289.091 6.20919 289.091 6.24473 289.056 6.28026C289.021 6.35132 288.986 6.42238 288.951 6.49344C288.915 6.52898 288.915 6.52898 288.88 6.56451C288.88 6.60004 288.845 6.60005 288.845 6.63558L288.81 6.6711C288.775 6.70663 288.775 6.70664 288.74 6.74217L288.705 6.7777C288.67 6.81324 288.67 6.84876 288.634 6.8843L288.599 6.91983C288.564 6.95536 288.529 6.99089 288.529 7.02642L288.494 7.06195C288.459 7.09749 288.424 7.13302 288.389 7.20408C288.389 7.20408 288.389 7.23961 288.353 7.23961C288.318 7.27515 288.283 7.34621 288.248 7.38174C288.248 7.38174 288.248 7.41727 288.213 7.41727C288.178 7.48834 288.143 7.52387 288.108 7.59493C288.108 7.59493 288.108 7.59494 288.108 7.63047C288.072 7.70153 288.037 7.73706 288.002 7.80813C287.967 7.87919 287.932 7.95026 287.897 8.02132C287.862 8.09238 287.827 8.16345 287.791 8.23451C286.948 9.83345 286.351 12.143 288.213 14.0973C288.353 14.2394 288.494 14.3815 288.634 14.5236C288.634 14.5236 282.417 14.1683 281.82 20.0666C281.75 20.8483 281.75 21.7722 281.925 22.8026C281.925 22.8736 281.96 22.9092 281.96 22.9802L278.272 23.9041H278.237C278.026 23.9751 277.956 24.2239 278.026 24.4015C278.097 24.6147 278.342 24.6858 278.518 24.6147L282.031 23.229C282.558 25.5741 284.384 26.1781 286.527 25.9649C289.618 25.6807 293.341 23.6909 294.817 22.8736L293.447 24.899C293.376 25.0056 293.412 25.1477 293.482 25.2187C293.587 25.2898 293.728 25.2898 293.798 25.1832L295.308 23.2645C294.957 24.97 294.22 29.1273 294.852 32.2185C295.308 34.3504 296.397 35.9494 298.751 35.7717L298.47 39.5736C298.47 39.7868 298.61 39.9645 298.821 40C299.032 40 299.207 39.8579 299.243 39.6447V39.6091L298.997 35.7717C299.067 35.7717 299.102 35.7717 299.172 35.7362C300.191 35.5585 301.034 35.3098 301.772 35.0255C307.181 32.6804 304.968 26.7821 304.968 26.7821C305.144 26.8887 305.319 26.9953 305.495 27.0664C307.884 28.2745 309.886 26.9953 311.15 25.7162C311.221 25.6451 311.256 25.6096 311.326 25.5385C311.396 25.4675 311.431 25.4319 311.467 25.3609C311.502 25.2898 311.572 25.2543 311.607 25.1832C311.607 25.1832 311.607 25.1832 311.642 25.1477C311.677 25.1121 311.712 25.0411 311.783 25.0055C311.783 25.0055 311.783 25.0055 311.818 24.97C311.853 24.9345 311.888 24.8634 311.923 24.8279C311.923 24.8279 311.923 24.7924 311.958 24.7924C311.993 24.7568 312.029 24.7213 312.064 24.6502L312.099 24.6147C312.134 24.5792 312.169 24.5436 312.169 24.5081L312.204 24.4726C312.239 24.437 312.239 24.4015 312.274 24.366C312.274 24.3304 312.31 24.3304 312.31 24.3304C312.345 24.2949 312.345 24.2594 312.38 24.2594C312.38 24.2238 312.415 24.2239 312.415 24.1883C312.415 24.1528 312.45 24.1528 312.45 24.1173C312.485 24.0817 312.485 24.0462 312.52 24.0462C312.555 23.9751 312.626 23.9041 312.696 23.8685C312.731 23.833 312.766 23.833 312.801 23.833C312.836 23.833 312.872 23.7975 312.907 23.7975C313.434 23.7264 313.89 23.6198 314.312 23.4421C316.209 22.8026 317.403 21.5234 317.93 20.8483C317.965 20.8128 318 20.6707 318 20.493ZM288.81 12.8537C288.845 12.8537 288.845 12.8537 288.81 12.8537V12.8537Z" fill="url(#paint0_radial_63_1606)"/>
<line x1="358" y1="19.5" x2="596" y2="19.5" stroke="#234924"/>
<defs>
<radialGradient id="paint0_radial_63_1606" cx="0" cy="0" r="1" gradientUnits="userSpaceOnUse" gradientTransform="translate(297.817 19.9778) rotate(-2.76546) scale(20.0485 20.279)">
<stop stop-color="#A9C745"/>
<stop offset="1" stop-color="#234924"/>
</radialGradient>
</defs>
</svg>
