<svg width="24" height="25" viewBox="0 0 24 25" fill="none" xmlns="http://www.w3.org/2000/svg">
<path d="M16.5559 13.6267L16.1009 14.0797C16.1009 14.0797 15.0179 15.1557 12.0629 12.2177C9.10788 9.27968 10.1909 8.20368 10.1909 8.20368L10.4769 7.91768C11.1839 7.21568 11.2509 6.08768 10.6339 5.26368L9.37388 3.58068C8.60988 2.56068 7.13488 2.42568 6.25988 3.29568L4.68988 4.85568C4.25688 5.28768 3.96688 5.84568 4.00188 6.46568C4.09188 8.05268 4.80988 11.4657 8.81388 15.4477C13.0609 19.6697 17.0459 19.8377 18.6749 19.6857C19.1909 19.6377 19.6389 19.3757 19.9999 19.0157L21.4199 17.6037C22.3799 16.6507 22.1099 15.0157 20.8819 14.3487L18.9719 13.3097C18.1659 12.8717 17.1859 13.0007 16.5559 13.6267Z" fill="#234924"/>
</svg>
