<svg width="604" height="559" viewBox="0 0 604 559" fill="none" xmlns="http://www.w3.org/2000/svg">
<path d="M329.597 451.878C302.329 451.878 275.14 453.363 247.872 456.413C83.4762 475.961 -4.78998 542.502 18.3799 559C7.81947 559 -17.3994 541.485 -19.9213 519.435C-22.4432 492.928 36.0331 466.89 102.154 449.845C145.499 419.819 199.01 358.752 241.882 309.256C221.707 311.759 202.005 313.244 182.382 313.244C95.6128 313.244 24.9999 278.214 19.4832 232.707C18.4587 226.217 24.527 213.706 31.6198 205.184C46.2783 188.138 69.921 187.2 73.4674 189.154C64.4044 192.126 53.7652 200.649 53.2923 209.641C51.7949 243.654 111.769 290.725 205.079 290.725C214.142 290.725 223.756 290.256 233.844 289.239C242.907 288.223 251.497 287.206 260.56 285.721C359.387 162.647 465.858 1.96397 556.094 0.00918682C584.86 -0.459962 607.557 17.0549 603.537 49.0352C594.474 135.124 458.765 252.724 301.935 296.277C254.019 352.809 197.513 411.374 156.69 438.351C181.909 433.815 207.128 430.844 228.8 429.828C240.385 429.359 251.97 428.811 264.579 428.811C374.045 428.811 515.271 452.347 564.212 491.364C507.627 468.376 420.858 451.878 329.597 451.878ZM324.08 269.692C486.506 215.661 580.84 74.5257 576.269 31.9895C574.772 19.0097 567.206 9.9395 554.045 14.0055C512.67 26.5161 420.858 154.125 324.08 269.692Z" fill="#A9C745" fill-opacity="0.05"/>
</svg>
