<svg width="24" height="25" viewBox="0 0 24 25" fill="none" xmlns="http://www.w3.org/2000/svg">
<path d="M7.19098 0.697021H16.991C20.7243 0.697021 23.7576 3.73035 23.7576 7.46369V17.2637C23.7576 19.0583 23.0447 20.7794 21.7757 22.0484C20.5067 23.3174 18.7856 24.0304 16.991 24.0304H7.19098C3.45765 24.0304 0.424316 20.997 0.424316 17.2637V7.46369C0.424316 5.66906 1.13723 3.94793 2.40623 2.67893C3.67522 1.40994 5.39635 0.697021 7.19098 0.697021ZM6.95765 3.03035C5.84374 3.03035 4.77545 3.47285 3.9878 4.26051C3.20015 5.04816 2.75765 6.11645 2.75765 7.23035V17.497C2.75765 19.8187 4.63598 21.697 6.95765 21.697H17.2243C18.3382 21.697 19.4065 21.2545 20.1942 20.4669C20.9818 19.6792 21.4243 18.6109 21.4243 17.497V7.23035C21.4243 4.90869 19.546 3.03035 17.2243 3.03035H6.95765ZM18.216 4.78035C18.6028 4.78035 18.9737 4.934 19.2472 5.20749C19.5207 5.48098 19.6743 5.85191 19.6743 6.23869C19.6743 6.62546 19.5207 6.99639 19.2472 7.26989C18.9737 7.54338 18.6028 7.69702 18.216 7.69702C17.8292 7.69702 17.4583 7.54338 17.1848 7.26989C16.9113 6.99639 16.7576 6.62546 16.7576 6.23869C16.7576 5.85191 16.9113 5.48098 17.1848 5.20749C17.4583 4.934 17.8292 4.78035 18.216 4.78035ZM12.091 6.53035C13.6381 6.53035 15.1218 7.14494 16.2158 8.2389C17.3097 9.33286 17.9243 10.8166 17.9243 12.3637C17.9243 13.9108 17.3097 15.3945 16.2158 16.4885C15.1218 17.5824 13.6381 18.197 12.091 18.197C10.5439 18.197 9.06016 17.5824 7.96619 16.4885C6.87223 15.3945 6.25765 13.9108 6.25765 12.3637C6.25765 10.8166 6.87223 9.33286 7.96619 8.2389C9.06016 7.14494 10.5439 6.53035 12.091 6.53035ZM12.091 8.86369C11.1627 8.86369 10.2725 9.23244 9.61611 9.88881C8.95973 10.5452 8.59098 11.4354 8.59098 12.3637C8.59098 13.2919 8.95973 14.1822 9.61611 14.8386C10.2725 15.4949 11.1627 15.8637 12.091 15.8637C13.0192 15.8637 13.9095 15.4949 14.5659 14.8386C15.2222 14.1822 15.591 13.2919 15.591 12.3637C15.591 11.4354 15.2222 10.5452 14.5659 9.88881C13.9095 9.23244 13.0192 8.86369 12.091 8.86369Z" fill="#234924"/>
</svg>
