<svg width="30" height="26" viewBox="0 0 30 26" fill="none" xmlns="http://www.w3.org/2000/svg">
<path d="M26.9163 6.83727C26.9354 7.10584 26.9354 7.37446 26.9354 7.64302C26.9354 15.8346 20.7488 25.2731 9.44166 25.2731C5.95813 25.2731 2.7221 24.2563 0 22.4915C0.494943 22.549 0.970785 22.5682 1.48477 22.5682C4.3591 22.5682 7.00509 21.5898 9.11804 19.9208C6.41499 19.8633 4.14974 18.0791 3.36927 15.6236C3.75001 15.6811 4.1307 15.7195 4.53049 15.7195C5.0825 15.7195 5.63457 15.6427 6.1485 15.5085C3.33124 14.9329 1.21823 12.439 1.21823 9.42713V9.35042C2.03673 9.81084 2.98859 10.0986 3.9974 10.1369C2.3413 9.02422 1.25631 7.12503 1.25631 4.9764C1.25631 3.82538 1.56083 2.77026 2.09386 1.84942C5.12053 5.60949 9.67006 8.065 14.7715 8.33362C14.6764 7.8732 14.6193 7.39365 14.6193 6.91404C14.6193 3.49924 17.3604 0.71759 20.7678 0.71759C22.5381 0.71759 24.137 1.46577 25.2602 2.67436C26.6497 2.4058 27.9822 1.8878 29.1625 1.17801C28.7055 2.61684 27.7348 3.82544 26.4594 4.59275C27.6967 4.45852 28.896 4.11314 30 3.63358C29.1626 4.86131 28.1156 5.95476 26.9163 6.83727Z" fill="#145F4B"/>
</svg>
